<svg width="86" height="16" viewBox="0 0 86 16" fill="none" xmlns="http://www.w3.org/2000/svg">
<path d="M4 2.144C4.24533 1.48267 4.71467 1.152 5.408 1.152C5.87733 1.152 6.26133 1.29067 6.56 1.568C6.85867 1.83467 7.008 2.23467 7.008 2.768V14.096H3.808V6.112H2.304C1.856 6.112 1.46667 6 1.136 5.776C0.816 5.552 0.656 5.216 0.656 4.768C0.656 4.39467 0.768 4.096 0.992 3.872C1.216 3.648 1.488 3.51467 1.808 3.472C2.32 3.408 2.77333 3.28 3.168 3.088C3.57333 2.88533 3.85067 2.57067 4 2.144ZM12.853 11.28C12.853 11.5573 12.8957 11.7333 12.981 11.808C13.077 11.8827 13.2637 11.92 13.541 11.92H15.941C16.1757 11.92 16.373 11.9573 16.533 12.032C16.7037 12.1067 16.837 12.208 16.933 12.336C17.0397 12.4533 17.1143 12.592 17.157 12.752C17.2103 12.9013 17.237 13.056 17.237 13.216C17.237 13.5467 17.1357 13.8507 16.933 14.128C16.7303 14.4053 16.3997 14.544 15.941 14.544H12.261C11.7703 14.544 11.365 14.5067 11.045 14.432C10.7357 14.368 10.4903 14.2453 10.309 14.064C10.1277 13.8933 9.99967 13.6587 9.925 13.36C9.861 13.0507 9.829 12.656 9.829 12.176V8.528C9.829 8.048 9.861 7.65867 9.925 7.36C9.99967 7.06133 10.1277 6.82667 10.309 6.656C10.4903 6.47467 10.7357 6.352 11.045 6.288C11.365 6.224 11.7703 6.192 12.261 6.192H13.109V3.808C13.109 3.648 13.077 3.54133 13.013 3.488C12.949 3.424 12.837 3.392 12.677 3.392H11.205C10.725 3.392 10.3783 3.25867 10.165 2.992C9.95167 2.71467 9.845 2.41067 9.845 2.08C9.845 1.92 9.86633 1.76 9.909 1.6C9.96233 1.44 10.0423 1.30133 10.149 1.184C10.2663 1.056 10.4103 0.954666 10.581 0.879999C10.7517 0.794666 10.9597 0.751999 11.205 0.751999H13.589C14.133 0.751999 14.565 0.783999 14.885 0.848C15.2157 0.911999 15.4663 1.024 15.637 1.184C15.8183 1.344 15.9357 1.56267 15.989 1.84C16.0423 2.10667 16.069 2.448 16.069 2.864V8.8H13.541C13.2637 8.8 13.077 8.83733 12.981 8.912C12.8957 8.98667 12.853 9.16267 12.853 9.44V11.28ZM17.973 8.368H17.541C17.2957 8.368 17.093 8.33067 16.933 8.256C16.7837 8.18133 16.661 8.08 16.565 7.952C16.4797 7.824 16.4157 7.67467 16.373 7.504C16.341 7.33333 16.325 7.152 16.325 6.96C16.325 6.77867 16.341 6.60267 16.373 6.432C16.4157 6.26133 16.4797 6.112 16.565 5.984C16.661 5.856 16.7837 5.75467 16.933 5.68C17.093 5.59467 17.2957 5.552 17.541 5.552H17.973V1.552C17.973 1.104 18.1063 0.767999 18.373 0.544C18.6397 0.309333 18.9597 0.191999 19.333 0.191999C19.6957 0.191999 20.0157 0.309333 20.293 0.544C20.581 0.767999 20.725 1.104 20.725 1.552V15.216H17.973V8.368ZM21.461 1.552C21.461 1.104 21.5997 0.767999 21.877 0.544C22.165 0.309333 22.4957 0.191999 22.869 0.191999C23.2317 0.191999 23.557 0.309333 23.845 0.544C24.133 0.767999 24.277 1.104 24.277 1.552V15.216H21.461V1.552ZM27.237 10.416C26.9383 10.416 26.7197 10.32 26.581 10.128C26.453 9.936 26.389 9.72267 26.389 9.488C26.389 9.27467 26.4583 9.072 26.597 8.88C26.7357 8.67733 26.949 8.576 27.237 8.576H38.229C38.9223 8.576 39.4077 8.69867 39.685 8.944C39.973 9.17867 40.117 9.60533 40.117 10.224V12.72H29.941C29.8237 12.72 29.733 12.752 29.669 12.816C29.6157 12.8693 29.589 12.9387 29.589 13.024V13.072C29.589 13.1573 29.6157 13.2267 29.669 13.28C29.733 13.3333 29.8237 13.36 29.941 13.36H39.637C39.9463 13.36 40.1703 13.4613 40.309 13.664C40.4583 13.856 40.533 14.0747 40.533 14.32C40.533 14.5333 40.4637 14.736 40.325 14.928C40.1863 15.12 39.957 15.216 39.637 15.216H28.421C28.069 15.216 27.7543 15.1573 27.477 15.04C27.1997 14.9227 26.965 14.768 26.773 14.576C26.5917 14.384 26.453 14.16 26.357 13.904C26.261 13.648 26.213 13.3813 26.213 13.104V12.912C26.213 12.3467 26.3997 11.8987 26.773 11.568C27.157 11.2267 27.7063 11.056 28.421 11.056H36.869V10.656C36.869 10.5707 36.853 10.512 36.821 10.48C36.789 10.4373 36.7197 10.416 36.613 10.416H27.237ZM27.797 7.92C27.3703 7.92 27.0183 7.88267 26.741 7.808C26.4743 7.72267 26.261 7.59467 26.101 7.424C25.941 7.24267 25.829 7.01333 25.765 6.736C25.701 6.45867 25.669 6.11733 25.669 5.712V2.064C25.669 1.552 25.797 1.184 26.053 0.959999C26.309 0.725333 26.645 0.608 27.061 0.608C27.477 0.608 27.8077 0.725333 28.053 0.959999C28.2983 1.184 28.421 1.552 28.421 2.064V2.144H30.181V2.064C30.181 1.552 30.2983 1.184 30.533 0.959999C30.7783 0.725333 31.109 0.608 31.525 0.608C31.9517 0.608 32.277 0.725333 32.501 0.959999C32.7357 1.184 32.853 1.552 32.853 2.064V2.928H33.957V1.552C33.957 1.104 34.0903 0.767999 34.357 0.544C34.6237 0.309333 34.9437 0.191999 35.317 0.191999C35.6797 0.191999 35.9943 0.309333 36.261 0.544C36.5277 0.767999 36.661 1.104 36.661 1.552V8.144H33.957V5.36H32.853V7.92H27.797ZM37.365 1.552C37.365 1.104 37.4983 0.767999 37.765 0.544C38.0317 0.309333 38.3517 0.191999 38.725 0.191999C39.0877 0.191999 39.4077 0.309333 39.685 0.544C39.973 0.767999 40.117 1.104 40.117 1.552V8.144H37.365V1.552ZM30.181 5.76V4.224H28.421V5.376C28.421 5.54667 28.4423 5.65333 28.485 5.696C28.5383 5.73867 28.6503 5.76 28.821 5.76H30.181ZM48.9694 2.144C49.2147 1.48267 49.684 1.152 50.3774 1.152C50.8467 1.152 51.2307 1.29067 51.5294 1.568C51.828 1.83467 51.9774 2.23467 51.9774 2.768V14.096H48.7774V6.112H47.2734C46.8254 6.112 46.436 6 46.1054 5.776C45.7854 5.552 45.6254 5.216 45.6254 4.768C45.6254 4.39467 45.7374 4.096 45.9614 3.872C46.1854 3.648 46.4574 3.51467 46.7774 3.472C47.2894 3.408 47.7427 3.28 48.1374 3.088C48.5427 2.88533 48.82 2.57067 48.9694 2.144ZM62.5744 0.735999C62.777 0.735999 62.9477 0.778666 63.0864 0.863999C63.2357 0.938666 63.353 1.03467 63.4384 1.152C63.5344 1.26933 63.5984 1.408 63.6304 1.568C63.673 1.71733 63.6944 1.86133 63.6944 2C63.6944 2.13867 63.673 2.28267 63.6304 2.432C63.5877 2.57067 63.5237 2.704 63.4384 2.832C63.353 2.94933 63.2357 3.04533 63.0864 3.12C62.9477 3.19467 62.777 3.232 62.5744 3.232H58.5104C58.2117 3.232 58.0624 3.36 58.0624 3.616V5.824C58.0624 5.97333 58.0997 6.08 58.1744 6.144C58.249 6.19733 58.361 6.224 58.5104 6.224H63.1824C63.385 6.224 63.561 6.26133 63.7104 6.336C63.8597 6.41067 63.977 6.50667 64.0624 6.624C64.1477 6.74133 64.2117 6.87467 64.2544 7.024C64.297 7.16267 64.3184 7.30133 64.3184 7.44C64.3184 7.58933 64.297 7.73867 64.2544 7.888C64.2117 8.02667 64.1477 8.16 64.0624 8.288C63.977 8.40533 63.8597 8.50133 63.7104 8.576C63.561 8.65067 63.385 8.688 63.1824 8.688H57.1824C56.7344 8.688 56.3664 8.65067 56.0784 8.576C55.7904 8.50133 55.5557 8.37867 55.3744 8.208C55.2037 8.02667 55.081 7.79733 55.0064 7.52C54.9424 7.232 54.9104 6.88 54.9104 6.464V2.96C54.9104 2.544 54.9424 2.19733 55.0064 1.92C55.081 1.632 55.2037 1.40267 55.3744 1.232C55.5557 1.05067 55.7904 0.922666 56.0784 0.848C56.3664 0.773333 56.7344 0.735999 57.1824 0.735999H62.5744ZM57.9664 15.216C57.5184 15.216 57.145 15.1733 56.8464 15.088C56.5584 15.0027 56.329 14.8693 56.1584 14.688C55.9877 14.5067 55.865 14.2667 55.7904 13.968C55.7264 13.6693 55.6944 13.3067 55.6944 12.88V11.2C55.6944 10.656 55.8544 10.256 56.1744 10C56.505 9.744 56.8944 9.616 57.3424 9.616C57.7904 9.616 58.169 9.744 58.4784 10C58.7877 10.256 58.9424 10.656 58.9424 11.2V12.336C58.9424 12.5173 58.969 12.6293 59.0224 12.672C59.0757 12.7147 59.193 12.736 59.3744 12.736H67.7584C68.249 12.736 68.5957 12.864 68.7984 13.12C69.001 13.3653 69.1024 13.648 69.1024 13.968C69.1024 14.2987 68.9957 14.5867 68.7824 14.832C68.5797 15.088 68.2384 15.216 67.7584 15.216H57.9664ZM65.4224 1.776C65.4224 1.25333 65.577 0.858666 65.8864 0.591999C66.1957 0.325333 66.5637 0.191999 66.9904 0.191999C67.4064 0.191999 67.769 0.330666 68.0784 0.608C68.3984 0.874666 68.5584 1.264 68.5584 1.776V4.192H69.0544C69.2997 4.192 69.5024 4.23467 69.6624 4.32C69.8224 4.40533 69.9504 4.51733 70.0464 4.656C70.1424 4.784 70.2117 4.93333 70.2544 5.104C70.297 5.264 70.3184 5.424 70.3184 5.584C70.3184 5.744 70.297 5.90933 70.2544 6.08C70.2117 6.24 70.1424 6.38933 70.0464 6.528C69.9504 6.656 69.817 6.76267 69.6464 6.848C69.4864 6.93333 69.289 6.976 69.0544 6.976H68.5584V11.504H65.4224V1.776ZM74.6704 11.44C74.7344 11.6213 74.7664 11.8187 74.7664 12.032V12.416C74.7664 12.5973 74.793 12.7147 74.8464 12.768C74.8997 12.8107 75.017 12.832 75.1984 12.832H83.9024C84.393 12.832 84.7397 12.9547 84.9424 13.2C85.145 13.4347 85.2464 13.7067 85.2464 14.016C85.2464 14.3253 85.1397 14.6027 84.9264 14.848C84.7237 15.0933 84.3824 15.216 83.9024 15.216H73.8064C73.3584 15.216 72.985 15.1733 72.6864 15.088C72.3984 15.0027 72.169 14.8693 71.9984 14.688C71.8277 14.5067 71.705 14.2667 71.6304 13.968C71.5664 13.6693 71.5344 13.3067 71.5344 12.88V12.032C71.5344 11.488 71.6944 11.0933 72.0144 10.848C72.3344 10.592 72.7184 10.464 73.1664 10.464C73.4117 10.464 73.6464 10.5067 73.8704 10.592V8.944H71.6944C71.2144 8.944 70.873 8.82667 70.6704 8.592C70.4677 8.35733 70.3664 8.08 70.3664 7.76C70.3664 7.44 70.4677 7.15733 70.6704 6.912C70.873 6.66667 71.2144 6.544 71.6944 6.544H79.7904C80.2704 6.544 80.6117 6.66667 80.8144 6.912C81.017 7.15733 81.1184 7.44 81.1184 7.76C81.1184 8.08 81.017 8.35733 80.8144 8.592C80.6117 8.82667 80.2704 8.944 79.7904 8.944H76.9744V11.44H74.6704ZM73.7424 5.824C73.2304 5.824 72.7824 5.76 72.3984 5.632C72.025 5.49333 71.7157 5.312 71.4704 5.088C71.2357 4.85333 71.0597 4.576 70.9424 4.256C70.825 3.92533 70.7664 3.568 70.7664 3.184C70.7664 2.8 70.825 2.448 70.9424 2.128C71.0597 1.79733 71.2357 1.51467 71.4704 1.28C71.7157 1.04533 72.025 0.863999 72.3984 0.735999C72.7824 0.597332 73.2304 0.527999 73.7424 0.527999H77.4544C77.9664 0.527999 78.409 0.597332 78.7824 0.735999C79.1557 0.863999 79.4597 1.04533 79.6944 1.28C79.9397 1.51467 80.121 1.79733 80.2384 2.128C80.3557 2.448 80.4144 2.8 80.4144 3.184C80.4144 3.952 80.1744 4.58667 79.6944 5.088C79.225 5.57867 78.4784 5.824 77.4544 5.824H73.7424ZM81.6464 11.664H79.2144C78.7557 11.664 78.425 11.5627 78.2224 11.36C78.0304 11.1467 77.9344 10.8853 77.9344 10.576C77.9344 10.2667 78.0304 10.0053 78.2224 9.792C78.4144 9.57867 78.745 9.472 79.2144 9.472H81.6464V1.744C81.6464 1.232 81.8064 0.848 82.1264 0.591999C82.4464 0.325333 82.8144 0.191999 83.2304 0.191999C83.433 0.191999 83.6304 0.229333 83.8224 0.303999C84.0144 0.367999 84.185 0.463999 84.3344 0.591999C84.4837 0.719999 84.601 0.879999 84.6864 1.072C84.7824 1.264 84.8304 1.488 84.8304 1.744V12.144H81.6464V11.664ZM74.4304 2.688C74.185 2.688 74.0144 2.73067 73.9184 2.816C73.8224 2.89067 73.7744 3.01333 73.7744 3.184C73.7744 3.344 73.8224 3.472 73.9184 3.568C74.0144 3.65333 74.185 3.696 74.4304 3.696H76.7504C76.9957 3.696 77.1664 3.65333 77.2624 3.568C77.3584 3.472 77.4064 3.344 77.4064 3.184C77.4064 3.01333 77.3584 2.89067 77.2624 2.816C77.1664 2.73067 76.9957 2.688 76.7504 2.688H74.4304Z" fill="black"/>
</svg>
