<svg width="73" height="23" viewBox="0 0 73 23" fill="none" xmlns="http://www.w3.org/2000/svg">
<mask id="path-1-outside-1_287_6032" maskUnits="userSpaceOnUse" x="-3" y="-3" width="79" height="29" fill="black">
<rect fill="white" x="-3" y="-3" width="79" height="29"/>
<path d="M19.752 1.056C20.088 1.056 20.376 1.12 20.616 1.248C20.856 1.376 21.048 1.536 21.192 1.728C21.336 1.92 21.44 2.136 21.504 2.376C21.568 2.616 21.6 2.848 21.6 3.072C21.6 3.296 21.568 3.528 21.504 3.768C21.44 4.008 21.328 4.224 21.168 4.416C21.024 4.608 20.832 4.768 20.592 4.896C20.368 5.008 20.088 5.064 19.752 5.064H7.608C7.352 5.064 7.176 5.112 7.08 5.208C6.984 5.288 6.936 5.456 6.936 5.712V9.192C6.936 9.448 6.984 9.624 7.08 9.72C7.176 9.816 7.352 9.864 7.608 9.864H20.136C20.472 9.864 20.76 9.928 21 10.056C21.24 10.184 21.432 10.344 21.576 10.536C21.72 10.728 21.824 10.944 21.888 11.184C21.968 11.408 22.008 11.632 22.008 11.856C22.008 12.08 21.968 12.312 21.888 12.552C21.824 12.792 21.712 13.008 21.552 13.2C21.408 13.392 21.216 13.552 20.976 13.68C20.752 13.792 20.472 13.848 20.136 13.848H14.448V18.456H21.216C21.584 18.456 21.896 18.512 22.152 18.624C22.408 18.736 22.616 18.888 22.776 19.08C22.936 19.256 23.048 19.464 23.112 19.704C23.192 19.928 23.232 20.16 23.232 20.4C23.232 20.896 23.072 21.344 22.752 21.744C22.448 22.144 21.936 22.344 21.216 22.344H2.784C2.064 22.344 1.544 22.144 1.224 21.744C0.92 21.344 0.768 20.896 0.768 20.4C0.768 20.16 0.8 19.928 0.864 19.704C0.944 19.464 1.064 19.256 1.224 19.08C1.384 18.888 1.592 18.736 1.848 18.624C2.104 18.512 2.416 18.456 2.784 18.456H9.552V13.848H5.904C5.184 13.848 4.576 13.784 4.08 13.656C3.584 13.512 3.184 13.296 2.88 13.008C2.592 12.704 2.376 12.312 2.232 11.832C2.104 11.352 2.04 10.76 2.04 10.056V4.848C2.04 4.16 2.104 3.576 2.232 3.096C2.376 2.616 2.592 2.224 2.88 1.92C3.184 1.616 3.584 1.4 4.08 1.272C4.576 1.128 5.184 1.056 5.904 1.056H19.752ZM45.12 9.84C45.456 9.84 45.744 9.896 45.984 10.008C46.224 10.104 46.416 10.24 46.56 10.416C46.72 10.576 46.832 10.768 46.896 10.992C46.96 11.2 46.992 11.416 46.992 11.64C46.992 12.104 46.848 12.52 46.56 12.888C46.272 13.24 45.792 13.416 45.12 13.416H38.184V14.856H42.576C43.296 14.856 43.88 14.912 44.328 15.024C44.776 15.136 45.12 15.336 45.36 15.624C45.616 15.896 45.784 16.264 45.864 16.728C45.96 17.192 46.008 17.768 46.008 18.456V22.824H28.92C28.2 22.824 27.616 22.76 27.168 22.632C26.72 22.52 26.368 22.328 26.112 22.056C25.872 21.784 25.704 21.416 25.608 20.952C25.528 20.488 25.488 19.904 25.488 19.2V18.456C25.488 17.768 25.528 17.192 25.608 16.728C25.704 16.264 25.872 15.896 26.112 15.624C26.368 15.336 26.72 15.136 27.168 15.024C27.616 14.912 28.2 14.856 28.92 14.856H33.336V13.416H26.4C25.728 13.416 25.248 13.24 24.96 12.888C24.672 12.52 24.528 12.104 24.528 11.64C24.528 11.416 24.56 11.2 24.624 10.992C24.688 10.768 24.792 10.576 24.936 10.416C25.096 10.24 25.296 10.104 25.536 10.008C25.776 9.896 26.064 9.84 26.4 9.84H45.12ZM41.736 0.527999C42.488 0.527999 43.144 0.631999 43.704 0.839999C44.264 1.048 44.728 1.336 45.096 1.704C45.464 2.072 45.736 2.504 45.912 3C46.104 3.496 46.2 4.032 46.2 4.608C46.2 5.184 46.104 5.72 45.912 6.216C45.736 6.712 45.464 7.144 45.096 7.512C44.728 7.88 44.264 8.168 43.704 8.376C43.144 8.584 42.488 8.688 41.736 8.688H29.784C29.032 8.688 28.376 8.584 27.816 8.376C27.256 8.168 26.792 7.88 26.424 7.512C26.056 7.144 25.776 6.712 25.584 6.216C25.408 5.72 25.32 5.184 25.32 4.608C25.32 4.032 25.408 3.496 25.584 3C25.776 2.504 26.056 2.072 26.424 1.704C26.792 1.336 27.256 1.048 27.816 0.839999C28.376 0.631999 29.032 0.527999 29.784 0.527999H41.736ZM40.296 5.424C40.696 5.424 40.968 5.344 41.112 5.184C41.256 5.024 41.328 4.832 41.328 4.608C41.328 4.384 41.256 4.192 41.112 4.032C40.968 3.872 40.696 3.792 40.296 3.792H31.224C30.824 3.792 30.552 3.872 30.408 4.032C30.264 4.192 30.192 4.384 30.192 4.608C30.192 4.832 30.264 5.024 30.408 5.184C30.552 5.344 30.824 5.424 31.224 5.424H40.296ZM30.288 18.912C30.288 19.152 30.32 19.328 30.384 19.44C30.464 19.536 30.624 19.584 30.864 19.584H41.232V18.672C41.232 18.448 41.192 18.288 41.112 18.192C41.032 18.08 40.872 18.024 40.632 18.024H30.864C30.624 18.024 30.464 18.08 30.384 18.192C30.32 18.288 30.288 18.448 30.288 18.672V18.912ZM53.16 22.824C52.616 22.824 52.128 22.736 51.696 22.56C51.28 22.384 50.928 22.144 50.64 21.84C50.352 21.536 50.128 21.192 49.968 20.808C49.824 20.408 49.752 19.992 49.752 19.56V19.272C49.752 18.408 50.04 17.72 50.616 17.208C51.208 16.696 52.056 16.44 53.16 16.44H64.752V15.816C64.752 15.672 64.728 15.576 64.68 15.528C64.632 15.464 64.528 15.432 64.368 15.432H51.336C50.872 15.432 50.536 15.288 50.328 15C50.12 14.712 50.016 14.384 50.016 14.016C50.016 13.68 50.12 13.368 50.328 13.08C50.536 12.776 50.872 12.624 51.336 12.624H66.696C67.768 12.624 68.52 12.808 68.952 13.176C69.4 13.544 69.624 14.2 69.624 15.144V18.984H55.344C55.168 18.984 55.032 19.032 54.936 19.128C54.856 19.208 54.816 19.312 54.816 19.44V19.512C54.816 19.64 54.856 19.752 54.936 19.848C55.032 19.928 55.168 19.968 55.344 19.968H68.88C69.36 19.968 69.704 20.12 69.912 20.424C70.136 20.728 70.248 21.064 70.248 21.432C70.248 21.768 70.144 22.08 69.936 22.368C69.728 22.672 69.376 22.824 68.88 22.824H53.16ZM52.416 11.448C51.696 11.448 51.112 11.392 50.664 11.28C50.216 11.152 49.864 10.952 49.608 10.68C49.368 10.392 49.2 10.016 49.104 9.552C49.024 9.088 48.984 8.504 48.984 7.8V4.512C48.984 3.824 49.024 3.248 49.104 2.784C49.2 2.304 49.368 1.928 49.608 1.656C49.864 1.368 50.216 1.168 50.664 1.056C51.112 0.927999 51.696 0.863999 52.416 0.863999H58.896C59.616 0.863999 60.2 0.927999 60.648 1.056C61.096 1.168 61.44 1.368 61.68 1.656C61.936 1.928 62.104 2.304 62.184 2.784C62.28 3.248 62.328 3.824 62.328 4.512V11.448H52.416ZM64.704 2.664C64.704 1.88 64.936 1.288 65.4 0.887999C65.88 0.487999 66.44 0.287999 67.08 0.287999C67.704 0.287999 68.256 0.495999 68.736 0.912C69.216 1.312 69.456 1.896 69.456 2.664V4.152H70.2C70.568 4.152 70.872 4.216 71.112 4.344C71.352 4.456 71.544 4.616 71.688 4.824C71.832 5.016 71.936 5.232 72 5.472C72.064 5.712 72.096 5.952 72.096 6.192C72.096 6.432 72.064 6.68 72 6.936C71.936 7.176 71.832 7.392 71.688 7.584C71.544 7.776 71.344 7.936 71.088 8.064C70.848 8.176 70.552 8.232 70.2 8.232H69.456V11.856H64.704V2.664ZM53.52 7.368C53.52 7.624 53.552 7.792 53.616 7.872C53.696 7.952 53.856 7.992 54.096 7.992H57.792V4.92C57.792 4.696 57.752 4.544 57.672 4.464C57.592 4.368 57.432 4.32 57.192 4.32H54.096C53.856 4.32 53.696 4.368 53.616 4.464C53.552 4.544 53.52 4.696 53.52 4.92V7.368Z"/>
</mask>
<path d="M19.752 1.056C20.088 1.056 20.376 1.12 20.616 1.248C20.856 1.376 21.048 1.536 21.192 1.728C21.336 1.92 21.44 2.136 21.504 2.376C21.568 2.616 21.6 2.848 21.6 3.072C21.6 3.296 21.568 3.528 21.504 3.768C21.44 4.008 21.328 4.224 21.168 4.416C21.024 4.608 20.832 4.768 20.592 4.896C20.368 5.008 20.088 5.064 19.752 5.064H7.608C7.352 5.064 7.176 5.112 7.08 5.208C6.984 5.288 6.936 5.456 6.936 5.712V9.192C6.936 9.448 6.984 9.624 7.08 9.72C7.176 9.816 7.352 9.864 7.608 9.864H20.136C20.472 9.864 20.76 9.928 21 10.056C21.24 10.184 21.432 10.344 21.576 10.536C21.72 10.728 21.824 10.944 21.888 11.184C21.968 11.408 22.008 11.632 22.008 11.856C22.008 12.08 21.968 12.312 21.888 12.552C21.824 12.792 21.712 13.008 21.552 13.2C21.408 13.392 21.216 13.552 20.976 13.68C20.752 13.792 20.472 13.848 20.136 13.848H14.448V18.456H21.216C21.584 18.456 21.896 18.512 22.152 18.624C22.408 18.736 22.616 18.888 22.776 19.08C22.936 19.256 23.048 19.464 23.112 19.704C23.192 19.928 23.232 20.16 23.232 20.4C23.232 20.896 23.072 21.344 22.752 21.744C22.448 22.144 21.936 22.344 21.216 22.344H2.784C2.064 22.344 1.544 22.144 1.224 21.744C0.92 21.344 0.768 20.896 0.768 20.4C0.768 20.16 0.8 19.928 0.864 19.704C0.944 19.464 1.064 19.256 1.224 19.08C1.384 18.888 1.592 18.736 1.848 18.624C2.104 18.512 2.416 18.456 2.784 18.456H9.552V13.848H5.904C5.184 13.848 4.576 13.784 4.08 13.656C3.584 13.512 3.184 13.296 2.88 13.008C2.592 12.704 2.376 12.312 2.232 11.832C2.104 11.352 2.04 10.76 2.04 10.056V4.848C2.04 4.16 2.104 3.576 2.232 3.096C2.376 2.616 2.592 2.224 2.88 1.92C3.184 1.616 3.584 1.4 4.08 1.272C4.576 1.128 5.184 1.056 5.904 1.056H19.752ZM45.12 9.84C45.456 9.84 45.744 9.896 45.984 10.008C46.224 10.104 46.416 10.24 46.56 10.416C46.72 10.576 46.832 10.768 46.896 10.992C46.96 11.2 46.992 11.416 46.992 11.64C46.992 12.104 46.848 12.52 46.56 12.888C46.272 13.24 45.792 13.416 45.12 13.416H38.184V14.856H42.576C43.296 14.856 43.88 14.912 44.328 15.024C44.776 15.136 45.12 15.336 45.36 15.624C45.616 15.896 45.784 16.264 45.864 16.728C45.96 17.192 46.008 17.768 46.008 18.456V22.824H28.92C28.2 22.824 27.616 22.76 27.168 22.632C26.72 22.52 26.368 22.328 26.112 22.056C25.872 21.784 25.704 21.416 25.608 20.952C25.528 20.488 25.488 19.904 25.488 19.2V18.456C25.488 17.768 25.528 17.192 25.608 16.728C25.704 16.264 25.872 15.896 26.112 15.624C26.368 15.336 26.72 15.136 27.168 15.024C27.616 14.912 28.2 14.856 28.92 14.856H33.336V13.416H26.4C25.728 13.416 25.248 13.24 24.96 12.888C24.672 12.52 24.528 12.104 24.528 11.64C24.528 11.416 24.56 11.2 24.624 10.992C24.688 10.768 24.792 10.576 24.936 10.416C25.096 10.24 25.296 10.104 25.536 10.008C25.776 9.896 26.064 9.84 26.4 9.84H45.12ZM41.736 0.527999C42.488 0.527999 43.144 0.631999 43.704 0.839999C44.264 1.048 44.728 1.336 45.096 1.704C45.464 2.072 45.736 2.504 45.912 3C46.104 3.496 46.2 4.032 46.2 4.608C46.2 5.184 46.104 5.72 45.912 6.216C45.736 6.712 45.464 7.144 45.096 7.512C44.728 7.88 44.264 8.168 43.704 8.376C43.144 8.584 42.488 8.688 41.736 8.688H29.784C29.032 8.688 28.376 8.584 27.816 8.376C27.256 8.168 26.792 7.88 26.424 7.512C26.056 7.144 25.776 6.712 25.584 6.216C25.408 5.72 25.32 5.184 25.32 4.608C25.32 4.032 25.408 3.496 25.584 3C25.776 2.504 26.056 2.072 26.424 1.704C26.792 1.336 27.256 1.048 27.816 0.839999C28.376 0.631999 29.032 0.527999 29.784 0.527999H41.736ZM40.296 5.424C40.696 5.424 40.968 5.344 41.112 5.184C41.256 5.024 41.328 4.832 41.328 4.608C41.328 4.384 41.256 4.192 41.112 4.032C40.968 3.872 40.696 3.792 40.296 3.792H31.224C30.824 3.792 30.552 3.872 30.408 4.032C30.264 4.192 30.192 4.384 30.192 4.608C30.192 4.832 30.264 5.024 30.408 5.184C30.552 5.344 30.824 5.424 31.224 5.424H40.296ZM30.288 18.912C30.288 19.152 30.32 19.328 30.384 19.44C30.464 19.536 30.624 19.584 30.864 19.584H41.232V18.672C41.232 18.448 41.192 18.288 41.112 18.192C41.032 18.08 40.872 18.024 40.632 18.024H30.864C30.624 18.024 30.464 18.08 30.384 18.192C30.32 18.288 30.288 18.448 30.288 18.672V18.912ZM53.16 22.824C52.616 22.824 52.128 22.736 51.696 22.56C51.28 22.384 50.928 22.144 50.64 21.84C50.352 21.536 50.128 21.192 49.968 20.808C49.824 20.408 49.752 19.992 49.752 19.56V19.272C49.752 18.408 50.04 17.72 50.616 17.208C51.208 16.696 52.056 16.44 53.16 16.44H64.752V15.816C64.752 15.672 64.728 15.576 64.68 15.528C64.632 15.464 64.528 15.432 64.368 15.432H51.336C50.872 15.432 50.536 15.288 50.328 15C50.12 14.712 50.016 14.384 50.016 14.016C50.016 13.68 50.12 13.368 50.328 13.08C50.536 12.776 50.872 12.624 51.336 12.624H66.696C67.768 12.624 68.52 12.808 68.952 13.176C69.4 13.544 69.624 14.2 69.624 15.144V18.984H55.344C55.168 18.984 55.032 19.032 54.936 19.128C54.856 19.208 54.816 19.312 54.816 19.44V19.512C54.816 19.64 54.856 19.752 54.936 19.848C55.032 19.928 55.168 19.968 55.344 19.968H68.88C69.36 19.968 69.704 20.12 69.912 20.424C70.136 20.728 70.248 21.064 70.248 21.432C70.248 21.768 70.144 22.08 69.936 22.368C69.728 22.672 69.376 22.824 68.88 22.824H53.16ZM52.416 11.448C51.696 11.448 51.112 11.392 50.664 11.28C50.216 11.152 49.864 10.952 49.608 10.68C49.368 10.392 49.2 10.016 49.104 9.552C49.024 9.088 48.984 8.504 48.984 7.8V4.512C48.984 3.824 49.024 3.248 49.104 2.784C49.2 2.304 49.368 1.928 49.608 1.656C49.864 1.368 50.216 1.168 50.664 1.056C51.112 0.927999 51.696 0.863999 52.416 0.863999H58.896C59.616 0.863999 60.2 0.927999 60.648 1.056C61.096 1.168 61.44 1.368 61.68 1.656C61.936 1.928 62.104 2.304 62.184 2.784C62.28 3.248 62.328 3.824 62.328 4.512V11.448H52.416ZM64.704 2.664C64.704 1.88 64.936 1.288 65.4 0.887999C65.88 0.487999 66.44 0.287999 67.08 0.287999C67.704 0.287999 68.256 0.495999 68.736 0.912C69.216 1.312 69.456 1.896 69.456 2.664V4.152H70.2C70.568 4.152 70.872 4.216 71.112 4.344C71.352 4.456 71.544 4.616 71.688 4.824C71.832 5.016 71.936 5.232 72 5.472C72.064 5.712 72.096 5.952 72.096 6.192C72.096 6.432 72.064 6.68 72 6.936C71.936 7.176 71.832 7.392 71.688 7.584C71.544 7.776 71.344 7.936 71.088 8.064C70.848 8.176 70.552 8.232 70.2 8.232H69.456V11.856H64.704V2.664ZM53.52 7.368C53.52 7.624 53.552 7.792 53.616 7.872C53.696 7.952 53.856 7.992 54.096 7.992H57.792V4.92C57.792 4.696 57.752 4.544 57.672 4.464C57.592 4.368 57.432 4.32 57.192 4.32H54.096C53.856 4.32 53.696 4.368 53.616 4.464C53.552 4.544 53.52 4.696 53.52 4.92V7.368Z" fill="white"/>
<path d="M20.616 1.248L19.2042 3.89506L19.2042 3.89506L20.616 1.248ZM21.504 3.768L18.6053 2.99501L18.6053 2.99501L21.504 3.768ZM21.168 4.416L18.8633 2.49544L18.8141 2.5545L18.768 2.616L21.168 4.416ZM20.592 4.896L21.9336 7.57928L21.9689 7.56163L22.0038 7.54306L20.592 4.896ZM7.08 5.208L9.00055 7.51267L9.10509 7.42555L9.20132 7.32932L7.08 5.208ZM7.08 9.72L9.20132 7.59868L9.20132 7.59867L7.08 9.72ZM21 10.056L22.4118 7.40894L22.4118 7.40894L21 10.056ZM21.888 11.184L18.9893 11.957L19.0212 12.0765L19.0628 12.193L21.888 11.184ZM21.888 12.552L19.042 11.6033L19.0129 11.6904L18.9893 11.779L21.888 12.552ZM21.552 13.2L19.2473 11.2794L19.1981 11.3385L19.152 11.4L21.552 13.2ZM20.976 13.68L22.3176 16.3633L22.3529 16.3456L22.3878 16.3271L20.976 13.68ZM14.448 13.848V10.848H11.448V13.848H14.448ZM14.448 18.456H11.448V21.456H14.448V18.456ZM22.152 18.624L20.9495 21.3725L20.9495 21.3725L22.152 18.624ZM22.776 19.08L20.4713 21.0006L20.5127 21.0502L20.5562 21.098L22.776 19.08ZM23.112 19.704L20.2133 20.477L20.2452 20.5965L20.2868 20.713L23.112 19.704ZM22.752 21.744L20.4094 19.8699L20.3861 19.899L20.3635 19.9287L22.752 21.744ZM1.224 21.744L-1.16449 23.5592L-1.14191 23.589L-1.11861 23.6181L1.224 21.744ZM0.864 19.704L-1.98205 18.7553L-2.00266 18.8172L-2.02057 18.8798L0.864 19.704ZM1.224 19.08L3.44382 21.098L3.48729 21.0502L3.52866 21.0006L1.224 19.08ZM1.848 18.624L3.05046 21.3725L3.05046 21.3725L1.848 18.624ZM9.552 18.456V21.456H12.552V18.456H9.552ZM9.552 13.848H12.552V10.848H9.552V13.848ZM4.08 13.656L3.24357 16.537L3.28679 16.5496L3.33036 16.5608L4.08 13.656ZM2.88 13.008L0.702141 15.0712L0.757905 15.1301L0.816768 15.1859L2.88 13.008ZM2.232 11.832L-0.666705 12.605L-0.654779 12.6497L-0.641479 12.694L2.232 11.832ZM2.232 3.096L-0.641478 2.23395L-0.654779 2.27829L-0.666705 2.32301L2.232 3.096ZM2.88 1.92L0.758681 -0.201322L0.730019 -0.17266L0.702142 -0.143235L2.88 1.92ZM4.08 1.272L4.82964 4.17683L4.87321 4.16559L4.91643 4.15304L4.08 1.272ZM19.752 4.056C19.7098 4.056 19.4894 4.04714 19.2042 3.89506L22.0278 -1.39906C21.2626 -1.80714 20.4663 -1.944 19.752 -1.944V4.056ZM19.2042 3.89506C19.1086 3.84404 18.9445 3.73137 18.792 3.528L23.592 -0.0719989C23.1515 -0.659374 22.6034 -1.09205 22.0278 -1.39906L19.2042 3.89506ZM18.792 3.528C18.6975 3.40199 18.6367 3.26688 18.6053 3.14899L24.4027 1.60301C24.2433 1.00512 23.9745 0.438014 23.592 -0.0719989L18.792 3.528ZM18.6053 3.14899C18.6093 3.16388 18.6 3.13556 18.6 3.072H24.6C24.6 2.56044 24.5267 2.06812 24.4027 1.60301L18.6053 3.14899ZM18.6 3.072C18.6 3.00844 18.6093 2.98012 18.6053 2.99501L24.4027 4.54099C24.5267 4.07588 24.6 3.58356 24.6 3.072H18.6ZM18.6053 2.99501C18.6543 2.81119 18.7461 2.63612 18.8633 2.49544L23.4727 6.33655C23.9099 5.81187 24.2257 5.20481 24.4027 4.54099L18.6053 2.99501ZM18.768 2.616C18.9205 2.41263 19.0846 2.29996 19.1802 2.24894L22.0038 7.54306C22.5794 7.23604 23.1275 6.80337 23.568 6.216L18.768 2.616ZM19.2504 2.21272C19.5602 2.05778 19.7741 2.064 19.752 2.064V8.064C20.4019 8.064 21.1758 7.95822 21.9336 7.57928L19.2504 2.21272ZM19.752 2.064H7.608V8.064H19.752V2.064ZM7.608 2.064C7.1858 2.064 5.94437 2.101 4.95869 3.08667L9.20132 7.32932C8.77461 7.75603 8.32226 7.92641 8.07335 7.99429C7.82396 8.06231 7.64837 8.064 7.608 8.064V2.064ZM5.15945 2.90333C4.49814 3.45442 4.21326 4.12943 4.08743 4.56983C3.9603 5.01478 3.936 5.42202 3.936 5.712H9.936C9.936 5.74597 9.9357 5.94121 9.85657 6.21816C9.77874 6.49057 9.56586 7.04157 9.00055 7.51267L5.15945 2.90333ZM3.936 5.712V9.192H9.936V5.712H3.936ZM3.936 9.192C3.936 9.61419 3.973 10.8556 4.95869 11.8413L9.20132 7.59867C9.62802 8.02538 9.79841 8.47773 9.86629 8.72665C9.93431 8.97603 9.936 9.15163 9.936 9.192H3.936ZM4.95868 11.8413C5.94436 12.827 7.1858 12.864 7.608 12.864V6.864C7.64837 6.864 7.82397 6.86569 8.07335 6.93371C8.32227 7.00159 8.77462 7.17197 9.20132 7.59868L4.95868 11.8413ZM7.608 12.864H20.136V6.864H7.608V12.864ZM20.136 12.864C20.0938 12.864 19.8734 12.8551 19.5882 12.7031L22.4118 7.40894C21.6466 7.00086 20.8503 6.864 20.136 6.864V12.864ZM19.5882 12.7031C19.4926 12.652 19.3285 12.5394 19.176 12.336L23.976 8.736C23.5355 8.14863 22.9874 7.71596 22.4118 7.40894L19.5882 12.7031ZM19.176 12.336C19.0815 12.21 19.0207 12.0749 18.9893 11.957L24.7867 10.411C24.6273 9.81312 24.3585 9.24601 23.976 8.736L19.176 12.336ZM19.0628 12.193C19.0343 12.1133 19.008 11.9966 19.008 11.856H25.008C25.008 11.2674 24.9017 10.7027 24.7132 10.175L19.0628 12.193ZM19.008 11.856C19.008 11.7188 19.033 11.6302 19.042 11.6033L24.7341 13.5007C24.903 12.9938 25.008 12.4412 25.008 11.856H19.008ZM18.9893 11.779C19.0383 11.5952 19.1301 11.4201 19.2473 11.2794L23.8567 15.1206C24.2939 14.5959 24.6097 13.9888 24.7867 13.325L18.9893 11.779ZM19.152 11.4C19.3045 11.1966 19.4686 11.084 19.5642 11.0329L22.3878 16.3271C22.9634 16.02 23.5115 15.5874 23.952 15L19.152 11.4ZM19.6344 10.9967C19.9442 10.8418 20.1581 10.848 20.136 10.848V16.848C20.7859 16.848 21.5598 16.7422 22.3176 16.3633L19.6344 10.9967ZM20.136 10.848H14.448V16.848H20.136V10.848ZM11.448 13.848V18.456H17.448V13.848H11.448ZM14.448 21.456H21.216V15.456H14.448V21.456ZM21.216 21.456C21.2499 21.456 21.2402 21.4587 21.196 21.4508C21.151 21.4427 21.0635 21.4223 20.9495 21.3725L23.3545 15.8755C22.6195 15.554 21.873 15.456 21.216 15.456V21.456ZM20.9495 21.3725C20.8298 21.3201 20.6431 21.2067 20.4713 21.0006L25.0807 17.1594C24.5889 16.5693 23.9862 16.1519 23.3545 15.8755L20.9495 21.3725ZM20.5562 21.098C20.3792 20.9034 20.2672 20.6791 20.2133 20.477L26.0107 18.931C25.8288 18.2489 25.4928 17.6086 24.9958 17.062L20.5562 21.098ZM20.2868 20.713C20.2501 20.6102 20.232 20.5007 20.232 20.4H26.232C26.232 19.8193 26.1339 19.2458 25.9372 18.695L20.2868 20.713ZM20.232 20.4C20.232 20.319 20.2462 20.2125 20.2868 20.099C20.3269 19.9867 20.3777 19.9096 20.4094 19.8699L25.0946 23.6181C25.8251 22.705 26.232 21.601 26.232 20.4H20.232ZM20.3635 19.9287C20.5766 19.6484 20.8403 19.4809 21.0484 19.3996C21.2297 19.3288 21.3122 19.344 21.216 19.344V25.344C22.446 25.344 24.0527 24.9906 25.1405 23.5593L20.3635 19.9287ZM21.216 19.344H2.784V25.344H21.216V19.344ZM2.784 19.344C2.68976 19.344 2.76312 19.3294 2.93094 19.394C3.12258 19.4677 3.36547 19.6185 3.56661 19.8699L-1.11861 23.6181C-0.0242187 24.9861 1.54125 25.344 2.784 25.344V19.344ZM3.61249 19.9288C3.64403 19.9703 3.68873 20.0433 3.72294 20.1441C3.75729 20.2454 3.768 20.3362 3.768 20.4H-2.232C-2.232 21.5607 -1.85967 22.6445 -1.16449 23.5592L3.61249 19.9288ZM3.768 20.4C3.768 20.4303 3.76345 20.4761 3.74857 20.5282L-2.02057 18.8798C-2.16345 19.3799 -2.232 19.8897 -2.232 20.4H3.768ZM3.71005 20.6527C3.66654 20.7832 3.58232 20.9457 3.44382 21.098L-0.99582 17.062C-1.45432 17.5663 -1.77854 18.1448 -1.98205 18.7553L3.71005 20.6527ZM3.52866 21.0006C3.35686 21.2067 3.17023 21.3201 3.05046 21.3725L0.645544 15.8755C0.0137684 16.1519 -0.588861 16.5693 -1.08066 17.1594L3.52866 21.0006ZM3.05046 21.3725C2.93654 21.4223 2.84901 21.4427 2.80399 21.4508C2.75984 21.4587 2.75009 21.456 2.784 21.456V15.456C2.12701 15.456 1.38049 15.554 0.645543 15.8755L3.05046 21.3725ZM2.784 21.456H9.552V15.456H2.784V21.456ZM12.552 18.456V13.848H6.552V18.456H12.552ZM9.552 10.848H5.904V16.848H9.552V10.848ZM5.904 10.848C5.34334 10.848 5.00426 10.7962 4.82964 10.7512L3.33036 16.5608C4.14774 16.7718 5.02466 16.848 5.904 16.848V10.848ZM4.91643 10.775C4.84567 10.7544 4.82292 10.7406 4.83345 10.7463C4.84573 10.7529 4.88827 10.7781 4.94323 10.8301L0.816768 15.1859C1.53956 15.8706 2.3938 16.2903 3.24357 16.537L4.91643 10.775ZM5.05786 10.9448C5.07874 10.9668 5.0951 10.9871 5.10733 11.004C5.11949 11.0208 5.12654 11.0328 5.12952 11.0382C5.13535 11.0488 5.1236 11.0304 5.10548 10.97L-0.641479 12.694C-0.388975 13.5357 0.0340483 14.366 0.702141 15.0712L5.05786 10.9448ZM5.1307 11.059C5.09142 10.9117 5.04 10.5981 5.04 10.056H-0.96C-0.96 10.9219 -0.883421 11.7923 -0.666705 12.605L5.1307 11.059ZM5.04 10.056V4.848H-0.96V10.056H5.04ZM5.04 4.848C5.04 4.32878 5.09015 4.02105 5.13071 3.86899L-0.666705 2.32301C-0.882154 3.13095 -0.96 3.99122 -0.96 4.848H5.04ZM5.10548 3.95804C5.1236 3.89764 5.13535 3.87923 5.12951 3.88981C5.12654 3.89522 5.11949 3.90724 5.10733 3.92403C5.0951 3.94092 5.07874 3.96119 5.05786 3.98323L0.702142 -0.143235C0.0340492 0.561975 -0.388975 1.39228 -0.641478 2.23395L5.10548 3.95804ZM5.00132 4.04132C4.93622 4.10642 4.8746 4.14749 4.83345 4.16972C4.79474 4.19062 4.7876 4.18768 4.82964 4.17683L3.33036 -1.63283C2.41525 -1.39667 1.50855 -0.951187 0.758681 -0.201322L5.00132 4.04132ZM4.91643 4.15304C5.05729 4.11214 5.36469 4.056 5.904 4.056V-1.944C5.00331 -1.944 4.09471 -1.85614 3.24357 -1.60904L4.91643 4.15304ZM5.904 4.056H19.752V-1.944H5.904V4.056ZM45.984 10.008L44.7153 12.7265L44.7916 12.7622L44.8698 12.7934L45.984 10.008ZM46.56 10.416L44.2381 12.3157L44.3329 12.4315L44.4387 12.5373L46.56 10.416ZM46.896 10.992L44.0114 11.8162L44.0198 11.8453L44.0287 11.8743L46.896 10.992ZM46.56 12.888L48.8819 14.7877L48.9025 14.7625L48.9225 14.7369L46.56 12.888ZM38.184 13.416V10.416H35.184V13.416H38.184ZM38.184 14.856H35.184V17.856H38.184V14.856ZM45.36 15.624L43.0553 17.5446L43.1133 17.6141L43.1754 17.6801L45.36 15.624ZM45.864 16.728L42.9076 17.2377L42.9161 17.2869L42.9262 17.3358L45.864 16.728ZM46.008 22.824V25.824H49.008V22.824H46.008ZM27.168 22.632L27.9922 19.7474L27.9441 19.7337L27.8956 19.7216L27.168 22.632ZM26.112 22.056L23.8625 24.0409L23.8944 24.077L23.9274 24.1121L26.112 22.056ZM25.608 20.952L22.6516 21.4617L22.6601 21.5109L22.6702 21.5598L25.608 20.952ZM25.608 16.728L22.6702 16.1202L22.6601 16.1691L22.6516 16.2183L25.608 16.728ZM26.112 15.624L23.8698 13.6309L23.8625 13.6391L26.112 15.624ZM33.336 14.856V17.856H36.336V14.856H33.336ZM33.336 13.416H36.336V10.416H33.336V13.416ZM24.96 12.888L22.5975 14.7369L22.6175 14.7625L22.6381 14.7877L24.96 12.888ZM24.624 10.992L27.4913 11.8743L27.5002 11.8453L27.5086 11.8162L24.624 10.992ZM24.936 10.416L22.7162 8.39798L22.7111 8.40353L22.7061 8.4091L24.936 10.416ZM25.536 10.008L26.6502 12.7934L26.7284 12.7622L26.8047 12.7265L25.536 10.008ZM43.704 0.839999L42.6594 3.65227L42.6594 3.65227L43.704 0.839999ZM45.912 3L43.0847 4.00323L43.0989 4.04331L43.1143 4.08298L45.912 3ZM45.912 6.216L43.1143 5.13301L43.0989 5.17268L43.0847 5.21277L45.912 6.216ZM43.704 8.376L42.6594 5.56372L42.6594 5.56372L43.704 8.376ZM27.816 8.376L28.8606 5.56372L28.8606 5.56372L27.816 8.376ZM26.424 7.512L28.5453 5.39068L28.5453 5.39068L26.424 7.512ZM25.584 6.216L22.7567 7.21923L22.7709 7.25931L22.7863 7.29898L25.584 6.216ZM25.584 3L22.7863 1.91701L22.7709 1.95668L22.7567 1.99677L25.584 3ZM26.424 1.704L28.5453 3.82532L28.5453 3.82532L26.424 1.704ZM27.816 0.839999L28.8606 3.65227L28.8606 3.65227L27.816 0.839999ZM30.384 19.44L27.7793 20.9284L27.9103 21.1577L28.0793 21.3606L30.384 19.44ZM41.232 19.584V22.584H44.232V19.584H41.232ZM41.112 18.192L38.6708 19.9357L38.7358 20.0267L38.8073 20.1126L41.112 18.192ZM30.384 18.192L27.9428 16.4483L27.9147 16.4876L27.8879 16.5279L30.384 18.192ZM45.12 12.84C45.1316 12.84 44.9643 12.8427 44.7153 12.7265L47.2527 7.28945C46.5237 6.94926 45.7804 6.84 45.12 6.84V12.84ZM44.8698 12.7934C44.7041 12.7271 44.4571 12.5833 44.2381 12.3157L48.8819 8.51629C48.3749 7.89667 47.7439 7.48085 47.0982 7.22257L44.8698 12.7934ZM44.4387 12.5373C44.2272 12.3259 44.0832 12.0673 44.0114 11.8162L49.7806 10.1678C49.5808 9.46872 49.2128 8.82613 48.6813 8.29468L44.4387 12.5373ZM44.0287 11.8743C44.0022 11.7881 43.992 11.7062 43.992 11.64H49.992C49.992 11.1258 49.9178 10.6119 49.7633 10.1097L44.0287 11.8743ZM43.992 11.64C43.992 11.5562 44.006 11.443 44.049 11.3187C44.092 11.1945 44.1498 11.1 44.1975 11.0391L48.9225 14.7369C49.6204 13.8452 49.992 12.7794 49.992 11.64H43.992ZM44.2381 10.9883C44.4748 10.6991 44.7512 10.5407 44.9512 10.4674C45.1278 10.4026 45.2083 10.416 45.12 10.416V16.416C46.2504 16.416 47.7936 16.1178 48.8819 14.7877L44.2381 10.9883ZM45.12 10.416H38.184V16.416H45.12V10.416ZM35.184 13.416V14.856H41.184V13.416H35.184ZM38.184 17.856H42.576V11.856H38.184V17.856ZM42.576 17.856C43.1709 17.856 43.484 17.9053 43.6004 17.9344L45.0556 12.1136C44.276 11.9187 43.4211 11.856 42.576 11.856V17.856ZM43.6004 17.9344C43.5935 17.9327 43.5214 17.9139 43.4141 17.8515C43.302 17.7863 43.1731 17.6858 43.0553 17.5446L47.6647 13.7034C46.9307 12.8227 45.9755 12.3435 45.0556 12.1136L43.6004 17.9344ZM43.1754 17.6801C42.9345 17.4242 42.9016 17.2029 42.9076 17.2377L48.8204 16.2183C48.6664 15.3251 48.2975 14.3678 47.5446 13.5679L43.1754 17.6801ZM42.9262 17.3358C42.9669 17.5324 43.008 17.8893 43.008 18.456H49.008C49.008 17.6467 48.9531 16.8516 48.8018 16.1202L42.9262 17.3358ZM43.008 18.456V22.824H49.008V18.456H43.008ZM46.008 19.824H28.92V25.824H46.008V19.824ZM28.92 19.824C28.3446 19.824 28.0681 19.7691 27.9922 19.7474L26.3438 25.5166C27.1639 25.7509 28.0554 25.824 28.92 25.824V19.824ZM27.8956 19.7216C27.8731 19.716 28.0749 19.7644 28.2966 19.9999L23.9274 24.1121C24.6611 24.8916 25.5669 25.324 26.4404 25.5424L27.8956 19.7216ZM28.3615 20.0711C28.5569 20.2925 28.5675 20.4494 28.5458 20.3442L22.6702 21.5598C22.8405 22.3826 23.1871 23.2755 23.8625 24.0409L28.3615 20.0711ZM28.5644 20.4423C28.5238 20.2071 28.488 19.8081 28.488 19.2H22.488C22.488 19.9999 22.5322 20.7689 22.6516 21.4617L28.5644 20.4423ZM28.488 19.2V18.456H22.488V19.2H28.488ZM28.488 18.456C28.488 17.8684 28.5233 17.4759 28.5644 17.2377L22.6516 16.2183C22.5327 16.9081 22.488 17.6676 22.488 18.456H28.488ZM28.5458 17.3358C28.5675 17.2306 28.5569 17.3875 28.3615 17.6089L23.8625 13.6391C23.1871 14.4045 22.8405 15.2974 22.6702 16.1202L28.5458 17.3358ZM28.3542 17.6171C28.2533 17.7306 28.1448 17.8125 28.05 17.8664C27.9589 17.9181 27.8993 17.9335 27.8956 17.9344L26.4404 12.1136C25.525 12.3424 24.6009 12.8084 23.8698 13.6309L28.3542 17.6171ZM27.8956 17.9344C28.012 17.9053 28.3251 17.856 28.92 17.856V11.856C28.0749 11.856 27.22 11.9187 26.4404 12.1136L27.8956 17.9344ZM28.92 17.856H33.336V11.856H28.92V17.856ZM36.336 14.856V13.416H30.336V14.856H36.336ZM33.336 10.416H26.4V16.416H33.336V10.416ZM26.4 10.416C26.3117 10.416 26.3922 10.4026 26.5688 10.4674C26.7688 10.5407 27.0452 10.6991 27.2819 10.9883L22.6381 14.7877C23.7264 16.1178 25.2696 16.416 26.4 16.416V10.416ZM27.3225 11.0391C27.3702 11.1 27.428 11.1945 27.471 11.3187C27.514 11.443 27.528 11.5562 27.528 11.64H21.528C21.528 12.7794 21.8996 13.8452 22.5975 14.7369L27.3225 11.0391ZM27.528 11.64C27.528 11.7062 27.5178 11.7881 27.4913 11.8743L21.7567 10.1097C21.6022 10.6119 21.528 11.1258 21.528 11.64H27.528ZM27.5086 11.8162C27.4577 11.9943 27.3518 12.2163 27.1659 12.4229L22.7061 8.4091C22.2322 8.93573 21.9183 9.54169 21.7394 10.1678L27.5086 11.8162ZM27.1558 12.434C26.9843 12.6227 26.7949 12.7356 26.6502 12.7934L24.4218 7.22257C23.7971 7.47245 23.2077 7.85729 22.7162 8.39798L27.1558 12.434ZM26.8047 12.7265C26.5557 12.8427 26.3884 12.84 26.4 12.84V6.84C25.7396 6.84 24.9963 6.94926 24.2673 7.28945L26.8047 12.7265ZM26.4 12.84H45.12V6.84H26.4V12.84ZM41.736 3.528C42.2199 3.528 42.5076 3.59589 42.6594 3.65227L44.7486 -1.97228C43.7804 -2.3319 42.7561 -2.472 41.736 -2.472V3.528ZM42.6594 3.65227C42.8747 3.73221 42.9537 3.80438 42.9747 3.82532L47.2173 -0.417321C46.5023 -1.13238 45.6533 -1.63621 44.7486 -1.97228L42.6594 3.65227ZM42.9747 3.82532C43.0235 3.87411 43.0562 3.92288 43.0847 4.00323L48.7393 1.99677C48.4158 1.08511 47.9045 0.269894 47.2173 -0.417321L42.9747 3.82532ZM43.1143 4.08298C43.1619 4.2059 43.2 4.3715 43.2 4.608H49.2C49.2 3.6925 49.0461 2.7861 48.7097 1.91701L43.1143 4.08298ZM43.2 4.608C43.2 4.8445 43.1619 5.0101 43.1143 5.13301L48.7097 7.29898C49.0461 6.4299 49.2 5.5235 49.2 4.608H43.2ZM43.0847 5.21277C43.0562 5.29312 43.0235 5.34189 42.9747 5.39068L47.2173 9.63332C47.9045 8.9461 48.4158 8.13088 48.7393 7.21923L43.0847 5.21277ZM42.9747 5.39068C42.9537 5.41162 42.8747 5.48379 42.6594 5.56372L44.7486 11.1883C45.6533 10.8522 46.5023 10.3484 47.2173 9.63332L42.9747 5.39068ZM42.6594 5.56372C42.5076 5.6201 42.2199 5.688 41.736 5.688V11.688C42.7561 11.688 43.7804 11.5479 44.7486 11.1883L42.6594 5.56372ZM41.736 5.688H29.784V11.688H41.736V5.688ZM29.784 5.688C29.3001 5.688 29.0124 5.6201 28.8606 5.56372L26.7714 11.1883C27.7396 11.5479 28.7639 11.688 29.784 11.688V5.688ZM28.8606 5.56372C28.6453 5.48379 28.5663 5.41162 28.5453 5.39068L24.3027 9.63332C25.0177 10.3484 25.8667 10.8522 26.7714 11.1883L28.8606 5.56372ZM28.5453 5.39068C28.4792 5.32454 28.4264 5.2484 28.3817 5.13302L22.7863 7.29898C23.1256 8.1756 23.6328 8.96346 24.3027 9.63332L28.5453 5.39068ZM28.4113 5.21277C28.3599 5.06792 28.32 4.87441 28.32 4.608H22.32C22.32 5.49359 22.4561 6.37208 22.7567 7.21923L28.4113 5.21277ZM28.32 4.608C28.32 4.34159 28.3599 4.14808 28.4113 4.00323L22.7567 1.99677C22.4561 2.84392 22.32 3.72241 22.32 4.608H28.32ZM28.3817 4.08298C28.4264 3.9676 28.4792 3.89146 28.5453 3.82532L24.3027 -0.417321C23.6328 0.25254 23.1256 1.04039 22.7863 1.91701L28.3817 4.08298ZM28.5453 3.82532C28.5663 3.80438 28.6453 3.73221 28.8606 3.65227L26.7714 -1.97228C25.8667 -1.63621 25.0177 -1.13238 24.3027 -0.41732L28.5453 3.82532ZM28.8606 3.65227C29.0124 3.59589 29.3001 3.528 29.784 3.528V-2.472C28.7639 -2.472 27.7396 -2.3319 26.7714 -1.97228L28.8606 3.65227ZM29.784 3.528H41.736V-2.472H29.784V3.528ZM40.296 8.424C40.8793 8.424 42.2987 8.34996 43.3419 7.19089L38.8821 3.1771C39.282 2.73275 39.7216 2.5541 39.9535 2.4859C40.1794 2.41946 40.3171 2.424 40.296 2.424V8.424ZM43.3419 7.19089C44.0033 6.45594 44.328 5.54008 44.328 4.608H38.328C38.328 4.39353 38.3635 4.13726 38.465 3.86663C38.5672 3.59408 38.7158 3.36187 38.8821 3.1771L43.3419 7.19089ZM44.328 4.608C44.328 3.67592 44.0033 2.76006 43.3419 2.0251L38.8821 6.0389C38.7158 5.85412 38.5672 5.62192 38.465 5.34937C38.3635 5.07874 38.328 4.82247 38.328 4.608H44.328ZM43.3419 2.0251C42.2987 0.86604 40.8793 0.792 40.296 0.792V6.792C40.3171 6.792 40.1794 6.79654 39.9535 6.7301C39.7216 6.6619 39.282 6.48325 38.8821 6.0389L43.3419 2.0251ZM40.296 0.792H31.224V6.792H40.296V0.792ZM31.224 0.792C30.6407 0.792 29.2213 0.86604 28.1781 2.0251L32.6379 6.0389C32.238 6.48325 31.7984 6.6619 31.5665 6.7301C31.3406 6.79654 31.2029 6.792 31.224 6.792V0.792ZM28.1781 2.0251C27.5167 2.76006 27.192 3.67592 27.192 4.608H33.192C33.192 4.82247 33.1565 5.07874 33.055 5.34937C32.9528 5.62192 32.8042 5.85412 32.6379 6.0389L28.1781 2.0251ZM27.192 4.608C27.192 5.54008 27.5167 6.45594 28.1781 7.19089L32.6379 3.1771C32.8042 3.36187 32.9528 3.59408 33.055 3.86663C33.1565 4.13726 33.192 4.39353 33.192 4.608H27.192ZM28.1781 7.19089C29.2213 8.34996 30.6407 8.424 31.224 8.424V2.424C31.2029 2.424 31.3406 2.41946 31.5665 2.4859C31.7984 2.5541 32.238 2.73275 32.6379 3.1771L28.1781 7.19089ZM31.224 8.424H40.296V2.424H31.224V8.424ZM27.288 18.912C27.288 19.295 27.3173 20.1199 27.7793 20.9284L32.9887 17.9516C33.1768 18.2807 33.2405 18.5605 33.2636 18.6873C33.2886 18.8246 33.288 18.9087 33.288 18.912H27.288ZM28.0793 21.3606C29.0776 22.5584 30.4799 22.584 30.864 22.584V16.584C30.9201 16.584 31.1337 16.5868 31.426 16.6745C31.7242 16.764 32.2442 16.9861 32.6887 17.5194L28.0793 21.3606ZM30.864 22.584H41.232V16.584H30.864V22.584ZM44.232 19.584V18.672H38.232V19.584H44.232ZM44.232 18.672C44.232 18.2425 44.1849 17.1934 43.4167 16.2714L38.8073 20.1126C38.4811 19.7211 38.3476 19.3357 38.2916 19.1116C38.2352 18.8861 38.232 18.7242 38.232 18.672H44.232ZM43.5532 16.4483C42.5975 15.1104 41.1355 15.024 40.632 15.024V21.024C40.5434 21.024 40.2818 21.0169 39.941 20.8976C39.5739 20.7691 39.0665 20.4896 38.6708 19.9357L43.5532 16.4483ZM40.632 15.024H30.864V21.024H40.632V15.024ZM30.864 15.024C30.3605 15.024 28.8985 15.1104 27.9428 16.4483L32.8252 19.9357C32.4295 20.4896 31.9221 20.7691 31.5551 20.8976C31.2142 21.0169 30.9526 21.024 30.864 21.024V15.024ZM27.8879 16.5279C27.3074 17.3986 27.288 18.3232 27.288 18.672H33.288C33.288 18.6901 33.2878 18.8021 33.2537 18.9723C33.2223 19.1293 33.1357 19.4728 32.8801 19.8561L27.8879 16.5279ZM27.288 18.672V18.912H33.288V18.672H27.288ZM51.696 22.56L50.5271 25.3229L50.5455 25.3307L50.5641 25.3383L51.696 22.56ZM50.64 21.84L52.8179 19.7768L52.8179 19.7768L50.64 21.84ZM49.968 20.808L47.1453 21.8242L47.1704 21.8937L47.1988 21.9618L49.968 20.808ZM50.616 17.208L48.6535 14.9389L48.6381 14.9522L48.6229 14.9658L50.616 17.208ZM64.752 16.44V19.44H67.752V16.44H64.752ZM64.68 15.528L62.28 17.328L62.4079 17.4986L62.5587 17.6493L64.68 15.528ZM50.328 15L47.896 16.7565L47.896 16.7565L50.328 15ZM50.328 13.08L52.76 14.8365L52.7824 14.8055L52.8039 14.7741L50.328 13.08ZM68.952 13.176L67.0066 15.4597L67.027 15.4771L67.0478 15.4942L68.952 13.176ZM69.624 18.984V21.984H72.624V18.984H69.624ZM54.936 19.128L52.8147 17.0067L52.8147 17.0067L54.936 19.128ZM54.936 19.848L52.6313 21.7686L52.8059 21.9781L53.0155 22.1527L54.936 19.848ZM69.912 20.424L67.4361 22.1181L67.4657 22.1614L67.4968 22.2036L69.912 20.424ZM69.936 22.368L67.504 20.6115L67.4816 20.6425L67.4601 20.674L69.936 22.368ZM50.664 11.28L49.8398 14.1646L49.8879 14.1783L49.9364 14.1904L50.664 11.28ZM49.608 10.68L47.3033 12.6006L47.3613 12.6701L47.4234 12.7361L49.608 10.68ZM49.104 9.552L46.1476 10.0617L46.1561 10.1109L46.1662 10.1598L49.104 9.552ZM49.104 2.784L46.1623 2.19565L46.1544 2.23487L46.1476 2.27428L49.104 2.784ZM49.608 1.656L47.3658 -0.337106L47.3585 -0.328865L49.608 1.656ZM50.664 1.056L51.3916 3.96643L51.4401 3.9543L51.4882 3.94057L50.664 1.056ZM60.648 1.056L59.8238 3.94057L59.8719 3.9543L59.9204 3.96643L60.648 1.056ZM61.68 1.656L59.3753 3.57655L59.4333 3.64613L59.4954 3.71209L61.68 1.656ZM62.184 2.784L59.2248 3.2772L59.2344 3.33471L59.2462 3.39182L62.184 2.784ZM62.328 11.448V14.448H65.328V11.448H62.328ZM65.4 0.887999L63.4794 -1.41667L63.4602 -1.40061L63.4412 -1.38423L65.4 0.887999ZM68.736 0.912L66.7712 3.17907L66.7931 3.19808L66.8154 3.21666L68.736 0.912ZM69.456 4.152H66.456V7.152H69.456V4.152ZM71.112 4.344L69.7002 6.99106L69.7708 7.02871L69.8433 7.06255L71.112 4.344ZM71.688 4.824L69.2214 6.53164L69.2538 6.57845L69.288 6.624L71.688 4.824ZM72 5.472L74.8987 4.69902L74.8987 4.699L72 5.472ZM72 6.936L74.8987 7.709L74.9047 7.68634L74.9104 7.6636L72 6.936ZM71.688 7.584L74.088 9.38401L74.088 9.38399L71.688 7.584ZM71.088 8.064L72.3567 10.7825L72.3934 10.7654L72.4296 10.7473L71.088 8.064ZM69.456 8.232V5.232H66.456V8.232H69.456ZM69.456 11.856V14.856H72.456V11.856H69.456ZM64.704 11.856H61.704V14.856H64.704V11.856ZM53.616 7.872L51.2734 9.74609L51.3772 9.87583L51.4947 9.99332L53.616 7.872ZM57.792 7.992V10.992H60.792V7.992H57.792ZM57.672 4.464L55.3673 6.38454L55.4545 6.48909L55.5507 6.58533L57.672 4.464ZM53.616 4.464L51.3113 2.54346L51.2921 2.56649L51.2734 2.58991L53.616 4.464ZM53.16 19.824C52.9405 19.824 52.8459 19.7891 52.8279 19.7817L50.5641 25.3383C51.4101 25.6829 52.2915 25.824 53.16 25.824V19.824ZM52.8649 19.7971C52.8287 19.7818 52.8126 19.7711 52.81 19.7693C52.8079 19.7679 52.812 19.7706 52.8179 19.7768L48.4621 23.9032C49.0564 24.5305 49.7605 24.9986 50.5271 25.3229L52.8649 19.7971ZM52.8179 19.7768C52.7789 19.7356 52.7561 19.6993 52.7372 19.6542L47.1988 21.9618C47.4999 22.6847 47.9251 23.3364 48.4621 23.9032L52.8179 19.7768ZM52.7907 19.7918C52.7659 19.7231 52.752 19.6513 52.752 19.56H46.752C46.752 20.3327 46.8821 21.0929 47.1453 21.8242L52.7907 19.7918ZM52.752 19.56V19.272H46.752V19.56H52.752ZM52.752 19.272C52.752 19.1754 52.7673 19.1901 52.7353 19.2664C52.7201 19.3027 52.6989 19.3414 52.6726 19.3779C52.6465 19.4141 52.6228 19.438 52.6091 19.4502L48.6229 14.9658C47.3248 16.1196 46.752 17.6667 46.752 19.272H52.752ZM52.5785 19.4771C52.4384 19.5983 52.4835 19.44 53.16 19.44V13.44C51.6285 13.44 49.9776 13.7937 48.6535 14.9389L52.5785 19.4771ZM53.16 19.44H64.752V13.44H53.16V19.44ZM67.752 16.44V15.816H61.752V16.44H67.752ZM67.752 15.816C67.752 15.5992 67.7362 15.2753 67.6444 14.9084C67.5572 14.5596 67.3469 13.9523 66.8013 13.4067L62.5587 17.6493C62.0611 17.1517 61.8868 16.6164 61.8236 16.3636C61.7558 16.0927 61.752 15.8888 61.752 15.816H67.752ZM67.08 13.728C66.56 13.0347 65.8918 12.7251 65.4483 12.5887C65.0103 12.4539 64.6203 12.432 64.368 12.432V18.432C64.2757 18.432 64.0177 18.4261 63.6837 18.3233C63.3442 18.2189 62.752 17.9573 62.28 17.328L67.08 13.728ZM64.368 12.432H51.336V18.432H64.368V12.432ZM51.336 12.432C51.4049 12.432 51.6264 12.4417 51.9178 12.5666C52.2343 12.7022 52.5361 12.9335 52.76 13.2435L47.896 16.7565C48.8343 18.0557 50.2331 18.432 51.336 18.432V12.432ZM52.76 13.2435C52.8367 13.3497 52.9061 13.4813 52.9537 13.6313C53.0009 13.7802 53.016 13.9137 53.016 14.016H47.016C47.016 14.9905 47.3048 15.938 47.896 16.7565L52.76 13.2435ZM53.016 14.016C53.016 14.1634 52.9922 14.3221 52.9401 14.4787C52.8884 14.6336 52.82 14.7535 52.76 14.8365L47.896 11.3235C47.3412 12.0916 47.016 13.012 47.016 14.016H53.016ZM52.8039 14.7741C52.5973 15.076 52.3044 15.3212 51.9725 15.4713C51.6653 15.6103 51.4238 15.624 51.336 15.624V9.624C50.1711 9.624 48.7649 10.0518 47.8521 11.3859L52.8039 14.7741ZM51.336 15.624H66.696V9.624H51.336V15.624ZM66.696 15.624C66.8798 15.624 67.026 15.632 67.1389 15.6434C67.2526 15.6548 67.3204 15.6686 67.351 15.676C67.3821 15.6837 67.3595 15.6811 67.3004 15.6535C67.2399 15.6253 67.1321 15.5667 67.0066 15.4597L70.8974 10.8923C69.6134 9.79847 67.9275 9.624 66.696 9.624V15.624ZM67.0478 15.4942C66.7631 15.2603 66.6496 15.009 66.617 14.9134C66.5916 14.8392 66.624 14.8908 66.624 15.144H72.624C72.624 13.8582 72.3361 12.0734 70.8562 10.8578L67.0478 15.4942ZM66.624 15.144V18.984H72.624V15.144H66.624ZM69.624 15.984H55.344V21.984H69.624V15.984ZM55.344 15.984C54.6184 15.984 53.6262 16.1952 52.8147 17.0067L57.0573 21.2493C56.4378 21.8688 55.7176 21.984 55.344 21.984V15.984ZM52.8147 17.0067C52.0963 17.725 51.816 18.6303 51.816 19.44H57.816C57.816 19.6901 57.7763 20.0042 57.646 20.3429C57.513 20.6889 57.3094 20.9972 57.0573 21.2493L52.8147 17.0067ZM51.816 19.44V19.512H57.816V19.44H51.816ZM51.816 19.512C51.816 20.3232 52.0903 21.1193 52.6313 21.7686L57.2407 17.9274C57.6217 18.3847 57.816 18.9568 57.816 19.512H51.816ZM53.0155 22.1527C53.8339 22.8347 54.749 22.968 55.344 22.968V16.968C55.587 16.968 56.2301 17.0213 56.8566 17.5433L53.0155 22.1527ZM55.344 22.968H68.88V16.968H55.344V22.968ZM68.88 22.968C68.8135 22.968 68.5854 22.9586 68.2855 22.8261C67.9582 22.6814 67.6542 22.4369 67.4361 22.1181L72.3879 18.7299C71.4555 17.3672 70.0165 16.968 68.88 16.968V22.968ZM67.4968 22.2036C67.435 22.1196 67.3676 22.0016 67.318 21.8527C67.268 21.703 67.248 21.5577 67.248 21.432H73.248C73.248 20.4059 72.9204 19.4495 72.3272 18.6444L67.4968 22.2036ZM67.248 21.432C67.248 21.2846 67.2718 21.1259 67.324 20.9693C67.3756 20.8144 67.444 20.6945 67.504 20.6115L72.368 24.1245C72.9228 23.3564 73.248 22.436 73.248 21.432H67.248ZM67.4601 20.674C67.6897 20.3384 68.0047 20.0949 68.3267 19.9558C68.6191 19.8296 68.8339 19.824 68.88 19.824V25.824C69.9892 25.824 71.461 25.4518 72.4119 24.062L67.4601 20.674ZM68.88 19.824H53.16V25.824H68.88V19.824ZM52.416 8.448C51.8211 8.448 51.508 8.39867 51.3916 8.36957L49.9364 14.1904C50.716 14.3853 51.5709 14.448 52.416 14.448V8.448ZM51.4882 8.39543C51.4325 8.37952 51.5967 8.41571 51.7926 8.6239L47.4234 12.7361C48.1313 13.4883 48.9995 13.9245 49.8398 14.1646L51.4882 8.39543ZM51.9127 8.75945C52.0609 8.93737 52.0637 9.0499 52.0418 8.94418L46.1662 10.1598C46.3363 10.9821 46.6751 11.8466 47.3033 12.6006L51.9127 8.75945ZM52.0604 9.04228C52.0198 8.80715 51.984 8.40809 51.984 7.8H45.984C45.984 8.5999 46.0282 9.36885 46.1476 10.0617L52.0604 9.04228ZM51.984 7.8V4.512H45.984V7.8H51.984ZM51.984 4.512C51.984 3.92444 52.0193 3.53187 52.0604 3.29372L46.1476 2.27428C46.0287 2.96412 45.984 3.72356 45.984 4.512H51.984ZM52.0457 3.37235C52.073 3.23625 52.0687 3.40153 51.8575 3.64086L47.3585 -0.328865C46.6673 0.454467 46.327 1.37175 46.1623 2.19565L52.0457 3.37235ZM51.8502 3.64909C51.7493 3.7626 51.6408 3.84451 51.546 3.89837C51.4549 3.95013 51.3953 3.96551 51.3916 3.96643L49.9364 -1.85443C49.021 -1.62558 48.0969 -1.15957 47.3658 -0.337093L51.8502 3.64909ZM51.4882 3.94057C51.5641 3.91886 51.8406 3.864 52.416 3.864V-2.136C51.5514 -2.136 50.6599 -2.06287 49.8398 -1.82857L51.4882 3.94057ZM52.416 3.864H58.896V-2.136H52.416V3.864ZM58.896 3.864C59.4714 3.864 59.7479 3.91886 59.8238 3.94057L61.4722 -1.82857C60.6521 -2.06287 59.7606 -2.136 58.896 -2.136V3.864ZM59.9204 3.96643C59.9135 3.96471 59.8414 3.94591 59.7341 3.88352C59.622 3.81834 59.4931 3.71784 59.3753 3.57655L63.9847 -0.264553C63.2507 -1.14527 62.2955 -1.62446 61.3756 -1.85443L59.9204 3.96643ZM59.4954 3.71209C59.2372 3.4378 59.2133 3.20795 59.2248 3.2772L65.1432 2.2908C64.9947 1.40005 64.6348 0.418195 63.8646 -0.400092L59.4954 3.71209ZM59.2462 3.39182C59.2869 3.58842 59.328 3.94534 59.328 4.512H65.328C65.328 3.70266 65.2731 2.90758 65.1218 2.17618L59.2462 3.39182ZM59.328 4.512V11.448H65.328V4.512H59.328ZM62.328 8.448H52.416V14.448H62.328V8.448ZM67.704 2.664C67.704 2.56215 67.7196 2.60304 67.6712 2.72662C67.616 2.86735 67.5109 3.02915 67.3588 3.16023L63.4412 -1.38423C62.1405 -0.262941 61.704 1.26936 61.704 2.664H67.704ZM67.3206 3.19266C67.3036 3.20683 67.2577 3.23869 67.189 3.26323C67.1213 3.28741 67.0776 3.288 67.08 3.288V-2.712C65.7568 -2.712 64.5127 -2.27772 63.4794 -1.41667L67.3206 3.19266ZM67.08 3.288C67.0518 3.288 66.9855 3.28196 66.9042 3.25131C66.8236 3.22096 66.7786 3.18543 66.7712 3.17907L70.7008 -1.35507C69.6861 -2.23448 68.4399 -2.712 67.08 -2.712V3.288ZM66.8154 3.21666C66.676 3.10049 66.5648 2.94526 66.5012 2.79034C66.4441 2.6514 66.456 2.58874 66.456 2.664H72.456C72.456 1.229 71.9753 -0.293677 70.6566 -1.39266L66.8154 3.21666ZM66.456 2.664V4.152H72.456V2.664H66.456ZM69.456 7.152H70.2V1.152H69.456V7.152ZM70.2 7.152C70.2417 7.152 70.0208 7.16204 69.7002 6.99106L72.5238 1.69694C71.7232 1.26995 70.8943 1.152 70.2 1.152V7.152ZM69.8433 7.06255C69.6251 6.96068 69.3946 6.7817 69.2214 6.53164L74.1546 3.11636C73.6935 2.4503 73.0789 1.95132 72.3807 1.62545L69.8433 7.06255ZM69.288 6.624C69.1935 6.49798 69.1327 6.36288 69.1013 6.245L74.8987 4.699C74.7393 4.10112 74.4705 3.53402 74.088 3.024L69.288 6.624ZM69.1013 6.24498C69.1011 6.2444 69.0997 6.23869 69.0983 6.22849C69.0969 6.21821 69.096 6.20577 69.096 6.192H75.096C75.096 5.68203 75.0276 5.18233 74.8987 4.69902L69.1013 6.24498ZM69.096 6.192C69.096 6.1784 69.0969 6.17211 69.0967 6.17409C69.0964 6.17621 69.0948 6.18742 69.0896 6.2084L74.9104 7.6636C75.0281 7.19299 75.096 6.70024 75.096 6.192H69.096ZM69.1013 6.163C69.1327 6.04512 69.1935 5.91002 69.288 5.78401L74.088 9.38399C74.4705 8.87398 74.7393 8.30688 74.8987 7.709L69.1013 6.163ZM69.288 5.78399C69.4723 5.53824 69.6653 5.42123 69.7464 5.38072L72.4296 10.7473C73.0227 10.4508 73.6157 10.0138 74.088 9.38401L69.288 5.78399ZM69.8193 5.34545C70.0847 5.22162 70.2511 5.232 70.2 5.232V11.232C70.8529 11.232 71.6113 11.1304 72.3567 10.7825L69.8193 5.34545ZM70.2 5.232H69.456V11.232H70.2V5.232ZM66.456 8.232V11.856H72.456V8.232H66.456ZM69.456 8.856H64.704V14.856H69.456V8.856ZM67.704 11.856V2.664H61.704V11.856H67.704ZM50.52 7.368C50.52 7.6014 50.533 7.91155 50.597 8.24734C50.6506 8.5287 50.7961 9.14945 51.2734 9.74609L55.9586 5.99791C56.1809 6.27581 56.3043 6.5383 56.3717 6.71251C56.4406 6.89044 56.4742 7.03628 56.491 7.12466C56.523 7.29244 56.52 7.3906 56.52 7.368H50.52ZM51.4947 9.99332C52.0563 10.5549 52.6876 10.7772 53.0684 10.8724C53.4673 10.9722 53.8312 10.992 54.096 10.992V4.992C54.1208 4.992 54.2847 4.99184 54.5236 5.05157C54.7444 5.10676 55.2557 5.26907 55.7373 5.75068L51.4947 9.99332ZM54.096 10.992H57.792V4.992H54.096V10.992ZM60.792 7.992V4.92H54.792V7.992H60.792ZM60.792 4.92C60.792 4.58031 60.7815 3.33084 59.7933 2.34267L55.5507 6.58533C55.0967 6.13131 54.9258 5.64848 54.8608 5.40148C54.794 5.14759 54.792 4.96621 54.792 4.92H60.792ZM59.9767 2.54346C58.9784 1.34558 57.5761 1.32 57.192 1.32V7.32C57.1359 7.32 56.9223 7.31719 56.63 7.22948C56.3318 7.14003 55.8118 6.91789 55.3673 6.38454L59.9767 2.54346ZM57.192 1.32H54.096V7.32H57.192V1.32ZM54.096 1.32C53.7119 1.32 52.3096 1.34557 51.3113 2.54346L55.9207 6.38454C55.4762 6.91789 54.9562 7.14003 54.658 7.22948C54.3657 7.31719 54.1521 7.32 54.096 7.32V1.32ZM51.2734 2.58991C50.8358 3.13694 50.6755 3.70095 50.6084 4.01997C50.5354 4.36665 50.52 4.68296 50.52 4.92H56.52C56.52 4.93303 56.5206 5.06135 56.4796 5.25603C56.4445 5.42305 56.3322 5.87106 55.9586 6.33809L51.2734 2.58991ZM50.52 4.92V7.368H56.52V4.92H50.52Z" fill="#50834F" mask="url(#path-1-outside-1_287_6032)"/>
</svg>
