<?xml version="1.0" encoding="utf-8"?>
<!-- Generator: Adobe Illustrator 27.0.0, SVG Export Plug-In . SVG Version: 6.00 Build 0)  -->
<svg version="1.1" id="Layer_1" xmlns="http://www.w3.org/2000/svg" xmlns:xlink="http://www.w3.org/1999/xlink" x="0px" y="0px"
	 viewBox="0 0 767 229.7" style="enable-background:new 0 0 767 229.7;" xml:space="preserve">
<style type="text/css">
	.st0{fill:url(#SVGID_1_);}
	.st1{fill:#3F9E92;}
	.st2{fill:#5EA29B;}
	.st3{fill:#A3BF9C;}
	.st4{fill:#C7DBC2;}
	.st5{fill:#7BA77A;}
	.st6{fill:#A8D173;}
	.st7{fill:#7ABD90;}
	.st8{fill:#9E79FF;}
	.st9{fill:#ED65C9;}
	.st10{fill:#2BE188;}
	.st11{fill:#FFFFFF;filter:url(#Adobe_OpacityMaskFilter);}
	.st12{mask:url(#path-11-outside-1_867_1488_00000176043576733531304660000006026636828111019953_);fill:#FFFFFF;}
	.st13{fill:#8C9196;}
</style>
<linearGradient id="SVGID_1_" gradientUnits="userSpaceOnUse" x1="385.6781" y1="6.0309" x2="382.3286" y2="235.8515" gradientTransform="matrix(1 0 0 -1 0 236)">
	<stop  offset="0" style="stop-color:#FFFFFF"/>
	<stop  offset="1" style="stop-color:#BDE8FF"/>
</linearGradient>
<path class="st0" d="M0,0h768v229.7H0V0z"/>
<path class="st1" d="M639.6,213.6c1.2,0.7,2.2,1.6,3.1,2.6c2.3,2.3,4.4,4.7,6,7.4c0.9,1.5,1.8,3.1,2.7,4.6c0.5,0.9,0.4,1.9,0.4,2.9
	c0,0.4-0.4,0.7-0.8,0.9c-1.3,0.8-2.8,1.1-4.3,1c-1.2-0.1-2.4-0.3-3.6-0.4c-1.2-0.2-2.4-0.4-3.6-0.5c-2.8-0.4-5.6-0.7-8.4-1.1
	c-0.4,0-0.7-0.1-1.1-0.3c-0.3-0.1-0.6-0.2-0.9,0c-2,0.7-4,0.5-6,0.6c-2.2,0.1-4.4,0-6.6,0c-2.6-0.1-5.2-0.1-7.6-0.8
	c-1-0.3-2.1-0.4-3.2-0.5c-1.9-0.3-3.7-0.9-5.5-1.4c-0.8-0.2-1.6-0.4-2.4-0.5c-4.5-0.6-8.9-0.9-13.5-1.2c-1.6-0.1-3.2-0.4-4.7-0.8
	c-0.2,0-0.4-0.1-0.5-0.2c-2.9-1-3.2-2.2-1.7-4.7c0.4-0.6,0.9-1.1,1.4-1.6c2.4-2.3,4.9-4.6,7.3-6.9c0.9-0.8,1.6-1.7,2.2-2.6
	c2.4-3.5,5.6-6.5,9.1-9.3c0.7-0.3,1.2,0,1.5,0.4c3.3,3.6,8.1,4.5,13.2,4.2c5-0.4,9.1,0.9,12.9,3.2
	C629.5,210.9,634.2,212.8,639.6,213.6"/>
<path class="st2" d="M639.6,213.6c-0.5,0.2-1,0.3-1.5,0.1c-0.8-0.2-1.6-0.4-2.4-0.4c-1.4-0.1-2.5-0.5-3.8-1c-1.5-0.6-3-1.1-4.2-2
	c-1-0.1-1.7-0.7-2.3-1.3c-0.5-0.4-1.1-0.7-1.8-0.8c-0.8-0.1-1-0.8-1.6-1c-0.6-0.2-1.4-0.1-2-0.5c-1.2-0.7-2.6-1.1-4.1-1
	c-1,0.1-1.9-0.3-2.9,0.2c-0.2,0.1-0.5,0-0.7-0.1c-0.5-0.1-1-0.2-1.5,0c-1,0.2-1.9,0.1-2.8-0.2c-0.3-0.1-0.7-0.3-1.1-0.2
	c-1.9,0.2-3.3-0.5-4.8-1.3c-1.3-0.7-2.4-1.6-3.3-2.6c-0.3-0.3-0.6-0.7-1.2-0.7c2.4-2.4,4.9-4.7,7.4-7c0.7-0.7,1.5-1.3,2.2-2
	c0.7-0.6,1.4-1,2.3-1.3c3.1-1.1,6.1-1.2,9.2-0.6c0.6,0.1,1.2,0.3,1.8,0.6c3.4,1.6,6.1,3.7,7.4,7c0.5,1.3,1,2.6,1.6,3.8
	c0.7,1.6,1.4,3.3,2.2,4.9c1,2,2.6,3.7,4.7,5C637.5,211.8,638.7,212.5,639.6,213.6"/>
<path class="st2" d="M606.4,209.5c-0.2,0.5-0.6,1.3-1,2c-1.4,2.3-2.8,4.6-4.4,6.8c-0.9,1.2-2.1,2.2-3.1,3.3c-0.3,0.3-0.6,0.4-1,0.2
	c-0.5-0.3-1.1-0.5-1.7-0.8c-1.2-0.7-1.1-0.7-0.3-1.7c2.8-3.4,5.8-6.8,7.7-10.7c0.3-0.6,0.6-0.8,1.3-0.8c0.5,0,1,0.1,1.5,0.1
	C606.4,208.2,606.6,208.5,606.4,209.5"/>
<path class="st2" d="M621,210.9c0.6,0.1,0.9,0.2,1,0.7c0.3,3,0.7,6,1.1,9c0.1,0.6,0.1,1.1-0.5,1.3c-0.7,0.3-1.5,0.6-2.2,0.3
	c-0.4-0.1-0.6-0.4-0.6-0.7c-0.5-2.4-1.1-4.7-1.3-7.1c-0.1-0.8-0.2-1.6-0.3-2.4c-0.1-0.6,0.2-0.8,0.9-0.9
	C619.7,211,620.4,210.7,621,210.9"/>
<path class="st3" d="M128.5,219.4c-1.1,1.3-2.1,2.6-3.2,3.9c-0.4,0.5-0.8,1-1.1,1.5c-1.4,1.8-3.2,3.3-5.3,4.5
	c-0.9,0.5-1.5,1.2-2.3,1.8c-0.2,0.2-0.3,0.5-0.5,0.7c-0.4,0.7-0.2,1.4,0.5,1.8c0.8,0.5,1.8,0.7,2.7,0.8c1.8,0.3,3.7,0.3,5.5,0.1
	c3.9-0.4,7.8-0.8,11.7-1.3c1.6-0.2,3.2-0.6,4.7-1.1c2.3-0.7,4.7-1.2,7.1-1.4c1.7-0.2,3.3-0.1,5,0.1c1.6,0.2,3.3,0.3,5,0.2
	c0.5,0,1.1,0.1,1.7,0.1c2.9,0.2,5.8,0.5,8.6,0.8c2.2,0.2,4.3,0.1,6.5-0.3c2-0.3,4-0.5,5.9-1c0.4-0.1,0.7-0.1,1.1-0.1
	c2.1,0.1,4.2,0,6.3,0.3c0.5,0.1,1,0.1,1.5,0.1c1.2,0.1,2.3-0.2,3.3-0.9c0.7-0.4,1-1,1-1.7c0-0.7,0-1.4,0-2.1c0-0.9-0.2-1.8-0.2-2.7
	c0-2.7-1.1-5-2.2-7.4c-0.8-1.7-1.7-3.3-3.2-4.7c-0.7-0.6-1.3-1.2-2-1.7c-1.8-1.2-2.9-2.8-3.9-4.6c-0.2-0.3-0.4-0.7-0.6-1
	c-0.1-0.1-0.2-0.2-0.2-0.4h0c-0.1,0-0.1-0.1-0.2-0.1c-2.6,1.3-5.1,0.6-7.7,0.2c-2.5-0.4-4.6,0.6-6.5,2.1c-1.9,1.5-3.5,3.2-5,5
	c-1.7,2.2-3.9,3-6.6,2.6c-4-0.6-7.3,0.8-10.4,2.8c-4.6,3.1-9.6,4.2-15,3C130,219.3,129.3,219,128.5,219.4"/>
<path class="st4" d="M128.5,219.4c0.1,0,0.3,0,0.4,0c1.8,0.6,3.7,0.6,5.6,0.8c1.8,0.2,3.4-0.1,5.1-0.5c2.2-0.6,4.3-1.6,6.1-2.9
	c1.4-1,3-1.7,4.6-2.3c1.5-0.6,3-0.9,4.5-0.6c1.3,0.3,2.7,0.1,4,0c1.6-0.2,2.9-1.1,3.8-2.3c1.1-1.4,4-4.4,5.5-5.6
	c1.9-1.5,4-2.3,6.5-1.7c0.9,0.2,1.8,0.2,2.7,0.5c0.9,0.3,1.9,0.2,2.9-0.3c0.6-0.3,1.2-0.6,1.8-0.9c-0.7-2.4-1.4-4.9-2.2-7.3
	c-0.4-1.3-1.1-2.5-1.8-3.8c-0.9-1.7-2.6-2.4-4.4-3c-1.1-0.3-2.3-0.3-3.5-0.3c-0.5,0-0.9,0.1-1.3,0.3c-1.7,0.8-3.3,1.7-4.7,3
	c-2.4,2.3-4.4,4.9-6.6,7.3c-1.4,1.5-2.7,3-3.9,4.7c-0.6,0.8-1.4,1.5-2.2,2.2c-0.9,0.8-2,1.2-3.2,1.2c-1.4,0.1-2.8,0.2-4.3,0.2
	c-2.2,0.1-4.2,0.8-6,2.2c-1.3,1-2.5,2-3.6,3.1c-0.8,0.8-1.7,1.5-2.5,2.2C130.6,217.1,129.6,218.2,128.5,219.4"/>
<path class="st5" d="M206.5,202c0.5,0.6,0.9,1.2,1.3,1.8c1.4,2.2,2.6,4.4,3.4,6.8c0.3,0.8,0.7,1.6,1,2.5c0.2,0.6,0.3,0.8,1.1,2.4
	c0.2,0.4,0.4,0.8,0.7,1.2c1,1.3,2,2.6,2.9,4c0.6,1,1.3,1.9,1.9,2.9c0.7,1.1,0.6,2.1-0.3,2.9c-0.2,0.2-0.5,0.4-0.9,0.4
	c-1.3,0.2-2.6,0.3-3.8,0.2c-1.6-0.1-3.2,0-4.8,0.1c-0.9,0-1.9,0.1-2.8,0.1c-1,0-2,0.1-3,0.2c-2.1,0.4-4.2,0.7-6.2,1
	c-1.4,0.2-2.8,0.4-4.2,0.3c-2.3-0.1-4.5-0.5-6.8-1c-1.1-0.2-2.1-0.4-3.2-0.3c-2.2,0.1-4.4,0.1-6.6,0.1c-0.6,0-1.1,0-1.6-0.2
	c-1.2-0.4-1.6-1.3-1.1-2.4c0.1-0.2,0.2-0.3,0.3-0.5c0.6-1,1.1-2,1.7-3c0.2-0.3,0.4-0.7,0.6-1c0.5-0.7,0.8-1.5,1.2-2.3
	c0.5-1.1,1-2.2,1.6-3.3c0.5-1.1,1.3-2.2,2.1-3.2c0.4-0.5,0.9-0.9,1.4-1.3c1.2-1,3.2-0.7,4.1,0c0.3,0.2,0.5,0.4,0.7,0.6
	c0.3,0.3,0.7,0.3,1-0.1c0.6-0.7,1.2-1.5,1.6-2.3c0.2-0.3,0.4-0.7,0.6-1c0.8-1.5,1.7-2.9,2.8-4.2c1-1.3,2.3-2.4,3.6-3.4
	c1-0.8,2.3-1.1,3.6-1.2c0.7,0,1.5,0,2.2,0.2c0.7,0.2,1.4,0.4,1.9,0.9c0.3,0.3,0.6,0.5,0.9,0.8C205.3,200.9,206.2,201.6,206.5,202"/>
<path class="st6" d="M153.4,229.5c0,0,206.7-59,419-11.8l9.8,2.7l29.3,9.2L209,232L153.4,229.5z"/>
<path class="st7" d="M353.5,215.7c15.4-0.1,30.5-0.9,44.7-2.2c7.7-0.7,15.2-1.6,23.4-1.9c6.4-0.2,13,0.1,19.5,0.5
	c18.3,1.1,36.2,3.5,54.5,4.1c16.4,0.5,51.9-3.1,44.1-5.1c-75.1-19.1-159.8-22.7-243.5-7.6c-15.7,2.8-30.3,4.4-47.8,6.9
	c12.1-1.8,23.5-1,35.7,0.8C306.2,214.6,330.4,215.9,353.5,215.7z"/>
<path class="st8" d="M277.6,28.7c0-0.8,0.3-1.5,0.8-1.9c0.5-0.4,1.2-0.7,1.9-0.7c0.7,0,1.3,0.2,1.8,0.7c0.5,0.4,0.8,1,0.8,1.9v8.5
	h1.5v-8.5c0-0.8,0.3-1.5,0.8-1.9c0.5-0.4,1.2-0.7,1.9-0.7c0.3,0,0.7,0.1,1,0.2c0.3,0.1,0.6,0.3,0.8,0.5c0.3,0.2,0.5,0.5,0.6,0.8
	c0.2,0.3,0.2,0.7,0.2,1.1v25.6h-5.3V42h-1.5v12.2h-5.3V28.7z M264.2,48.4c1.9-0.2,3.4-0.9,4.4-1.9c1-1.1,1.6-2.6,1.9-4.5h-5.9
	c-0.5,0-0.9-0.1-1.2-0.2c-0.3-0.2-0.6-0.4-0.8-0.6c-0.2-0.2-0.4-0.5-0.4-0.8c-0.1-0.3-0.1-0.6-0.1-0.9s0-0.6,0.1-0.9
	c0.1-0.3,0.2-0.6,0.4-0.8c0.2-0.2,0.5-0.4,0.8-0.6c0.3-0.2,0.7-0.2,1.2-0.2h6V33c0-0.2-0.1-0.4-0.2-0.5c-0.1-0.1-0.3-0.2-0.5-0.2h-5
	c-0.5,0-0.9-0.1-1.2-0.2c-0.3-0.2-0.6-0.4-0.8-0.6c-0.2-0.2-0.3-0.5-0.4-0.8c-0.1-0.3-0.1-0.6-0.1-0.9c0-0.3,0-0.6,0.1-0.9
	c0.1-0.3,0.2-0.6,0.4-0.8c0.2-0.2,0.5-0.4,0.8-0.6c0.3-0.2,0.7-0.2,1.2-0.2h6.7c0.8,0,1.5,0.1,2.1,0.2c0.6,0.1,1,0.4,1.4,0.7
	c0.4,0.3,0.6,0.7,0.8,1.3c0.2,0.5,0.2,1.2,0.2,1.9v8.9c0,2.3-0.3,4.3-0.9,5.9c-0.6,1.6-1.4,2.9-2.4,4c-1,1-2.2,1.8-3.5,2.3
	s-2.7,0.8-4.1,0.8c-0.8,0-1.5-0.1-2.1-0.5c-0.6-0.4-0.9-0.9-1-1.8c0-0.7,0.1-1.3,0.5-1.8C262.8,48.8,263.4,48.5,264.2,48.4z
	 M301.1,26c1,0,1.8,0.3,2.3,0.8c0.5,0.5,0.8,1.2,0.8,2.2v0.4h3.9c0.5,0,0.8,0.1,1.1,0.2c0.3,0.1,0.6,0.3,0.8,0.6
	c0.2,0.2,0.3,0.5,0.4,0.8c0.1,0.3,0.1,0.6,0.1,0.9c0,0.3,0,0.6-0.1,0.9c-0.1,0.3-0.2,0.6-0.4,0.8c-0.2,0.2-0.4,0.4-0.8,0.6
	c-0.3,0.1-0.7,0.2-1.1,0.2h-4v1.8c0,1.4-0.1,2.7-0.3,3.9c1.1,0.3,2,0.8,2.9,1.4c0.9,0.6,1.6,1.4,2.2,2.4c0.6,1,1,2.2,1.3,3.6
	c0.3,1.4,0.4,3.1,0.2,5.2h-5.6c0.2-2,0.1-3.6-0.3-4.8c-0.4-1.2-1.1-2.1-2.1-2.7c-0.8,1.9-1.8,3.4-3,4.7c-1.2,1.2-2.6,2.1-4.2,2.8
	c-0.3,0.1-0.7,0.2-1,0.2c-0.4,0-0.7,0-1-0.1c-0.3-0.1-0.6-0.2-0.9-0.4c-0.3-0.2-0.5-0.5-0.7-0.8c-0.3-0.5-0.4-1.1-0.2-1.7
	c0.1-0.6,0.5-1.1,1.1-1.5c0.9-0.5,1.8-1.2,2.5-1.9c0.7-0.7,1.3-1.6,1.8-2.5c0.5-1,0.8-2.1,1.1-3.4c0.3-1.3,0.4-2.8,0.4-4.5v-1.6
	h-4.2c-0.5,0-0.9-0.1-1.2-0.2c-0.3-0.2-0.6-0.4-0.8-0.6c-0.2-0.2-0.4-0.5-0.5-0.8c-0.1-0.3-0.1-0.6-0.1-0.9c0-0.3,0-0.6,0.1-0.9
	c0.1-0.3,0.2-0.6,0.5-0.8c0.2-0.3,0.5-0.5,0.8-0.6c0.3-0.2,0.7-0.2,1.2-0.2h3.9V29c0-1,0.2-1.7,0.8-2.2
	C299.3,26.2,300.1,26,301.1,26z M313.2,54.3V29.1c0-1,0.3-1.7,0.9-2.2s1.3-0.8,2.1-0.8c0.8,0,1.5,0.2,2.1,0.8
	c0.6,0.5,0.9,1.2,0.9,2.2v25.2H313.2z M322.9,45.2V29.3c0-0.5,0.1-0.9,0.2-1.3c0.2-0.4,0.4-0.7,0.7-0.9c0.3-0.3,0.6-0.5,1-0.6
	c0.4-0.1,0.8-0.2,1.2-0.2c0.4,0,0.8,0.1,1.1,0.2c0.4,0.1,0.7,0.3,1,0.6c0.3,0.2,0.5,0.5,0.7,0.9c0.2,0.4,0.3,0.8,0.3,1.3v15.9H322.9
	z M322.7,49.6c0-0.9,0.3-1.7,0.8-2.2c0.6-0.5,1.4-0.8,2.4-0.8c1,0,1.8,0.3,2.4,0.8c0.6,0.5,0.8,1.3,0.8,2.2c0,0.9-0.3,1.7-0.8,2.2
	c-0.6,0.5-1.4,0.8-2.4,0.8c-1,0-1.8-0.3-2.4-0.8C323,51.3,322.7,50.5,322.7,49.6z"/>
<path class="st9" d="M357.3,29.4c0,0.3-0.1,0.6-0.1,0.9c0,0.3-0.1,0.6-0.2,0.9c1.3,0,2.5,0.2,3.8,0.7c1.2,0.4,2.4,1.1,3.3,1.9
	c1,0.9,1.8,2,2.5,3.3s1.1,2.9,1.2,4.7h-6.1c-0.2-0.9-0.4-1.8-0.8-2.5c-0.4-0.7-0.9-1.4-1.5-1.9c-0.6-0.5-1.3-0.9-2-1.2
	c-0.8-0.3-1.6-0.4-2.5-0.4c-0.7,0.9-1.5,1.7-2.3,2.5c-0.9,0.7-1.8,1.4-2.8,1.9c-1,0.5-2,0.9-3.1,1.2c-1.1,0.3-2.1,0.4-3.1,0.4
	c-0.7,0-1.4-0.2-1.9-0.6c-0.5-0.4-0.8-1-0.9-1.7c-0.1-0.7,0.1-1.3,0.5-1.9c0.4-0.5,1-0.9,1.7-1c1-0.2,1.9-0.5,2.8-0.9
	c0.9-0.4,1.7-1,2.5-1.7c0.7-0.7,1.4-1.4,1.9-2.3c0.5-0.9,0.8-1.9,1-3c0.1-1,0.5-1.7,1.1-2.1c0.6-0.5,1.4-0.7,2.2-0.6
	c0.9,0.1,1.6,0.4,2.1,0.9C357.1,27.7,357.3,28.5,357.3,29.4z M357.4,48v6.4h-6.1V48h-8.5c-0.9,0-1.5-0.2-1.9-0.8
	c-0.4-0.5-0.6-1.1-0.6-1.7c0-0.3,0-0.6,0.1-0.9c0.1-0.3,0.2-0.6,0.5-0.8c0.2-0.2,0.5-0.4,0.8-0.6c0.3-0.1,0.7-0.2,1.2-0.2h23
	c0.5,0,0.9,0.1,1.2,0.2c0.3,0.1,0.6,0.3,0.8,0.6c0.2,0.2,0.3,0.5,0.4,0.8c0.1,0.3,0.2,0.6,0.2,0.9c0,0.6-0.2,1.2-0.6,1.7
	c-0.4,0.5-1,0.8-1.9,0.8H357.4z M379.4,42.8c-1.1,0-2.1-0.1-3-0.4c-1-0.3-1.8-0.6-2.5-1.1c-0.7-0.5-1.3-1.2-1.7-2
	c-0.4-0.8-0.6-1.7-0.6-2.8v-1.7c0-0.7,0.2-1.3,0.6-2c-0.7,0-1.3-0.2-1.7-0.6c-0.4-0.4-0.5-0.9-0.5-1.5c0-0.5,0.2-1,0.5-1.5
	c0.4-0.5,0.9-0.7,1.7-0.7h4.3c0-0.9,0.3-1.5,0.8-2c0.5-0.5,1.3-0.7,2.2-0.7c0.9,0,1.6,0.2,2.2,0.7c0.5,0.5,0.8,1.1,0.9,2h4.3
	c0.8,0,1.3,0.2,1.6,0.7c0.4,0.5,0.5,1,0.5,1.5c0,0.5-0.2,1-0.5,1.5c-0.3,0.4-0.9,0.6-1.6,0.6h0c0.4,0.6,0.6,1.3,0.6,2v1.7
	c0,1.1-0.2,2-0.7,2.8c-0.4,0.8-1,1.4-1.7,2c-0.7,0.5-1.6,0.9-2.5,1.1C381.5,42.7,380.5,42.8,379.4,42.8z M374.7,48.7
	c-0.8,0-1.5-0.2-2-0.7c-0.4-0.4-0.7-1-0.7-1.7s0.2-1.3,0.7-1.7c0.5-0.4,1.1-0.7,2-0.7h17.9c0.9,0,1.7,0.1,2.3,0.2s1,0.4,1.4,0.8
	s0.5,0.8,0.6,1.4c0.1,0.6,0.2,1.3,0.2,2.2v5.7h-6v-4.8c0-0.5-0.2-0.7-0.7-0.7H374.7z M390.8,29.1c0-1,0.3-1.7,0.9-2.2
	c0.6-0.5,1.3-0.8,2.1-0.8c0.8,0,1.5,0.3,2.1,0.8c0.6,0.5,0.9,1.2,0.9,2.2v2.7h0.9c0.5,0,0.8,0.1,1.1,0.2c0.3,0.2,0.5,0.4,0.7,0.6
	c0.2,0.2,0.3,0.5,0.4,0.8c0.1,0.3,0.1,0.6,0.1,0.9s0,0.6-0.1,0.9c-0.1,0.3-0.2,0.6-0.4,0.8c-0.2,0.2-0.4,0.4-0.8,0.6
	c-0.3,0.1-0.7,0.2-1.1,0.2h-0.9v6h-5.9V29.1z M379.4,38.6c0.6,0,1.2-0.2,1.7-0.5c0.5-0.4,0.8-0.9,0.8-1.7v-1.6
	c0-0.7-0.3-1.3-0.8-1.6c-0.5-0.4-1.1-0.6-1.7-0.6s-1.2,0.2-1.7,0.6c-0.5,0.4-0.8,0.9-0.8,1.6v1.6c0,0.7,0.2,1.3,0.8,1.7
	C378.2,38.4,378.8,38.6,379.4,38.6z"/>
<path class="st10" d="M419.7,39.6v-1.7h-5.5c-0.9,0-1.6-0.1-2.2-0.2c-0.6-0.2-1-0.4-1.3-0.8c-0.3-0.3-0.5-0.8-0.6-1.4
	c-0.1-0.6-0.1-1.3-0.1-2.2V31c0-0.9,0.1-1.6,0.1-2.2c0.1-0.6,0.3-1,0.6-1.4c0.3-0.4,0.8-0.6,1.3-0.8s1.3-0.2,2.2-0.2h17.1
	c0.9,0,1.6,0.1,2.2,0.2c0.6,0.1,1,0.4,1.3,0.8c0.3,0.3,0.5,0.8,0.6,1.4c0.1,0.6,0.2,1.3,0.2,2.2v6.9h-9.8v1.7h8.7
	c0.4,0,0.8,0.1,1.1,0.2c0.3,0.1,0.5,0.3,0.7,0.6c0.2,0.2,0.3,0.5,0.4,0.8c0.1,0.3,0.1,0.6,0.1,0.8c0,0.3,0,0.6-0.1,0.8
	c-0.1,0.3-0.2,0.5-0.4,0.8c-0.2,0.2-0.4,0.4-0.7,0.5c-0.3,0.1-0.7,0.2-1.1,0.2H411c-0.4,0-0.8-0.1-1.1-0.2c-0.3-0.1-0.5-0.3-0.7-0.5
	c-0.2-0.2-0.3-0.5-0.4-0.8c-0.1-0.3-0.1-0.6-0.1-0.8c0-0.3,0-0.6,0.1-0.8c0.1-0.3,0.2-0.5,0.4-0.8c0.2-0.2,0.5-0.4,0.8-0.6
	c0.3-0.1,0.7-0.2,1.1-0.2H419.7z M414.5,54.3c-0.8,0-1.5-0.1-2.1-0.2c-0.6-0.1-1-0.4-1.3-0.7c-0.3-0.3-0.6-0.8-0.7-1.3
	c-0.1-0.6-0.2-1.2-0.2-2.1v-1.8c0-1,0.3-1.8,0.9-2.2c0.6-0.5,1.4-0.7,2.2-0.7s1.5,0.2,2.1,0.7c0.6,0.5,0.9,1.2,0.9,2.2V49
	c0,0.3,0,0.5,0.1,0.6c0.1,0,0.3,0,0.7,0h16.2c0.9,0,1.6,0.2,2,0.7c0.4,0.5,0.6,1,0.6,1.6c0,0.6-0.2,1.2-0.6,1.6
	c-0.4,0.5-1,0.7-1.9,0.7H414.5z M415.9,32.7c0,0.3,0,0.5,0.1,0.7c0.1,0.1,0.3,0.2,0.6,0.2h13v-1.9c0-0.3,0-0.5-0.1-0.6
	c-0.1-0.1-0.3-0.2-0.6-0.2h-12.2c-0.3,0-0.5,0.1-0.6,0.2c-0.1,0.1-0.1,0.3-0.1,0.6V32.7z M455.7,29.7c0,0.9-0.2,1.8-0.4,2.8
	c1.3,0,2.5,0.3,3.8,0.8c1.2,0.5,2.4,1.1,3.4,2.1c1,0.9,1.8,2.1,2.5,3.5c0.7,1.4,1.1,3.1,1.2,5h-6.1c-0.1-1-0.4-1.9-0.8-2.7
	c-0.4-0.8-1-1.5-1.6-2c-0.6-0.6-1.3-1-2.1-1.3c-0.8-0.3-1.6-0.4-2.5-0.4c-0.7,0.9-1.5,1.8-2.3,2.6c-0.9,0.8-1.8,1.5-2.7,2
	c-0.9,0.6-1.9,1-2.9,1.3c-1,0.3-2,0.5-3,0.5c-0.7,0-1.4-0.2-1.9-0.6c-0.5-0.4-0.8-1-0.9-1.7c-0.1-0.7,0.1-1.3,0.5-1.9s0.9-0.9,1.7-1
	c1-0.2,1.9-0.6,2.9-1.1c0.9-0.5,1.8-1.2,2.5-2c0.7-0.8,1.4-1.7,1.9-2.8s0.8-2.2,1-3.5c0.1-1,0.5-1.7,1.1-2.1
	c0.7-0.5,1.4-0.7,2.2-0.6c0.9,0.1,1.6,0.4,2.1,0.9C455.5,28,455.8,28.8,455.7,29.7z M464.2,48.6c0.5,0,0.9,0.1,1.2,0.2
	c0.3,0.1,0.6,0.3,0.8,0.6c0.2,0.2,0.4,0.5,0.5,0.8c0.1,0.3,0.1,0.6,0.1,0.9c0,0.3,0,0.6-0.1,0.9s-0.3,0.6-0.5,0.8
	c-0.2,0.2-0.5,0.4-0.8,0.6s-0.7,0.2-1.2,0.2h-22.9c-0.5,0-0.9-0.1-1.2-0.2c-0.3-0.1-0.6-0.3-0.8-0.6c-0.2-0.2-0.4-0.5-0.4-0.8
	c-0.1-0.3-0.2-0.6-0.2-0.9c0-0.3,0-0.6,0.1-0.9c0.1-0.3,0.2-0.6,0.4-0.8c0.2-0.2,0.5-0.4,0.8-0.6c0.3-0.2,0.7-0.2,1.2-0.2H464.2z
	 M474.2,53.1c-1,0-1.8-0.1-2.4-0.2s-1.1-0.4-1.4-0.8c-0.3-0.3-0.5-0.8-0.7-1.4c-0.1-0.6-0.2-1.4-0.2-2.3V31.8c0-0.9,0.1-1.7,0.2-2.3
	s0.3-1.1,0.7-1.4c0.3-0.4,0.8-0.6,1.4-0.7c0.6-0.1,1.4-0.2,2.4-0.2h9.4c0.4,0,0.8,0.1,1.1,0.2c0.3,0.2,0.5,0.4,0.7,0.6
	c0.2,0.2,0.3,0.5,0.4,0.8c0.1,0.3,0.1,0.6,0.1,0.9c0,0.3,0,0.6-0.1,0.9c-0.1,0.3-0.2,0.6-0.4,0.8s-0.4,0.4-0.7,0.6
	c-0.3,0.2-0.6,0.2-1.1,0.2h-7.3c-0.3,0-0.5,0.1-0.6,0.2s-0.2,0.3-0.2,0.7v4.4h6.3c0.4,0,0.8,0.1,1.1,0.2c0.3,0.1,0.5,0.3,0.7,0.6
	c0.2,0.2,0.3,0.5,0.4,0.8c0.1,0.3,0.1,0.6,0.1,0.9c0,0.3,0,0.6-0.1,0.9c-0.1,0.3-0.2,0.6-0.4,0.8c-0.2,0.2-0.4,0.4-0.8,0.5
	c-0.3,0.1-0.7,0.2-1.1,0.2h-6.3v4.8c0,0.3,0.1,0.6,0.2,0.7s0.3,0.2,0.6,0.2h9c0.4,0,0.8,0.1,1.1,0.2c0.3,0.2,0.5,0.4,0.7,0.6
	c0.2,0.2,0.3,0.5,0.4,0.8c0.1,0.3,0.1,0.6,0.1,0.9c0,0.3,0,0.6-0.1,0.9c-0.1,0.3-0.2,0.5-0.4,0.8c-0.2,0.2-0.4,0.4-0.7,0.6
	c-0.3,0.2-0.6,0.2-1,0.2H474.2z M490,42.4h-2.4c-0.5,0-0.8-0.1-1.1-0.2c-0.3-0.2-0.5-0.4-0.7-0.6c-0.2-0.3-0.3-0.5-0.4-0.8
	c-0.1-0.3-0.1-0.6-0.1-0.9s0-0.6,0.1-0.9c0.1-0.3,0.2-0.6,0.4-0.8c0.2-0.2,0.4-0.4,0.7-0.6c0.3-0.2,0.7-0.2,1.1-0.2h2.4V29
	c0-1,0.3-1.7,0.9-2.2c0.6-0.5,1.3-0.8,2.1-0.8c0.4,0,0.8,0.1,1.1,0.2c0.4,0.1,0.7,0.3,1,0.5s0.5,0.5,0.7,0.9
	c0.2,0.4,0.3,0.8,0.3,1.3v25.3h-6V42.4z M515.8,32.1c0,0.4-0.1,0.8-0.1,1.1c0,0.4-0.1,0.7-0.2,1h0.3c1.3,0,2.5,0.2,3.7,0.6
	c1.2,0.4,2.3,1,3.2,1.8c1,0.8,1.7,1.8,2.3,3.1c0.6,1.2,1,2.7,1.1,4.3h-5.9c-0.3-1.7-1-3-2.2-3.9c-1.2-0.9-2.7-1.4-4.4-1.4
	c-0.1,0-0.2,0-0.3,0c-0.1,0-0.2,0-0.3,0c-0.7,0.8-1.4,1.5-2.3,2.1c-0.8,0.6-1.7,1.2-2.6,1.6c-0.9,0.4-1.8,0.8-2.8,1.1
	c-0.9,0.3-1.9,0.4-2.7,0.5c-0.8,0.1-1.5-0.1-2.2-0.5c-0.6-0.4-1-1-1.1-1.7c-0.1-0.7,0-1.3,0.4-1.8c0.4-0.6,0.9-0.9,1.6-1
	c1-0.2,2-0.4,3-0.8c1-0.4,1.8-0.9,2.6-1.5c0.8-0.6,1.4-1.3,1.9-2.1c0.5-0.8,0.8-1.7,0.9-2.6h-7.2c-0.5,0-0.8-0.1-1.2-0.2
	c-0.3-0.2-0.6-0.4-0.8-0.6c-0.2-0.2-0.4-0.5-0.5-0.8c-0.1-0.3-0.1-0.6-0.1-0.9s0-0.6,0.1-0.9c0.1-0.3,0.2-0.6,0.5-0.8
	c0.2-0.3,0.5-0.5,0.8-0.6c0.3-0.2,0.7-0.2,1.2-0.2h20.8c0.5,0,0.8,0.1,1.2,0.2c0.3,0.1,0.6,0.3,0.8,0.6c0.2,0.2,0.3,0.5,0.4,0.8
	c0.1,0.3,0.2,0.6,0.2,0.9s-0.1,0.6-0.2,0.9c-0.1,0.3-0.2,0.6-0.5,0.8c-0.2,0.2-0.5,0.4-0.8,0.6c-0.3,0.1-0.7,0.2-1.1,0.2H515.8z
	 M524.2,48.6c0.5,0,0.8,0.1,1.2,0.2c0.3,0.1,0.6,0.3,0.8,0.6c0.2,0.2,0.4,0.5,0.5,0.8c0.1,0.3,0.1,0.6,0.1,0.9c0,0.3,0,0.6-0.1,0.9
	c-0.1,0.3-0.3,0.6-0.5,0.8c-0.2,0.2-0.5,0.4-0.8,0.6s-0.7,0.2-1.2,0.2h-22.9c-0.5,0-0.9-0.1-1.2-0.2c-0.3-0.1-0.6-0.3-0.8-0.6
	c-0.2-0.2-0.4-0.5-0.4-0.8c-0.1-0.3-0.2-0.6-0.2-0.9c0-0.3,0-0.6,0.1-0.9c0.1-0.3,0.2-0.6,0.4-0.8c0.2-0.2,0.5-0.4,0.8-0.6
	c0.3-0.2,0.7-0.2,1.2-0.2H524.2z"/>
<defs>
	<filter id="Adobe_OpacityMaskFilter" filterUnits="userSpaceOnUse" x="256.9" y="20.8" width="274.9" height="38.6">
		<feColorMatrix  type="matrix" values="1 0 0 0 0  0 1 0 0 0  0 0 1 0 0  0 0 0 1 0"/>
	</filter>
</defs>
<mask maskUnits="userSpaceOnUse" x="256.9" y="20.8" width="274.9" height="38.6" id="path-11-outside-1_867_1488_00000176043576733531304660000006026636828111019953_">
	<rect x="256" y="20" class="st11" width="276" height="40"/>
	<path d="M277.6,28.7c0-0.8,0.3-1.5,0.8-1.9c0.5-0.4,1.2-0.7,1.9-0.7c0.7,0,1.3,0.2,1.8,0.7c0.5,0.4,0.8,1,0.8,1.9v8.5h1.5v-8.5
		c0-0.8,0.3-1.5,0.8-1.9c0.5-0.4,1.2-0.7,1.9-0.7c0.3,0,0.7,0.1,1,0.2c0.3,0.1,0.6,0.3,0.8,0.5c0.3,0.2,0.5,0.5,0.6,0.8
		c0.2,0.3,0.2,0.7,0.2,1.1v25.6h-5.3V42h-1.5v12.2h-5.3V28.7z M264.2,48.4c1.9-0.2,3.4-0.9,4.4-1.9c1-1.1,1.6-2.6,1.9-4.5h-5.9
		c-0.5,0-0.9-0.1-1.2-0.2c-0.3-0.2-0.6-0.4-0.8-0.6c-0.2-0.2-0.4-0.5-0.4-0.8c-0.1-0.3-0.1-0.6-0.1-0.9s0-0.6,0.1-0.9
		c0.1-0.3,0.2-0.6,0.4-0.8c0.2-0.2,0.5-0.4,0.8-0.6c0.3-0.2,0.7-0.2,1.2-0.2h6V33c0-0.2-0.1-0.4-0.2-0.5c-0.1-0.1-0.3-0.2-0.5-0.2
		h-5c-0.5,0-0.9-0.1-1.2-0.2c-0.3-0.2-0.6-0.4-0.8-0.6c-0.2-0.2-0.3-0.5-0.4-0.8c-0.1-0.3-0.1-0.6-0.1-0.9c0-0.3,0-0.6,0.1-0.9
		c0.1-0.3,0.2-0.6,0.4-0.8c0.2-0.2,0.5-0.4,0.8-0.6c0.3-0.2,0.7-0.2,1.2-0.2h6.7c0.8,0,1.5,0.1,2.1,0.2c0.6,0.1,1,0.4,1.4,0.7
		c0.4,0.3,0.6,0.7,0.8,1.3c0.2,0.5,0.2,1.2,0.2,1.9v8.9c0,2.3-0.3,4.3-0.9,5.9c-0.6,1.6-1.4,2.9-2.4,4c-1,1-2.2,1.8-3.5,2.3
		s-2.7,0.8-4.1,0.8c-0.8,0-1.5-0.1-2.1-0.5c-0.6-0.4-0.9-0.9-1-1.8c0-0.7,0.1-1.3,0.5-1.8C262.8,48.8,263.4,48.5,264.2,48.4z
		 M301.1,26c1,0,1.8,0.3,2.3,0.8c0.5,0.5,0.8,1.2,0.8,2.2v0.4h3.9c0.5,0,0.8,0.1,1.1,0.2c0.3,0.1,0.6,0.3,0.8,0.6
		c0.2,0.2,0.3,0.5,0.4,0.8c0.1,0.3,0.1,0.6,0.1,0.9c0,0.3,0,0.6-0.1,0.9c-0.1,0.3-0.2,0.6-0.4,0.8c-0.2,0.2-0.4,0.4-0.8,0.6
		c-0.3,0.1-0.7,0.2-1.1,0.2h-4v1.8c0,1.4-0.1,2.7-0.3,3.9c1.1,0.3,2,0.8,2.9,1.4c0.9,0.6,1.6,1.4,2.2,2.4c0.6,1,1,2.2,1.3,3.6
		c0.3,1.4,0.4,3.1,0.2,5.2h-5.6c0.2-2,0.1-3.6-0.3-4.8c-0.4-1.2-1.1-2.1-2.1-2.7c-0.8,1.9-1.8,3.4-3,4.7c-1.2,1.2-2.6,2.1-4.2,2.8
		c-0.3,0.1-0.7,0.2-1,0.2c-0.4,0-0.7,0-1-0.1c-0.3-0.1-0.6-0.2-0.9-0.4c-0.3-0.2-0.5-0.5-0.7-0.8c-0.3-0.5-0.4-1.1-0.2-1.7
		c0.1-0.6,0.5-1.1,1.1-1.5c0.9-0.5,1.8-1.2,2.5-1.9c0.7-0.7,1.3-1.6,1.8-2.5c0.5-1,0.8-2.1,1.1-3.4c0.3-1.3,0.4-2.8,0.4-4.5v-1.6
		h-4.2c-0.5,0-0.9-0.1-1.2-0.2c-0.3-0.2-0.6-0.4-0.8-0.6c-0.2-0.2-0.4-0.5-0.5-0.8c-0.1-0.3-0.1-0.6-0.1-0.9c0-0.3,0-0.6,0.1-0.9
		c0.1-0.3,0.2-0.6,0.5-0.8c0.2-0.3,0.5-0.5,0.8-0.6c0.3-0.2,0.7-0.2,1.2-0.2h3.9V29c0-1,0.2-1.7,0.8-2.2
		C299.3,26.2,300.1,26,301.1,26z M313.2,54.3V29.1c0-1,0.3-1.7,0.9-2.2s1.3-0.8,2.1-0.8c0.8,0,1.5,0.2,2.1,0.8
		c0.6,0.5,0.9,1.2,0.9,2.2v25.2H313.2z M322.9,45.2V29.3c0-0.5,0.1-0.9,0.2-1.3c0.2-0.4,0.4-0.7,0.7-0.9c0.3-0.3,0.6-0.5,1-0.6
		c0.4-0.1,0.8-0.2,1.2-0.2c0.4,0,0.8,0.1,1.1,0.2c0.4,0.1,0.7,0.3,1,0.6c0.3,0.2,0.5,0.5,0.7,0.9c0.2,0.4,0.3,0.8,0.3,1.3v15.9
		H322.9z M322.7,49.6c0-0.9,0.3-1.7,0.8-2.2c0.6-0.5,1.4-0.8,2.4-0.8c1,0,1.8,0.3,2.4,0.8c0.6,0.5,0.8,1.3,0.8,2.2
		c0,0.9-0.3,1.7-0.8,2.2c-0.6,0.5-1.4,0.8-2.4,0.8c-1,0-1.8-0.3-2.4-0.8C323,51.3,322.7,50.5,322.7,49.6z"/>
	<path d="M357.3,29.4c0,0.3-0.1,0.6-0.1,0.9c0,0.3-0.1,0.6-0.2,0.9c1.3,0,2.5,0.2,3.8,0.7c1.2,0.4,2.4,1.1,3.3,1.9
		c1,0.9,1.8,2,2.5,3.3s1.1,2.9,1.2,4.7h-6.1c-0.2-0.9-0.4-1.8-0.8-2.5c-0.4-0.7-0.9-1.4-1.5-1.9c-0.6-0.5-1.3-0.9-2-1.2
		c-0.8-0.3-1.6-0.4-2.5-0.4c-0.7,0.9-1.5,1.7-2.3,2.5c-0.9,0.7-1.8,1.4-2.8,1.9c-1,0.5-2,0.9-3.1,1.2c-1.1,0.3-2.1,0.4-3.1,0.4
		c-0.7,0-1.4-0.2-1.9-0.6c-0.5-0.4-0.8-1-0.9-1.7c-0.1-0.7,0.1-1.3,0.5-1.9c0.4-0.5,1-0.9,1.7-1c1-0.2,1.9-0.5,2.8-0.9
		c0.9-0.4,1.7-1,2.5-1.7c0.7-0.7,1.4-1.4,1.9-2.3c0.5-0.9,0.8-1.9,1-3c0.1-1,0.5-1.7,1.1-2.1c0.6-0.5,1.4-0.7,2.2-0.6
		c0.9,0.1,1.6,0.4,2.1,0.9C357.1,27.7,357.3,28.5,357.3,29.4z M357.4,48v6.4h-6.1V48h-8.5c-0.9,0-1.5-0.2-1.9-0.8
		c-0.4-0.5-0.6-1.1-0.6-1.7c0-0.3,0-0.6,0.1-0.9c0.1-0.3,0.2-0.6,0.5-0.8c0.2-0.2,0.5-0.4,0.8-0.6c0.3-0.1,0.7-0.2,1.2-0.2h23
		c0.5,0,0.9,0.1,1.2,0.2c0.3,0.1,0.6,0.3,0.8,0.6c0.2,0.2,0.3,0.5,0.4,0.8c0.1,0.3,0.2,0.6,0.2,0.9c0,0.6-0.2,1.2-0.6,1.7
		c-0.4,0.5-1,0.8-1.9,0.8H357.4z M379.4,42.8c-1.1,0-2.1-0.1-3-0.4c-1-0.3-1.8-0.6-2.5-1.1c-0.7-0.5-1.3-1.2-1.7-2
		c-0.4-0.8-0.6-1.7-0.6-2.8v-1.7c0-0.7,0.2-1.3,0.6-2c-0.7,0-1.3-0.2-1.7-0.6c-0.4-0.4-0.5-0.9-0.5-1.5c0-0.5,0.2-1,0.5-1.5
		c0.4-0.5,0.9-0.7,1.7-0.7h4.3c0-0.9,0.3-1.5,0.8-2c0.5-0.5,1.3-0.7,2.2-0.7c0.9,0,1.6,0.2,2.2,0.7c0.5,0.5,0.8,1.1,0.9,2h4.3
		c0.8,0,1.3,0.2,1.6,0.7c0.4,0.5,0.5,1,0.5,1.5c0,0.5-0.2,1-0.5,1.5c-0.3,0.4-0.9,0.6-1.6,0.6h0c0.4,0.6,0.6,1.3,0.6,2v1.7
		c0,1.1-0.2,2-0.7,2.8c-0.4,0.8-1,1.4-1.7,2c-0.7,0.5-1.6,0.9-2.5,1.1C381.5,42.7,380.5,42.8,379.4,42.8z M374.7,48.7
		c-0.8,0-1.5-0.2-2-0.7c-0.4-0.4-0.7-1-0.7-1.7s0.2-1.3,0.7-1.7c0.5-0.4,1.1-0.7,2-0.7h17.9c0.9,0,1.7,0.1,2.3,0.2s1,0.4,1.4,0.8
		s0.5,0.8,0.6,1.4c0.1,0.6,0.2,1.3,0.2,2.2v5.7h-6v-4.8c0-0.5-0.2-0.7-0.7-0.7H374.7z M390.8,29.1c0-1,0.3-1.7,0.9-2.2
		c0.6-0.5,1.3-0.8,2.1-0.8c0.8,0,1.5,0.3,2.1,0.8c0.6,0.5,0.9,1.2,0.9,2.2v2.7h0.9c0.5,0,0.8,0.1,1.1,0.2c0.3,0.2,0.5,0.4,0.7,0.6
		c0.2,0.2,0.3,0.5,0.4,0.8c0.1,0.3,0.1,0.6,0.1,0.9s0,0.6-0.1,0.9c-0.1,0.3-0.2,0.6-0.4,0.8c-0.2,0.2-0.4,0.4-0.8,0.6
		c-0.3,0.1-0.7,0.2-1.1,0.2h-0.9v6h-5.9V29.1z M379.4,38.6c0.6,0,1.2-0.2,1.7-0.5c0.5-0.4,0.8-0.9,0.8-1.7v-1.6
		c0-0.7-0.3-1.3-0.8-1.6c-0.5-0.4-1.1-0.6-1.7-0.6s-1.2,0.2-1.7,0.6c-0.5,0.4-0.8,0.9-0.8,1.6v1.6c0,0.7,0.2,1.3,0.8,1.7
		C378.2,38.4,378.8,38.6,379.4,38.6z"/>
	<path d="M419.7,39.6v-1.7h-5.5c-0.9,0-1.6-0.1-2.2-0.2c-0.6-0.2-1-0.4-1.3-0.8c-0.3-0.3-0.5-0.8-0.6-1.4c-0.1-0.6-0.1-1.3-0.1-2.2
		V31c0-0.9,0.1-1.6,0.1-2.2c0.1-0.6,0.3-1,0.6-1.4c0.3-0.4,0.8-0.6,1.3-0.8s1.3-0.2,2.2-0.2h17.1c0.9,0,1.6,0.1,2.2,0.2
		c0.6,0.1,1,0.4,1.3,0.8c0.3,0.3,0.5,0.8,0.6,1.4c0.1,0.6,0.2,1.3,0.2,2.2v6.9h-9.8v1.7h8.7c0.4,0,0.8,0.1,1.1,0.2
		c0.3,0.1,0.5,0.3,0.7,0.6c0.2,0.2,0.3,0.5,0.4,0.8c0.1,0.3,0.1,0.6,0.1,0.8c0,0.3,0,0.6-0.1,0.8c-0.1,0.3-0.2,0.5-0.4,0.8
		c-0.2,0.2-0.4,0.4-0.7,0.5c-0.3,0.1-0.7,0.2-1.1,0.2H411c-0.4,0-0.8-0.1-1.1-0.2c-0.3-0.1-0.5-0.3-0.7-0.5
		c-0.2-0.2-0.3-0.5-0.4-0.8c-0.1-0.3-0.1-0.6-0.1-0.8c0-0.3,0-0.6,0.1-0.8c0.1-0.3,0.2-0.5,0.4-0.8c0.2-0.2,0.5-0.4,0.8-0.6
		c0.3-0.1,0.7-0.2,1.1-0.2H419.7z M414.5,54.3c-0.8,0-1.5-0.1-2.1-0.2c-0.6-0.1-1-0.4-1.3-0.7c-0.3-0.3-0.6-0.8-0.7-1.3
		c-0.1-0.6-0.2-1.2-0.2-2.1v-1.8c0-1,0.3-1.8,0.9-2.2c0.6-0.5,1.4-0.7,2.2-0.7s1.5,0.2,2.1,0.7c0.6,0.5,0.9,1.2,0.9,2.2V49
		c0,0.3,0,0.5,0.1,0.6c0.1,0,0.3,0,0.7,0h16.2c0.9,0,1.6,0.2,2,0.7c0.4,0.5,0.6,1,0.6,1.6c0,0.6-0.2,1.2-0.6,1.6
		c-0.4,0.5-1,0.7-1.9,0.7H414.5z M415.9,32.7c0,0.3,0,0.5,0.1,0.7c0.1,0.1,0.3,0.2,0.6,0.2h13v-1.9c0-0.3,0-0.5-0.1-0.6
		c-0.1-0.1-0.3-0.2-0.6-0.2h-12.2c-0.3,0-0.5,0.1-0.6,0.2c-0.1,0.1-0.1,0.3-0.1,0.6V32.7z M455.7,29.7c0,0.9-0.2,1.8-0.4,2.8
		c1.3,0,2.5,0.3,3.8,0.8c1.2,0.5,2.4,1.1,3.4,2.1c1,0.9,1.8,2.1,2.5,3.5c0.7,1.4,1.1,3.1,1.2,5h-6.1c-0.1-1-0.4-1.9-0.8-2.7
		c-0.4-0.8-1-1.5-1.6-2c-0.6-0.6-1.3-1-2.1-1.3c-0.8-0.3-1.6-0.4-2.5-0.4c-0.7,0.9-1.5,1.8-2.3,2.6c-0.9,0.8-1.8,1.5-2.7,2
		c-0.9,0.6-1.9,1-2.9,1.3c-1,0.3-2,0.5-3,0.5c-0.7,0-1.4-0.2-1.9-0.6c-0.5-0.4-0.8-1-0.9-1.7c-0.1-0.7,0.1-1.3,0.5-1.9
		s0.9-0.9,1.7-1c1-0.2,1.9-0.6,2.9-1.1c0.9-0.5,1.8-1.2,2.5-2c0.7-0.8,1.4-1.7,1.9-2.8s0.8-2.2,1-3.5c0.1-1,0.5-1.7,1.1-2.1
		c0.7-0.5,1.4-0.7,2.2-0.6c0.9,0.1,1.6,0.4,2.1,0.9C455.5,28,455.8,28.8,455.7,29.7z M464.2,48.6c0.5,0,0.9,0.1,1.2,0.2
		c0.3,0.1,0.6,0.3,0.8,0.6c0.2,0.2,0.4,0.5,0.5,0.8c0.1,0.3,0.1,0.6,0.1,0.9c0,0.3,0,0.6-0.1,0.9s-0.3,0.6-0.5,0.8
		c-0.2,0.2-0.5,0.4-0.8,0.6s-0.7,0.2-1.2,0.2h-22.9c-0.5,0-0.9-0.1-1.2-0.2c-0.3-0.1-0.6-0.3-0.8-0.6c-0.2-0.2-0.4-0.5-0.4-0.8
		c-0.1-0.3-0.2-0.6-0.2-0.9c0-0.3,0-0.6,0.1-0.9c0.1-0.3,0.2-0.6,0.4-0.8c0.2-0.2,0.5-0.4,0.8-0.6c0.3-0.2,0.7-0.2,1.2-0.2H464.2z
		 M474.2,53.1c-1,0-1.8-0.1-2.4-0.2s-1.1-0.4-1.4-0.8c-0.3-0.3-0.5-0.8-0.7-1.4c-0.1-0.6-0.2-1.4-0.2-2.3V31.8
		c0-0.9,0.1-1.7,0.2-2.3s0.3-1.1,0.7-1.4c0.3-0.4,0.8-0.6,1.4-0.7c0.6-0.1,1.4-0.2,2.4-0.2h9.4c0.4,0,0.8,0.1,1.1,0.2
		c0.3,0.2,0.5,0.4,0.7,0.6c0.2,0.2,0.3,0.5,0.4,0.8c0.1,0.3,0.1,0.6,0.1,0.9c0,0.3,0,0.6-0.1,0.9c-0.1,0.3-0.2,0.6-0.4,0.8
		s-0.4,0.4-0.7,0.6c-0.3,0.2-0.6,0.2-1.1,0.2h-7.3c-0.3,0-0.5,0.1-0.6,0.2s-0.2,0.3-0.2,0.7v4.4h6.3c0.4,0,0.8,0.1,1.1,0.2
		c0.3,0.1,0.5,0.3,0.7,0.6c0.2,0.2,0.3,0.5,0.4,0.8c0.1,0.3,0.1,0.6,0.1,0.9c0,0.3,0,0.6-0.1,0.9c-0.1,0.3-0.2,0.6-0.4,0.8
		c-0.2,0.2-0.4,0.4-0.8,0.5c-0.3,0.1-0.7,0.2-1.1,0.2h-6.3v4.8c0,0.3,0.1,0.6,0.2,0.7s0.3,0.2,0.6,0.2h9c0.4,0,0.8,0.1,1.1,0.2
		c0.3,0.2,0.5,0.4,0.7,0.6c0.2,0.2,0.3,0.5,0.4,0.8c0.1,0.3,0.1,0.6,0.1,0.9c0,0.3,0,0.6-0.1,0.9c-0.1,0.3-0.2,0.5-0.4,0.8
		c-0.2,0.2-0.4,0.4-0.7,0.6c-0.3,0.2-0.6,0.2-1,0.2H474.2z M490,42.4h-2.4c-0.5,0-0.8-0.1-1.1-0.2c-0.3-0.2-0.5-0.4-0.7-0.6
		c-0.2-0.3-0.3-0.5-0.4-0.8c-0.1-0.3-0.1-0.6-0.1-0.9s0-0.6,0.1-0.9c0.1-0.3,0.2-0.6,0.4-0.8c0.2-0.2,0.4-0.4,0.7-0.6
		c0.3-0.2,0.7-0.2,1.1-0.2h2.4V29c0-1,0.3-1.7,0.9-2.2c0.6-0.5,1.3-0.8,2.1-0.8c0.4,0,0.8,0.1,1.1,0.2c0.4,0.1,0.7,0.3,1,0.5
		s0.5,0.5,0.7,0.9c0.2,0.4,0.3,0.8,0.3,1.3v25.3h-6V42.4z M515.8,32.1c0,0.4-0.1,0.8-0.1,1.1c0,0.4-0.1,0.7-0.2,1h0.3
		c1.3,0,2.5,0.2,3.7,0.6c1.2,0.4,2.3,1,3.2,1.8c1,0.8,1.7,1.8,2.3,3.1c0.6,1.2,1,2.7,1.1,4.3h-5.9c-0.3-1.7-1-3-2.2-3.9
		c-1.2-0.9-2.7-1.4-4.4-1.4c-0.1,0-0.2,0-0.3,0c-0.1,0-0.2,0-0.3,0c-0.7,0.8-1.4,1.5-2.3,2.1c-0.8,0.6-1.7,1.2-2.6,1.6
		c-0.9,0.4-1.8,0.8-2.8,1.1c-0.9,0.3-1.9,0.4-2.7,0.5c-0.8,0.1-1.5-0.1-2.2-0.5c-0.6-0.4-1-1-1.1-1.7c-0.1-0.7,0-1.3,0.4-1.8
		c0.4-0.6,0.9-0.9,1.6-1c1-0.2,2-0.4,3-0.8c1-0.4,1.8-0.9,2.6-1.5c0.8-0.6,1.4-1.3,1.9-2.1c0.5-0.8,0.8-1.7,0.9-2.6h-7.2
		c-0.5,0-0.8-0.1-1.2-0.2c-0.3-0.2-0.6-0.4-0.8-0.6c-0.2-0.2-0.4-0.5-0.5-0.8c-0.1-0.3-0.1-0.6-0.1-0.9s0-0.6,0.1-0.9
		c0.1-0.3,0.2-0.6,0.5-0.8c0.2-0.3,0.5-0.5,0.8-0.6c0.3-0.2,0.7-0.2,1.2-0.2h20.8c0.5,0,0.8,0.1,1.2,0.2c0.3,0.1,0.6,0.3,0.8,0.6
		c0.2,0.2,0.3,0.5,0.4,0.8c0.1,0.3,0.2,0.6,0.2,0.9s-0.1,0.6-0.2,0.9c-0.1,0.3-0.2,0.6-0.5,0.8c-0.2,0.2-0.5,0.4-0.8,0.6
		c-0.3,0.1-0.7,0.2-1.1,0.2H515.8z M524.2,48.6c0.5,0,0.8,0.1,1.2,0.2c0.3,0.1,0.6,0.3,0.8,0.6c0.2,0.2,0.4,0.5,0.5,0.8
		c0.1,0.3,0.1,0.6,0.1,0.9c0,0.3,0,0.6-0.1,0.9c-0.1,0.3-0.3,0.6-0.5,0.8c-0.2,0.2-0.5,0.4-0.8,0.6s-0.7,0.2-1.2,0.2h-22.9
		c-0.5,0-0.9-0.1-1.2-0.2c-0.3-0.1-0.6-0.3-0.8-0.6c-0.2-0.2-0.4-0.5-0.4-0.8c-0.1-0.3-0.2-0.6-0.2-0.9c0-0.3,0-0.6,0.1-0.9
		c0.1-0.3,0.2-0.6,0.4-0.8c0.2-0.2,0.5-0.4,0.8-0.6c0.3-0.2,0.7-0.2,1.2-0.2H524.2z"/>
</mask>
<path class="st12" d="M278.4,26.8l3.1,3.9l0,0l0,0L278.4,26.8z M282.1,26.8l-3.2,3.9l0,0l0,0L282.1,26.8z M282.9,37.1h-5v5h5V37.1z
	 M284.4,37.1v5h5v-5H284.4z M285.2,26.8l3.1,3.9l0,0l0,0L285.2,26.8z M288,26.3l-1.8,4.7l0.1,0l0.1,0L288,26.3z M288.9,26.8
	l-3.4,3.7l0.1,0.1l0.1,0.1L288.9,26.8z M289.5,27.6l-4.6,2l0.1,0.2l0.1,0.2L289.5,27.6z M289.7,54.3v5h5v-5H289.7z M284.4,54.3h-5v5
	h5V54.3z M284.4,42h5v-5h-5V42z M282.9,42v-5h-5v5H282.9z M282.9,54.3v5h5v-5H282.9z M277.6,54.3h-5v5h5V54.3z M264.2,48.4l-0.6-5
	l0,0l0,0L264.2,48.4z M268.6,46.5L265,43l0,0L268.6,46.5z M270.5,42l5,0.6l0.6-5.6h-5.6V42z M263.4,41.8l-2.4,4.4l0.2,0.1l0.2,0.1
	L263.4,41.8z M262.6,41.2l-3.8,3.2l0.1,0.1l0.1,0.1L262.6,41.2z M262.2,40.4l-4.8,1.3l0,0.1l0,0.1L262.2,40.4z M262.2,38.6l-4.7-1.6
	l0,0.1l0,0.1L262.2,38.6z M262.6,37.8l-3.8-3.2l0,0L262.6,37.8z M263.4,37.2l2,4.6l0.1-0.1l0.1-0.1L263.4,37.2z M270.6,36.9v5h5v-5
	H270.6z M270.4,32.5l-3.8,3.3l0.1,0.1l0.1,0.1L270.4,32.5z M263.6,32.1l-2.4,4.4l0.2,0.1l0.2,0.1L263.6,32.1z M262.8,31.5l-3.8,3.2
	l0.1,0.1l0.1,0.1L262.8,31.5z M262.4,30.7l-4.8,1.3l0,0.1l0,0.1L262.4,30.7z M262.4,28.9l-4.7-1.6l0,0.1l0,0.1L262.4,28.9z
	 M262.8,28.1l3.8,3.2l0,0L262.8,28.1z M263.6,27.5l2,4.6l0.1-0.1l0.1-0.1L263.6,27.5z M273.6,27.5l-1.2,4.9l0,0L273.6,27.5z
	 M275,28.1l-3.3,3.7l0,0L275,28.1z M275.7,29.4l-4.8,1.3l0,0.1l0,0.1L275.7,29.4z M275.1,46.2l4.7,1.7L275.1,46.2z M272.6,50.1
	l3.6,3.5L272.6,50.1z M269.1,52.5l1.8,4.7L269.1,52.5z M265,53.3l-0.2-5l0,0l0,0L265,53.3z M262.9,52.8l2.6-4.3l-0.1,0l-0.1,0
	L262.9,52.8z M261.9,51l5-0.1l0,0v0L261.9,51z M262.4,49.2l-4-3l0,0L262.4,49.2z M282.6,28.7c0,0.1,0,0.4-0.2,0.8
	c-0.2,0.4-0.5,0.9-0.9,1.2l-6.3-7.8c-2,1.6-2.6,3.9-2.6,5.8H282.6z M281.5,30.6c-0.1,0.1-0.4,0.2-0.6,0.3c-0.3,0.1-0.5,0.1-0.7,0.1
	v-10c-1.8,0-3.6,0.6-5,1.8L281.5,30.6z M280.2,31.1c-0.2,0-0.5,0-0.7-0.1c-0.3-0.1-0.5-0.2-0.6-0.3l6.3-7.8c-1.4-1.1-3.1-1.8-5-1.8
	V31.1z M279,30.7c-0.4-0.3-0.7-0.7-0.9-1.2c-0.2-0.4-0.2-0.8-0.2-0.9h10c0-2-0.7-4.3-2.7-5.8L279,30.7z M277.9,28.7v8.5h10v-8.5
	H277.9z M282.9,42.1h1.5v-10h-1.5V42.1z M289.4,37.1v-8.5h-10v8.5H289.4z M289.4,28.7c0,0.1,0,0.4-0.2,0.9c-0.2,0.5-0.5,0.9-0.9,1.2
	l-6.1-7.9c-2,1.6-2.7,3.8-2.7,5.8H289.4z M288.3,30.6c-0.1,0.1-0.4,0.2-0.6,0.3c-0.3,0.1-0.5,0.1-0.7,0.1v-10c-1.8,0-3.6,0.6-5,1.8
	L288.3,30.6z M287,31.1c-0.3,0-0.5,0-0.8-0.1l3.5-9.4c-0.9-0.3-1.8-0.5-2.7-0.5V31.1z M286.5,31.1c-0.4-0.1-0.7-0.3-1-0.6l6.8-7.4
	c-0.8-0.7-1.7-1.3-2.7-1.6L286.5,31.1z M285.6,30.6c-0.3-0.3-0.6-0.6-0.8-1l9.2-4c-0.4-1-1.1-1.9-2-2.6L285.6,30.6z M285.1,29.9
	c-0.3-0.6-0.3-1.1-0.3-1.3h10c0-1.1-0.2-2.3-0.8-3.4L285.1,29.9z M284.7,28.7v25.6h10V28.7H284.7z M289.7,49.3h-5.3v10h5.3V49.3z
	 M289.4,54.3V42h-10v12.2H289.4z M284.4,37h-1.5v10h1.5V37z M277.9,42v12.2h10V42H277.9z M282.9,49.3h-5.3v10h5.3V49.3z M282.6,54.3
	V28.7h-10v25.6H282.6z M264.7,53.3c2.7-0.3,5.4-1.3,7.5-3.5L265,43c0,0,0,0,0,0c0,0-0.1,0.1-0.2,0.1c-0.2,0.1-0.5,0.2-1.1,0.3
	L264.7,53.3z M272.2,49.9c1.9-2.1,2.9-4.7,3.2-7.3l-9.9-1.2c-0.1,1.1-0.4,1.5-0.5,1.6L272.2,49.9z M270.5,37h-5.9v10h5.9V37z
	 M264.6,37c0,0,0.4,0,0.8,0.2l-4,9.2c1.1,0.5,2.2,0.6,3.2,0.6V37z M265.8,37.4c0.2,0.1,0.4,0.2,0.6,0.4l-7.4,6.8
	c0.6,0.7,1.3,1.2,2.1,1.6L265.8,37.4z M266.5,38c0.2,0.2,0.4,0.5,0.5,0.8l-9.5,3.2c0.3,0.9,0.7,1.7,1.4,2.4L266.5,38z M267,39.1
	c0,0.1,0,0.2,0,0.4h-10c0,0.8,0.1,1.5,0.3,2.2L267,39.1z M267,39.5c0,0.2,0,0.3,0,0.4l-9.7-2.6c-0.2,0.7-0.3,1.4-0.3,2.2H267z
	 M266.9,40.1c-0.1,0.3-0.2,0.6-0.5,0.8l-7.7-6.4c-0.6,0.7-1.1,1.5-1.4,2.4L266.9,40.1z M266.5,41c-0.4,0.4-0.8,0.7-1.1,0.8l-4-9.2
	c-0.9,0.4-1.9,1-2.6,1.9L266.5,41z M265.6,41.7c-0.5,0.3-1,0.3-1.1,0.3v-10c-1,0-2.2,0.2-3.4,0.8L265.6,41.7z M264.6,41.9h6v-10h-6
	V41.9z M275.6,36.9V33h-10v3.9H275.6z M275.6,33c0-1.4-0.5-2.9-1.7-4.1l-7.1,7.1c-0.4-0.4-0.7-0.9-1-1.5c-0.2-0.6-0.3-1.1-0.3-1.5
	H275.6z M274.2,29.2c-1.3-1.6-3.1-2-4.3-2v10c-0.7,0-2.2-0.3-3.3-1.5L274.2,29.2z M269.8,27.3h-5v10h5V27.3z M264.8,27.3
	c0,0,0.4,0,0.8,0.2l-4,9.2c1.1,0.5,2.2,0.6,3.2,0.6V27.3z M266,27.7c0.2,0.1,0.4,0.2,0.6,0.4l-7.4,6.8c0.6,0.7,1.3,1.2,2.1,1.6
	L266,27.7z M266.7,28.3c0.2,0.2,0.4,0.5,0.5,0.8l-9.5,3.2c0.3,0.9,0.7,1.7,1.4,2.4L266.7,28.3z M267.2,29.4c0,0.1,0,0.2,0,0.4h-10
	c0,0.8,0.1,1.5,0.3,2.2L267.2,29.4z M267.3,29.8c0,0.1,0,0.3,0,0.4l-9.7-2.6c-0.2,0.7-0.3,1.4-0.3,2.2H267.3z M267.1,30.5
	c-0.1,0.3-0.2,0.6-0.5,0.8l-7.7-6.4c-0.6,0.7-1.1,1.5-1.4,2.4L267.1,30.5z M266.7,31.3c-0.4,0.4-0.8,0.7-1.1,0.8l-4-9.2
	c-0.9,0.4-1.9,1-2.6,1.9L266.7,31.3z M265.8,32c-0.5,0.3-1,0.3-1.1,0.3v-10c-1,0-2.2,0.2-3.4,0.8L265.8,32z M264.8,32.2h6.7v-10
	h-6.7V32.2z M271.4,32.2c0.6,0,0.9,0.1,1,0.1l2.3-9.7c-1.1-0.3-2.2-0.3-3.3-0.3V32.2z M272.4,32.3c0,0-0.4-0.1-0.7-0.4l6.6-7.5
	c-1.1-1-2.4-1.5-3.6-1.8L272.4,32.3z M271.7,31.9c-0.5-0.4-0.7-0.9-0.8-1.2l9.7-2.6c-0.4-1.3-1.1-2.7-2.3-3.7L271.7,31.9z M271,30.9
	C270.9,30.8,270.9,30.8,271,30.9c0,0.1,0,0.2,0,0.4h10c0-1.1-0.1-2.2-0.5-3.4L271,30.9z M271,31.3v8.9h10v-8.9H271z M271,40.3
	c0,1.9-0.2,3.2-0.6,4.1l9.4,3.5c0.9-2.3,1.2-4.9,1.2-7.6H271z M270.4,44.4c-0.4,1.1-0.9,1.8-1.3,2.2l7.1,7c1.6-1.6,2.7-3.6,3.5-5.8
	L270.4,44.4z M269.1,46.6c-0.5,0.5-1.1,0.9-1.7,1.1l3.5,9.4c2-0.8,3.8-1.9,5.3-3.5L269.1,46.6z M267.4,47.8
	c-0.8,0.3-1.7,0.5-2.6,0.5l0.4,10c2-0.1,3.9-0.5,5.7-1.2L267.4,47.8z M264.7,48.3c0,0,0.1,0,0.3,0c0.2,0,0.3,0.1,0.5,0.2l-5.2,8.5
	c1.6,1,3.3,1.3,5,1.2L264.7,48.3z M265.4,48.5c0.4,0.2,0.9,0.7,1.2,1.2c0.3,0.5,0.3,1,0.3,1.2l-10,0.2c0.1,2.3,1.1,4.6,3.4,6
	L265.4,48.5z M266.9,50.9c0,0.1,0,0.3-0.1,0.6c-0.1,0.3-0.2,0.6-0.4,0.8l-8-6c-1.1,1.5-1.6,3.3-1.5,4.9L266.9,50.9z M266.4,52.2
	c-0.7,1-1.6,1.1-1.6,1.1l-1.2-9.9c-1.6,0.2-3.7,0.9-5.2,2.8L266.4,52.2z M303.4,26.8l-3.6,3.5l0.1,0.1l0.1,0.1L303.4,26.8z
	 M304.2,29.3h-5v5h5V29.3z M309.2,29.6l-2.4,4.4l0.2,0.1l0.2,0.1L309.2,29.6z M310,30.2l-4,3l0.1,0.1l0.1,0.1L310,30.2z M310.4,32.8
	l-4.7-1.6l0,0.1l0,0.1L310.4,32.8z M309.9,33.6l-3.8-3.2l-0.1,0.1l-0.1,0.1L309.9,33.6z M309.2,34.2l2,4.6l0.1-0.1l0.1-0.1
	L309.2,34.2z M304.1,34.4v-5h-5v5H304.1z M303.8,40.1l-4.9-0.7l-0.6,4.2l4.1,1.3L303.8,40.1z M306.7,41.5l-2.9,4.1l0,0l0,0
	L306.7,41.5z M308.9,43.8l-4.3,2.5l0,0l0,0L308.9,43.8z M310.2,47.4l-4.9,0.9l0,0l0,0L310.2,47.4z M310.4,52.6v5h4.7l0.3-4.7
	L310.4,52.6z M304.9,52.6l-5-0.5l-0.6,5.5h5.6V52.6z M304.6,47.8l-4.7,1.7l0,0l0,0L304.6,47.8z M302.5,45.2l2.6-4.3l-5-3l-2.2,5.4
	L302.5,45.2z M299.5,49.8l-3.5-3.5L299.5,49.8z M295.3,52.6l1.8,4.7l0,0l0,0L295.3,52.6z M293.2,52.7l1.4-4.8l-0.1,0l-0.1,0
	L293.2,52.7z M292.3,52.2l2.9-4.1L292.3,52.2z M291.7,51.5l-4.4,2.3l0,0l0,0L291.7,51.5z M291.5,49.8l4.9,1.1l0,0l0,0L291.5,49.8z
	 M292.6,48.3l2.5,4.4l0,0l0,0L292.6,48.3z M295,46.4l3.5,3.6l0,0l0,0L295,46.4z M296.9,43.9l-4.5-2.2l0,0L296.9,43.9z M297.9,40.5
	l-4.9-1l0,0l0,0L297.9,40.5z M298.3,34.4h5v-5h-5V34.4z M293,34.2l-2.4,4.4l0.2,0.1l0.2,0.1L293,34.2z M292.2,33.6l-3.8,3.2l0.1,0.1
	l0.1,0.1L292.2,33.6z M291.7,32.8l-4.8,1.3l0,0.1l0,0.1L291.7,32.8z M291.7,31l-4.7-1.6l0,0.1l0,0.1L291.7,31z M292.2,30.2l3.8,3.2
	l0.1-0.1l0.1-0.1L292.2,30.2z M293,29.6l2,4.6l0.1-0.1l0.1-0.1L293,29.6z M298,29.3v5h5v-5H298z M298.8,26.8l3.5,3.5l0,0L298.8,26.8
	z M313.2,54.3h-5v5h5V54.3z M314.1,26.9l-3.2-3.8l0,0L314.1,26.9z M318.3,26.9l3.2-3.8l0,0L318.3,26.9z M319.2,54.3v5h5v-5H319.2z
	 M301.1,31c0.1,0,0,0-0.3-0.1c-0.3-0.1-0.7-0.3-1-0.7l7.2-6.9c-1.8-1.8-4.1-2.3-5.9-2.3V31z M299.9,30.4c-0.3-0.3-0.5-0.7-0.7-1
	c-0.1-0.3-0.1-0.4-0.1-0.4h10c0-1.9-0.5-4.1-2.3-5.8L299.9,30.4z M299.2,29v0.4h10V29H299.2z M304.2,34.3h3.9v-10h-3.9V34.3z
	 M308,34.3c-0.1,0-0.6,0-1.2-0.3l4.7-8.8c-1.2-0.7-2.5-0.8-3.5-0.8V34.3z M307.2,34.1c-0.4-0.2-0.8-0.5-1.2-0.9l7.9-6.1
	c-0.7-1-1.7-1.7-2.7-2.1L307.2,34.1z M306.1,33.4c-0.3-0.3-0.5-0.7-0.6-1.1l9.7-2.6c-0.3-1-0.7-1.9-1.4-2.7L306.1,33.4z M305.5,32.3
	c0-0.1,0-0.2,0-0.4h10c0-0.8-0.1-1.5-0.3-2.2L305.5,32.3z M305.5,31.9c0-0.3,0-0.5,0.1-0.7l9.5,3.2c0.3-0.8,0.4-1.6,0.4-2.5H305.5z
	 M305.5,31.5c0.1-0.4,0.3-0.8,0.6-1.1l7.7,6.4c0.7-0.8,1.1-1.7,1.4-2.7L305.5,31.5z M305.9,30.6c0.4-0.5,0.8-0.8,1-0.9l4.5,8.9
	c0.9-0.4,1.8-1.1,2.5-2.1L305.9,30.6z M307.2,29.6c0.5-0.2,0.8-0.2,0.9-0.2v10c1,0,2.1-0.2,3.1-0.6L307.2,29.6z M308,29.4h-4v10h4
	V29.4z M299.1,34.4v1.8h10v-1.8H299.1z M299.1,36.2c0,1.2-0.1,2.2-0.2,3.2l9.9,1.5c0.2-1.5,0.3-3,0.3-4.6H299.1z M302.3,44.8
	c0.6,0.2,1.1,0.5,1.6,0.7l5.7-8.2c-1.3-0.9-2.7-1.6-4.3-2.1L302.3,44.8z M303.9,45.6c0.2,0.2,0.5,0.4,0.7,0.8l8.6-5.1
	c-0.9-1.6-2.1-2.9-3.7-4L303.9,45.6z M304.6,46.4c0.2,0.3,0.4,0.9,0.6,1.9l9.8-1.8c-0.3-1.9-0.9-3.7-1.9-5.3L304.6,46.4z
	 M305.3,48.4c0.2,0.9,0.3,2.1,0.2,3.9l10,0.6c0.1-2.3,0.1-4.5-0.3-6.4L305.3,48.4z M310.4,47.6h-5.6v10h5.6V47.6z M309.8,53.1
	c0.3-2.3,0.2-4.8-0.6-7l-9.4,3.4c0.1,0.2,0.2,0.9,0,2.5L309.8,53.1z M309.3,46.2c-0.7-2.1-2.1-4-4.2-5.3l-5.2,8.6c0,0,0,0-0.1-0.1
	c0,0,0,0-0.1-0.1c0,0,0,0,0,0c0,0,0,0.1,0.1,0.1L309.3,46.2z M297.9,43.3c-0.5,1.3-1.2,2.3-1.9,3l7.1,7.1c1.8-1.8,3.1-3.9,4.1-6.3
	L297.9,43.3z M296,46.3c-0.8,0.8-1.6,1.3-2.5,1.6l3.7,9.3c2.2-0.9,4.2-2.2,5.9-3.9L296,46.3z M293.6,47.9c0.2-0.1,0.3-0.1,0.5-0.1
	l0.6,10c0.8,0,1.7-0.2,2.5-0.5L293.6,47.9z M294,47.8c0.2,0,0.4,0,0.6,0.1l-2.8,9.6c0.9,0.3,1.8,0.4,2.7,0.3L294,47.8z M294.4,47.8
	c0.3,0.1,0.6,0.2,0.8,0.4l-5.8,8.1c0.8,0.6,1.7,1,2.7,1.2L294.4,47.8z M295.2,48.2c0.3,0.2,0.6,0.6,0.8,1l-8.8,4.7
	c0.5,1,1.3,1.8,2.2,2.5L295.2,48.2z M296.1,49.2c0.1,0.2,0.2,0.5,0.3,0.9c0,0.3,0,0.6,0,0.8l-9.8-2.2c-0.4,1.7-0.2,3.5,0.6,5.1
	L296.1,49.2z M296.3,50.8c-0.1,0.3-0.2,0.7-0.5,1.1c-0.3,0.4-0.6,0.6-0.8,0.7l-4.9-8.7c-1.8,1-3.1,2.6-3.5,4.8L296.3,50.8z
	 M295.1,52.6c1.3-0.7,2.4-1.6,3.5-2.6l-7-7.2c-0.4,0.4-0.9,0.8-1.5,1.1L295.1,52.6z M298.6,50c1.1-1.1,2-2.4,2.8-3.9l-9-4.4
	c-0.3,0.5-0.5,0.9-0.8,1.2L298.6,50z M301.3,46.1c0.7-1.5,1.2-3,1.5-4.7l-9.8-1.8c-0.2,0.9-0.4,1.6-0.7,2.1L301.3,46.1z M302.8,41.5
	c0.3-1.7,0.5-3.5,0.5-5.5h-10c0,1.4-0.1,2.6-0.3,3.5L302.8,41.5z M303.3,36v-1.6h-10V36H303.3z M298.3,29.4h-4.2v10h4.2V29.4z
	 M294.1,29.4c0,0,0.4,0,0.8,0.2l-4,9.2c1.1,0.5,2.2,0.6,3.2,0.6V29.4z M295.3,29.8c0.2,0.1,0.4,0.2,0.6,0.4l-7.4,6.8
	c0.6,0.7,1.3,1.2,2.1,1.6L295.3,29.8z M296,30.4c0.2,0.2,0.4,0.5,0.5,0.8l-9.5,3.2c0.3,0.9,0.7,1.7,1.4,2.4L296,30.4z M296.6,31.5
	c0,0.1,0,0.2,0,0.4h-10c0,0.7,0.1,1.5,0.3,2.2L296.6,31.5z M296.6,31.9c0,0.1,0,0.3,0,0.4l-9.7-2.6c-0.2,0.7-0.3,1.4-0.3,2.2H296.6z
	 M296.5,32.6c-0.1,0.3-0.2,0.6-0.5,0.8l-7.7-6.4c-0.6,0.7-1.1,1.5-1.4,2.4L296.5,32.6z M296.1,33.2c-0.3,0.5-0.8,0.8-1.2,0.9l-4-9.2
	c-1,0.5-2,1.2-2.7,2.1L296.1,33.2z M295.2,34c-0.5,0.3-1,0.3-1.1,0.3v-10c-1,0-2.2,0.2-3.4,0.8L295.2,34z M294.1,34.3h3.9v-10h-3.9
	V34.3z M303,29.3V29h-10v0.4H303z M303,29c0-0.1,0,0.1-0.1,0.4c-0.1,0.3-0.3,0.7-0.6,1l-7.1-7.1c-1.7,1.7-2.2,3.9-2.2,5.7H303z
	 M302.3,30.3c-0.3,0.3-0.7,0.5-1,0.6c-0.2,0.1-0.4,0.1-0.3,0.1V21c-1.8,0-4.1,0.5-5.8,2.2L302.3,30.3z M318.2,54.3V29.1h-10v25.2
	H318.2z M318.2,29.1c0,0,0,0.2-0.1,0.6c-0.2,0.4-0.4,0.7-0.8,1l-6.4-7.7c-2,1.7-2.7,4-2.7,6.1H318.2z M317.3,30.7
	c-0.1,0.1-0.3,0.2-0.5,0.3c-0.2,0.1-0.4,0.1-0.6,0.1v-10c-1.9,0-3.8,0.6-5.3,1.9L317.3,30.7z M316.2,31.1c-0.1,0-0.3,0-0.6-0.1
	c-0.2-0.1-0.4-0.2-0.5-0.3l6.4-7.7c-1.5-1.3-3.4-1.9-5.3-1.9V31.1z M315.1,30.7c-0.3-0.3-0.6-0.7-0.8-1c-0.1-0.3-0.1-0.6-0.1-0.6h10
	c0-2.1-0.7-4.4-2.7-6.1L315.1,30.7z M314.2,29.1v25.2h10V29.1H314.2z M319.2,49.3h-6v10h6V49.3z M322.9,45.2h-5v5h5V45.2z M323.1,28
	l-4.5-2.1l0,0.1l0,0.1L323.1,28z M323.8,27.1l3.3,3.8l0.1-0.1l0.1-0.1L323.8,27.1z M324.8,26.5l1.6,4.7l0.1,0l0.1,0L324.8,26.5z
	 M327.1,26.5l-1.8,4.7l0.2,0.1l0.2,0L327.1,26.5z M328,27.1l-3.4,3.7l0.1,0.1l0.1,0.1L328,27.1z M328.7,28l-4.6,1.9l0.1,0.2l0.1,0.1
	L328.7,28z M329,45.2v5h5v-5H329z M323.6,47.4l-3.5-3.6l0,0L323.6,47.4z M328.3,47.4l-3.5,3.5l0,0l0,0L328.3,47.4z M328.3,51.8
	l3.5,3.6l0,0l0,0L328.3,51.8z M323.6,51.8l-3.5,3.6L323.6,51.8z M327.9,45.2V29.3h-10v15.9H327.9z M327.9,29.3c0,0.1,0,0.4-0.2,0.8
	l-9.1-4.1c-0.5,1.1-0.7,2.3-0.7,3.3H327.9z M327.6,30.2c-0.1,0.2-0.3,0.4-0.6,0.7l-6.5-7.6c-0.9,0.8-1.5,1.7-2,2.6L327.6,30.2z
	 M327.2,30.8c-0.2,0.2-0.5,0.4-0.9,0.5l-3.2-9.5c-1,0.3-2,0.9-2.8,1.6L327.2,30.8z M326.5,31.2c-0.2,0.1-0.4,0.1-0.6,0.1v-10
	c-1,0-2,0.2-2.9,0.5L326.5,31.2z M326,31.3c-0.2,0-0.5,0-0.7-0.1l3.6-9.3c-0.9-0.4-1.9-0.6-2.9-0.6V31.3z M325.6,31.3
	c-0.3-0.1-0.6-0.3-0.9-0.5l6.8-7.3c-0.8-0.8-1.8-1.3-2.9-1.7L325.6,31.3z M324.9,31c-0.4-0.3-0.7-0.7-0.8-1l9.2-3.9
	c-0.5-1.1-1.2-2.1-2.2-2.9L324.9,31z M324.3,30.3c-0.2-0.5-0.3-0.8-0.3-1h10c0-1.1-0.2-2.3-0.8-3.5L324.3,30.3z M324,29.3v15.9h10
	V29.3H324z M329,40.2h-6.1v10h6.1V40.2z M327.7,49.6c0,0,0,0.2-0.1,0.5c-0.1,0.3-0.3,0.6-0.6,0.9l-6.9-7.2c-1.7,1.7-2.4,3.8-2.4,5.8
	H327.7z M327.1,51c-0.3,0.3-0.6,0.4-0.8,0.5c-0.2,0.1-0.3,0.1-0.3,0.1v-10c-1.9,0-4.1,0.5-5.8,2.2L327.1,51z M326,51.6
	c0.1,0-0.1,0-0.3-0.1c-0.3-0.1-0.6-0.3-0.9-0.5l7.1-7.1c-1.7-1.7-4-2.3-5.9-2.3V51.6z M324.8,51c-0.2-0.2-0.4-0.5-0.6-0.9
	c-0.1-0.3-0.1-0.5-0.1-0.6h10c0-2-0.7-4.1-2.4-5.8L324.8,51z M324.2,49.6c0,0,0-0.2,0.1-0.5c0.1-0.3,0.3-0.6,0.5-0.8l7.1,7.1
	c1.6-1.6,2.3-3.7,2.3-5.8H324.2z M324.8,48.2c0.3-0.3,0.6-0.4,0.8-0.5c0.2-0.1,0.3-0.1,0.3-0.1v10c1.9,0,4.1-0.5,5.8-2.2L324.8,48.2
	z M326,47.6c-0.1,0,0,0,0.3,0.1c0.2,0.1,0.6,0.2,0.8,0.5l-6.9,7.2c1.8,1.7,3.9,2.2,5.8,2.2V47.6z M327.1,48.2
	c0.3,0.3,0.5,0.6,0.6,0.9c0.1,0.3,0.1,0.5,0.1,0.5h-10c0,2,0.6,4.1,2.4,5.8L327.1,48.2z M357.3,29.4l5,0.3l0-0.1l0-0.1L357.3,29.4z
	 M357.2,30.3l4.9,0.7l0,0l0,0L357.2,30.3z M357,31.2l-4.9-1l-1.2,5.9l6,0.1L357,31.2z M360.8,31.9l-1.7,4.7l0,0l0,0L360.8,31.9z
	 M364.1,33.8l-3.3,3.7l0,0l0,0L364.1,33.8z M367.8,41.9v5h5.3l-0.4-5.3L367.8,41.9z M361.7,41.9l-4.9,0.9l0.7,4.1h4.2V41.9z
	 M360.9,39.4l4.4-2.4l0,0L360.9,39.4z M359.4,37.5l-3.3,3.8l0,0l0,0L359.4,37.5z M354.9,36l-0.1-5l-2.4,0.1l-1.5,1.9L354.9,36z
	 M352.5,38.5l-3.2-3.8l0,0l0,0L352.5,38.5z M349.7,40.4l-2.3-4.4l0,0l0,0L349.7,40.4z M341.6,41.4l-3.1,3.9l0.1,0.1l0.1,0.1
	L341.6,41.4z M340.8,39.6l5-0.4l0,0L340.8,39.6z M341.2,37.8l-4-3l0,0l0,0L341.2,37.8z M343,36.8l-0.9-4.9l0,0L343,36.8z
	 M345.8,35.9l2.1,4.5l0,0l0,0L345.8,35.9z M348.3,34.2l-3.3-3.7l0,0l0,0L348.3,34.2z M350.1,31.9l4.3,2.5l0,0l0,0L350.1,31.9z
	 M351.1,28.9l4.9,0.7l0,0L351.1,28.9z M352.2,26.8l2.9,4.1l0,0l0,0L352.2,26.8z M354.5,26.2l0.5-5l0,0l0,0L354.5,26.2z M356.5,27.2
	l-3.7,3.4l0,0l0,0L356.5,27.2z M357.4,48v-5h-5v5H357.4z M357.4,54.4v5h5v-5H357.4z M351.3,54.4h-5v5h5V54.4z M351.3,48h5v-5h-5V48z
	 M340.8,47.3l-4,3l0,0l0,0L340.8,47.3z M340.4,44.7l-4.7-1.6l0,0.1l0,0.1L340.4,44.7z M340.8,43.9l-3.8-3.2L340.8,43.9z M341.6,43.3
	l2,4.6l0,0L341.6,43.3z M367,43.3l-2,4.6l0,0L367,43.3z M367.8,43.9l3.8-3.2L367.8,43.9z M368.2,44.7l-4.8,1.3l0.1,0.2l0.1,0.2
	L368.2,44.7z M367.8,47.3l-3.9-3.1l0,0l0,0L367.8,47.3z M352.3,29.1c0,0.2,0,0.4-0.1,0.6l9.9,1.3c0.1-0.4,0.1-0.8,0.1-1.3
	L352.3,29.1z M352.2,29.6c0,0.2-0.1,0.4-0.1,0.6l9.8,2c0.1-0.4,0.1-0.8,0.2-1.1L352.2,29.6z M356.9,36.2c0.7,0,1.4,0.1,2.1,0.4
	l3.4-9.4c-1.7-0.6-3.5-1-5.4-1L356.9,36.2z M359.2,36.6c0.6,0.2,1.1,0.5,1.6,0.9l6.7-7.4c-1.5-1.3-3.2-2.3-5.1-3L359.2,36.6z
	 M360.8,37.6c0.4,0.4,0.9,0.9,1.3,1.7l9-4.4c-0.9-1.9-2.1-3.5-3.7-4.9L360.8,37.6z M362.1,39.4c0.3,0.6,0.6,1.6,0.7,2.9l10-0.7
	c-0.2-2.3-0.7-4.6-1.7-6.6L362.1,39.4z M367.8,36.9h-6.1v10h6.1V36.9z M366.6,41c-0.2-1.4-0.7-2.7-1.4-4l-8.8,4.8
	c0.1,0.2,0.2,0.5,0.3,1L366.6,41z M365.2,37c-0.7-1.3-1.6-2.4-2.7-3.3l-6.4,7.7c0.1,0.1,0.2,0.2,0.3,0.4L365.2,37z M362.6,33.8
	c-1.1-0.9-2.3-1.7-3.7-2.1l-3.2,9.5c0.2,0.1,0.3,0.1,0.4,0.2L362.6,33.8z M358.9,31.6c-1.4-0.5-2.8-0.7-4.2-0.6l0.2,10
	c0.3,0,0.6,0,0.7,0.1L358.9,31.6z M350.9,33c-0.4,0.6-1,1.1-1.6,1.6l6.4,7.7c1.2-1,2.2-2.1,3.1-3.3L350.9,33z M349.2,34.7
	c-0.6,0.5-1.2,0.9-1.8,1.2l4.6,8.9c1.3-0.7,2.6-1.5,3.7-2.5L349.2,34.7z M347.4,35.9c-0.6,0.3-1.3,0.6-2,0.8l2.6,9.7
	c1.4-0.4,2.8-0.9,4.1-1.6L347.4,35.9z M345.4,36.7c-0.7,0.2-1.3,0.3-1.8,0.3v10c1.5,0,3-0.2,4.4-0.6L345.4,36.7z M343.5,37
	c0.1,0,0.2,0,0.5,0.1c0.2,0.1,0.4,0.2,0.6,0.3l-6,8c1.5,1.1,3.2,1.6,4.9,1.6V37z M344.8,37.5c0.3,0.2,0.5,0.5,0.7,0.9
	c0.2,0.4,0.2,0.7,0.2,0.8l-10,0.8c0.2,1.9,1,3.8,2.7,5.2L344.8,37.5z M345.7,39.2c0,0.1,0,0.4-0.1,0.7c-0.1,0.3-0.2,0.6-0.4,0.8
	l-8.1-5.9c-1.2,1.6-1.6,3.5-1.4,5.2L345.7,39.2z M345.2,40.8c-0.2,0.3-0.5,0.5-0.8,0.7c-0.3,0.2-0.5,0.2-0.6,0.2l-1.8-9.8
	c-1.8,0.3-3.6,1.3-4.9,3L345.2,40.8z M343.9,41.7c1.4-0.3,2.7-0.7,4-1.3l-4.2-9.1c-0.5,0.2-1,0.4-1.6,0.5L343.9,41.7z M347.9,40.4
	c1.3-0.6,2.6-1.5,3.7-2.5l-6.8-7.4c-0.3,0.3-0.7,0.6-1.2,0.8L347.9,40.4z M351.6,37.9c1.2-1,2.1-2.2,2.9-3.6l-8.7-4.9
	c-0.2,0.4-0.5,0.8-0.8,1L351.6,37.9z M354.5,34.3c0.8-1.5,1.3-3,1.6-4.7l-9.9-1.5c-0.1,0.5-0.2,0.9-0.4,1.3L354.5,34.3z M356,29.7
	c0,0,0,0.2-0.2,0.4c-0.2,0.3-0.4,0.6-0.8,0.8l-5.8-8.2c-2,1.4-2.9,3.5-3.2,5.5L356,29.7z M355.2,30.9c-0.2,0.1-0.4,0.2-0.6,0.3
	c-0.2,0.1-0.4,0.1-0.5,0.1l0.7-10c-1.9-0.1-3.8,0.3-5.5,1.5L355.2,30.9z M354,31.2c0,0-0.2,0-0.4-0.1c-0.2-0.1-0.5-0.3-0.7-0.5
	l7.3-6.8c-1.5-1.6-3.4-2.3-5.3-2.5L354,31.2z M352.9,30.6c-0.3-0.3-0.5-0.7-0.6-1c-0.1-0.3-0.1-0.5-0.1-0.4l10,0.4
	c0.1-1.9-0.4-4.1-2.1-5.9L352.9,30.6z M352.4,48v6.4h10V48H352.4z M357.4,49.4h-6.1v10h6.1V49.4z M356.3,54.4V48h-10v6.4H356.3z
	 M351.3,43h-8.5v10h8.5V43z M342.8,43c0,0,0.1,0,0.2,0c0.1,0,0.3,0.1,0.5,0.1c0.4,0.2,0.9,0.5,1.3,1l-7.8,6.2
	c1.7,2.1,4.1,2.6,5.9,2.6V43z M344.8,44.2c0.1,0.2,0.2,0.4,0.3,0.6c0.1,0.3,0.1,0.5,0.1,0.7h-10c0,1.7,0.6,3.3,1.6,4.7L344.8,44.2z
	 M345.3,45.6c0,0.2,0,0.3-0.1,0.5l-9.6-2.7c-0.2,0.7-0.3,1.5-0.3,2.2H345.3z M345.1,46.3c-0.1,0.3-0.2,0.6-0.5,0.8l-7.7-6.4
	c-0.6,0.7-1.1,1.5-1.4,2.4L345.1,46.3z M344.7,47.1c-0.4,0.4-0.8,0.7-1.1,0.8l-4-9.2c-0.9,0.4-1.9,1-2.6,1.9L344.7,47.1z
	 M343.6,47.9c-0.5,0.2-0.8,0.2-0.8,0.2v-10c-0.9,0-2.1,0.1-3.2,0.6L343.6,47.9z M342.8,48.1h23v-10h-23V48.1z M365.8,48.1
	c0,0-0.4,0-0.8-0.2l4-9.2c-1.1-0.5-2.2-0.6-3.2-0.6V48.1z M365,47.9c-0.3-0.1-0.7-0.4-1.1-0.8l7.7-6.4c-0.8-0.9-1.7-1.5-2.6-1.9
	L365,47.9z M363.9,47.1c-0.3-0.3-0.5-0.7-0.6-1.1l9.7-2.6c-0.3-1-0.7-1.9-1.4-2.7L363.9,47.1z M363.5,46.4c-0.1-0.3-0.1-0.5-0.1-0.8
	h10c0-0.9-0.1-1.7-0.4-2.6L363.5,46.4z M363.4,45.6c0-0.2,0-0.5,0.1-0.8c0.1-0.3,0.2-0.5,0.4-0.6l7.8,6.2c1.1-1.4,1.7-3,1.7-4.8
	H363.4z M363.8,44.2c0.4-0.6,0.9-0.9,1.4-1.1c0.2-0.1,0.4-0.1,0.5-0.1c0.1,0,0.2,0,0.2,0v10c1.7,0,4.2-0.5,5.9-2.7L363.8,44.2z
	 M365.8,43h-8.5v10h8.5V43z M376.4,42.5l-1.3,4.8l0,0l0,0L376.4,42.5z M373.9,41.3l-2.9,4.1l0,0l0,0L373.9,41.3z M372.1,39.4
	l-4.4,2.3l0,0.1l0,0.1L372.1,39.4z M372.1,32.8l4.3,2.6l4.5-7.6h-8.8V32.8z M370.4,32.2l-3.9,3.2l0.1,0.1l0.1,0.1L370.4,32.2z
	 M370.4,29.2l-3.9-3.1l0,0l0,0L370.4,29.2z M376.4,28.5v5h4.9l0.1-4.9L376.4,28.5z M377.3,26.5l3.2,3.8l0,0l0,0L377.3,26.5z
	 M381.6,26.5l-3.3,3.7l0,0L381.6,26.5z M382.5,28.5l-5,0.2l0.2,4.8h4.8V28.5z M388.4,29.2l-4.1,2.9l0.1,0.1l0.1,0.1L388.4,29.2z
	 M388.5,32.2l3.9,3.1l0,0l0,0L388.5,32.2z M386.8,32.8v-5H378l4.5,7.6L386.8,32.8z M386.7,39.4l-4.4-2.4l0,0l0,0L386.7,39.4z
	 M385,41.3l2.9,4.1l0,0l0,0L385,41.3z M382.5,42.5l1.2,4.9l0,0l0,0L382.5,42.5z M372.7,48.1l-3.5,3.5l0,0l0,0L372.7,48.1z
	 M372.7,44.7l-3.5-3.6l0,0l0,0L372.7,44.7z M396.3,45l3.7-3.3l0,0L396.3,45z M396.9,46.4l-4.9,0.8l0,0.1l0,0.1L396.9,46.4z
	 M397.1,54.3v5h5v-5H397.1z M391.1,54.3h-5v5h5V54.3z M391.7,26.9l-3.2-3.8l0,0l0,0L391.7,26.9z M395.8,26.9l-3.3,3.8l0,0l0,0
	L395.8,26.9z M396.7,31.8h-5v5h5V31.8z M398.8,32l-2.4,4.4l0,0L398.8,32z M399.5,32.6l4-3l0,0L399.5,32.6z M399.9,33.5l-4.9,1.2l0,0
	l0,0L399.9,33.5z M399.9,35.3l4.8,1.3l0,0l0,0L399.9,35.3z M399.5,36.1l4,3l0.1-0.1l0.1-0.1L399.5,36.1z M398.8,36.7l2.1,4.5l0.1,0
	l0.1,0L398.8,36.7z M396.7,36.9v-5h-5v5H396.7z M396.7,42.9v5h5v-5H396.7z M390.8,42.9h-5v5h5V42.9z M381.1,38l2.9,4.1l0,0l0,0
	L381.1,38z M381.1,33.2l-3,4l0.1,0.1l0.1,0.1L381.1,33.2z M377.7,33.2l2.9,4.1l0,0l0,0L377.7,33.2z M377.7,38l-3,4l0.1,0.1l0.1,0.1
	L377.7,38z M379.4,37.8c-0.7,0-1.3-0.1-1.8-0.2l-2.4,9.7c1.4,0.3,2.8,0.5,4.2,0.5V37.8z M377.7,37.6c-0.5-0.1-0.8-0.3-1-0.4
	l-5.7,8.2c1.2,0.9,2.6,1.5,4.1,1.9L377.7,37.6z M376.8,37.3c-0.1-0.1-0.2-0.2-0.3-0.4l-8.7,4.9c0.8,1.4,1.9,2.6,3.2,3.5L376.8,37.3z
	 M376.6,37c0,0-0.1-0.1-0.1-0.5h-10c0,1.7,0.3,3.5,1.2,5.1L376.6,37z M376.5,36.5v-1.7h-10v1.7H376.5z M376.5,34.8
	c0,0.1,0,0.3-0.1,0.4c0,0.1-0.1,0.2-0.1,0.2l-8.6-5.1c-0.8,1.3-1.3,2.9-1.3,4.5H376.5z M372.1,27.8c0.1,0,0.4,0,0.8,0.2
	c0.4,0.2,0.9,0.4,1.2,0.9l-7.4,6.7c1.6,1.8,3.7,2.3,5.4,2.3V27.8z M374.3,29c0.1,0.2,0.3,0.4,0.4,0.7c0.1,0.3,0.2,0.7,0.2,1h-10
	c0,1.8,0.6,3.4,1.7,4.6L374.3,29z M374.9,30.7c0,0.3-0.1,0.6-0.2,0.9c-0.1,0.3-0.2,0.5-0.4,0.7l-7.9-6.2c-1,1.3-1.6,2.8-1.6,4.6
	H374.9z M374.3,32.3c-0.3,0.4-0.8,0.7-1.2,1c-0.5,0.2-0.8,0.2-1,0.2v-10c-1.9,0-4.1,0.7-5.6,2.6L374.3,32.3z M372.1,33.5h4.3v-10
	h-4.3V33.5z M381.4,28.6c0,0.1,0,0.3-0.2,0.7c-0.2,0.4-0.4,0.7-0.7,1l-6.5-7.6c-1.9,1.6-2.6,3.7-2.6,5.7L381.4,28.6z M380.6,30.3
	c-0.3,0.2-0.5,0.4-0.8,0.5c-0.2,0.1-0.4,0.1-0.4,0.1v-10c-1.8,0-3.8,0.5-5.5,2L380.6,30.3z M379.4,30.8c0,0-0.1,0-0.4-0.1
	c-0.2-0.1-0.5-0.2-0.8-0.5l6.6-7.5c-1.7-1.5-3.7-2-5.5-2V30.8z M378.3,30.3c-0.3-0.2-0.5-0.5-0.6-0.9c-0.1-0.3-0.2-0.6-0.2-0.6
	l10-0.5c-0.1-1.9-0.8-4-2.5-5.5L378.3,30.3z M382.5,33.5h4.3v-10h-4.3V33.5z M386.8,33.5c-0.1,0-0.5,0-1-0.2c-0.5-0.2-1-0.6-1.4-1.2
	l8.2-5.8c-1.5-2.2-3.9-2.8-5.7-2.8V33.5z M384.5,32.3c-0.1-0.1-0.3-0.4-0.4-0.7c-0.1-0.3-0.2-0.6-0.2-0.9h10c0-1.8-0.6-3.3-1.6-4.6
	L384.5,32.3z M384,30.7c0-0.3,0-0.6,0.1-0.9c0.1-0.3,0.2-0.5,0.4-0.7l7.9,6.1c1-1.3,1.6-2.8,1.6-4.5H384z M384.6,29.1
	c0.4-0.5,1-0.9,1.4-1.1c0.4-0.2,0.7-0.2,0.8-0.2v10c1.6,0,3.9-0.5,5.5-2.5L384.6,29.1z M386.8,27.8L386.8,27.8l0,10h0V27.8z
	 M382.5,35.4c0,0,0-0.1-0.1-0.2c0-0.1-0.1-0.2-0.1-0.4h10c0-1.7-0.5-3.2-1.3-4.5L382.5,35.4z M382.3,34.8v1.7h10v-1.7H382.3z
	 M382.3,36.5c0,0.2,0,0.3,0,0.4c0,0.1,0,0.1,0,0l8.8,4.8c0.9-1.7,1.3-3.5,1.3-5.2H382.3z M382.3,37c-0.1,0.1-0.1,0.2-0.2,0.3
	l5.9,8.1c1.3-1,2.4-2.2,3.2-3.6L382.3,37z M382.1,37.2c-0.2,0.1-0.5,0.3-1,0.4l2.6,9.7c1.4-0.4,2.8-1,4.1-1.9L382.1,37.2z
	 M381.2,37.6c-0.5,0.1-1.1,0.2-1.8,0.2v10c1.4,0,2.9-0.2,4.2-0.5L381.2,37.6z M374.7,43.7c0,0,0.2,0,0.5,0.1c0.3,0.1,0.7,0.3,1,0.6
	l-6.9,7.2c1.7,1.6,3.7,2,5.4,2V43.7z M376.3,44.5c0.3,0.3,0.5,0.6,0.6,1c0.1,0.4,0.2,0.7,0.2,0.8h-10c0,1.8,0.6,3.7,2.1,5.2
	L376.3,44.5z M377.1,46.4c0,0.2,0,0.5-0.2,0.8c-0.1,0.4-0.4,0.7-0.6,1l-7.1-7.1c-1.5,1.5-2.1,3.4-2.1,5.2H377.1z M376.2,48.3
	c-0.3,0.3-0.7,0.5-1,0.6c-0.3,0.1-0.5,0.1-0.5,0.1V39c-1.7,0-3.7,0.5-5.4,2L376.2,48.3z M374.7,49h17.9V39h-17.9V49z M392.6,49
	c0.4,0,0.6,0,0.8,0c0.1,0,0.2,0,0.2,0c0.1,0,0.1,0,0.1,0l2.3-9.7c-1.1-0.3-2.3-0.3-3.5-0.3V49z M393.7,49.1c-0.2,0-0.7-0.2-1.2-0.8
	l7.5-6.6c-1.1-1.3-2.6-2-3.9-2.3L393.7,49.1z M392.5,48.3c-0.5-0.5-0.6-1-0.6-1.1l9.9-1.6c-0.2-1.3-0.7-2.7-1.8-3.9L392.5,48.3z
	 M392,47.4c0,0.1,0.1,0.5,0.1,1.2h10c0-1.1-0.1-2.2-0.3-3.2L392,47.4z M392.1,48.6v5.7h10v-5.7H392.1z M397.1,49.3h-6v10h6V49.3z
	 M396.1,54.3v-4.8h-10v4.8H396.1z M396.1,49.5c0-1-0.3-2.7-1.6-4.1c-1.4-1.4-3.1-1.6-4.1-1.6v10c-0.5,0-1.8-0.1-3-1.3
	s-1.3-2.5-1.3-3H396.1z M390.3,43.7h-15.7v10h15.7V43.7z M395.8,29.1C395.8,29.1,395.8,29.1,395.8,29.1c0,0.1,0,0.1,0,0.1
	c0,0.1,0,0.2-0.1,0.4c-0.1,0.4-0.4,0.7-0.7,1l-6.5-7.6c-2,1.7-2.6,4-2.6,6H395.8z M394.9,30.7c-0.1,0.1-0.3,0.2-0.5,0.3
	c-0.2,0.1-0.4,0.1-0.6,0.1v-10c-1.9,0-3.8,0.6-5.3,1.9L394.9,30.7z M393.8,31.1c-0.2,0-0.4,0-0.7-0.1c-0.2-0.1-0.4-0.2-0.5-0.3
	l6.5-7.6c-1.5-1.3-3.3-2-5.3-2V31.1z M392.6,30.7c-0.3-0.3-0.6-0.6-0.7-1c-0.1-0.4-0.2-0.6-0.2-0.6h10c0-2.1-0.7-4.4-2.7-6
	L392.6,30.7z M391.7,29.1v2.7h10v-2.7H391.7z M396.7,36.8h0.9v-10h-0.9V36.8z M397.7,36.8c-0.1,0-0.6,0-1.2-0.3l4.7-8.8
	c-1.2-0.7-2.5-0.8-3.5-0.8V36.8z M396.4,36.4c-0.3-0.1-0.6-0.4-0.9-0.8l8-6c-0.7-0.9-1.5-1.6-2.4-2L396.4,36.4z M395.5,35.6
	c-0.3-0.3-0.4-0.7-0.5-0.9l9.7-2.4c-0.2-0.9-0.6-1.8-1.2-2.6L395.5,35.6z M395.1,34.7c0-0.1,0-0.2,0-0.4h10c0-0.7-0.1-1.5-0.3-2.2
	L395.1,34.7z M395,34.4c0-0.1,0-0.2,0-0.3l9.7,2.4c0.2-0.7,0.3-1.4,0.3-2.1H395z M395.1,34c0.1-0.3,0.2-0.5,0.3-0.7l8.2,5.7
	c0.5-0.7,0.9-1.5,1.1-2.4L395.1,34z M395.5,33.1c0.4-0.5,0.8-0.8,1-0.9l4.5,8.9c0.9-0.4,1.8-1.1,2.5-2.1L395.5,33.1z M396.7,32.2
	c0.5-0.3,0.9-0.3,1-0.3v10c0.9,0,2.1-0.1,3.2-0.7L396.7,32.2z M397.7,31.9h-0.9v10h0.9V31.9z M391.7,36.9v6h10v-6H391.7z
	 M396.7,37.9h-5.9v10h5.9V37.9z M395.8,42.9V29.1h-10v13.9H395.8z M379.4,43.6c1.7,0,3.2-0.5,4.6-1.5l-5.8-8.1
	c0.2-0.1,0.4-0.2,0.6-0.3c0.2-0.1,0.5-0.1,0.6-0.1V43.6z M384.1,42.1c2-1.4,2.8-3.6,2.8-5.7h-10c0-0.2,0-0.7,0.3-1.2
	c0.2-0.5,0.6-0.9,1-1.2L384.1,42.1z M386.9,36.4v-1.6h-10v1.6H386.9z M386.9,34.8c0-2.1-0.9-4.3-2.9-5.7l-5.7,8.2
	c-0.4-0.3-0.8-0.7-1.1-1.3c-0.3-0.5-0.3-1-0.3-1.2H386.9z M384.1,29.2c-1.4-1-3-1.6-4.7-1.6v10c-0.2,0-0.5,0-0.7-0.1
	c-0.3-0.1-0.5-0.2-0.6-0.3L384.1,29.2z M379.4,27.6c-1.7,0-3.3,0.6-4.7,1.5l5.9,8.1c-0.1,0.1-0.3,0.2-0.6,0.3
	c-0.2,0.1-0.5,0.1-0.7,0.1V27.6z M374.8,29.1c-2,1.5-2.8,3.7-2.8,5.7h10c0,0.2,0,0.6-0.3,1.2c-0.2,0.5-0.6,1-1.1,1.3L374.8,29.1z
	 M372,34.8v1.6h10v-1.6H372z M372,36.4c0,2,0.8,4.2,2.7,5.6l6.1-8c0.4,0.3,0.7,0.7,1,1.2c0.2,0.5,0.3,0.9,0.3,1.1H372z M374.9,42.1
	c1.3,0.9,2.9,1.4,4.6,1.4v-10c0.2,0,0.4,0,0.6,0.1c0.2,0.1,0.4,0.2,0.5,0.3L374.9,42.1z M419.7,39.6v5h5v-5H419.7z M419.7,37.9h5v-5
	h-5V37.9z M412,37.7l-1.4,4.8l0.1,0l0.1,0L412,37.7z M410.7,36.9l-3.7,3.3l0.1,0.1l0.1,0.1L410.7,36.9z M410.1,35.6l-4.9,0.8l0,0.1
	l0,0.1L410.1,35.6z M410.1,28.9l-4.9-1l0,0.1l0,0.1L410.1,28.9z M410.7,27.5l-3.7-3.3l0,0l0,0L410.7,27.5z M412,26.7l-1.2-4.9l0,0
	L412,26.7z M433.5,26.7l1.2-4.9l0,0L433.5,26.7z M434.7,27.5l-3.8,3.2l0.1,0.1l0.1,0.1L434.7,27.5z M435.4,28.9l-4.9,0.8l0,0.1
	l0,0.1L435.4,28.9z M435.6,37.9v5h5v-5H435.6z M425.7,37.9v-5h-5v5H425.7z M425.7,39.6h-5v5h5V39.6z M436.2,40.4l-4,3l0.1,0.2
	l0.2,0.2L436.2,40.4z M436.6,41.2l4.8-1.4l0,0L436.6,41.2z M436.6,42.8l-4.7-1.7l-0.1,0.2l0,0.2L436.6,42.8z M436.2,43.6l3.9,3.2
	l0,0L436.2,43.6z M435.5,44.1l-2.1-4.5L435.5,44.1z M409.9,44.1l-2.1,4.5L409.9,44.1z M409.2,43.6l-3.9,3.2l0,0L409.2,43.6z
	 M408.8,42.8l-4.8,1.4l0,0.2l0.1,0.2L408.8,42.8z M408.8,41.2l-4.8-1.4l0,0L408.8,41.2z M409.2,40.4l-3.8-3.2l0,0l0,0L409.2,40.4z
	 M409.9,39.8l-2.1-4.5L409.9,39.8z M412.4,54l1.4-4.8l-0.1,0l-0.1,0L412.4,54z M411,53.3l3.6-3.4l0,0L411,53.3z M410.4,52l-4.9,1
	l0,0.1l0,0.1L410.4,52z M415.4,45.9l-3.1,3.9l0,0l0,0L415.4,45.9z M416.5,49.6l-1.9,4.6l0.4,0.2l0.4,0.1L416.5,49.6z M435.3,50.3
	l-3.9,3.1l0,0l0,0L435.3,50.3z M435.2,53.6l-3.8-3.3l-0.1,0.1l-0.1,0.1L435.2,53.6z M416,33.4l-4.3,2.5l0.2,0.4l0.3,0.3L416,33.4z
	 M429.6,33.6v5h5v-5H429.6z M429.4,31.1l-4.1,2.9l0.1,0.2l0.1,0.1L429.4,31.1z M416,31.1l-4.1-2.9l0,0.1l0,0.1L416,31.1z
	 M424.7,39.6v-1.7h-10v1.7H424.7z M419.7,32.9h-5.5v10h5.5V32.9z M414.2,32.9c-0.3,0-0.6,0-0.7,0c-0.2,0-0.2,0-0.2,0l-2.4,9.7
	c1.1,0.3,2.3,0.4,3.4,0.4V32.9z M413.4,32.9c0.1,0,0.5,0.2,0.9,0.6l-7.3,6.9c1.1,1.1,2.4,1.8,3.6,2.1L413.4,32.9z M414.4,33.6
	c0.4,0.5,0.5,0.9,0.5,0.9l-9.8,2c0.2,1.2,0.8,2.5,1.8,3.7L414.4,33.6z M415,34.7c0-0.2-0.1-0.6-0.1-1.3h-10c0,1,0.1,2.1,0.2,3
	L415,34.7z M414.9,33.4V31h-10v2.3H414.9z M414.9,31c0-0.7,0-1.1,0.1-1.3l-9.9-1.7c-0.2,1-0.2,2-0.2,3H414.9z M415,29.9
	c0,0-0.1,0.4-0.5,0.9l-7.5-6.6c-1,1.2-1.5,2.5-1.8,3.7L415,29.9z M414.4,30.8c-0.5,0.5-1,0.7-1.2,0.8l-2.4-9.7
	c-1.3,0.3-2.7,1-3.8,2.3L414.4,30.8z M413.2,31.6c0,0,0.1,0,0.2,0c0.2,0,0.4,0,0.7,0v-10c-1.1,0-2.3,0.1-3.4,0.4L413.2,31.6z
	 M414.2,31.5h17.1v-10h-17.1V31.5z M431.3,31.5c0.3,0,0.6,0,0.7,0c0.2,0,0.2,0,0.2,0l2.4-9.7c-1.1-0.3-2.3-0.4-3.4-0.4V31.5z
	 M432.2,31.6c-0.2-0.1-0.8-0.3-1.3-0.9l7.7-6.4c-1.1-1.3-2.6-2.1-3.9-2.4L432.2,31.6z M431.1,30.9c-0.5-0.5-0.6-1.1-0.7-1.2l9.9-1.7
	c-0.2-1.3-0.8-2.7-1.9-4L431.1,30.9z M430.5,29.9c0,0.1,0.1,0.5,0.1,1.1h10c0-1.1-0.1-2.1-0.3-3.2L430.5,29.9z M430.6,31v6.9h10V31
	H430.6z M435.6,32.9h-9.8v10h9.8V32.9z M420.7,37.9v1.7h10v-1.7H420.7z M425.7,44.6h8.7v-10h-8.7V44.6z M434.4,44.6
	c-0.1,0-0.5,0-1-0.3l4.2-9.1c-1.1-0.5-2.2-0.7-3.2-0.7V44.6z M433.4,44.4c-0.4-0.2-0.8-0.5-1.2-1l8-6c-0.7-1-1.6-1.6-2.6-2.1
	L433.4,44.4z M432.5,43.8c-0.3-0.3-0.6-0.8-0.7-1.2l9.6-2.7c-0.3-1-0.8-2-1.5-2.7L432.5,43.8z M431.8,42.5c0-0.1-0.1-0.3-0.1-0.5h10
	c0-0.8-0.1-1.5-0.3-2.2L431.8,42.5z M431.8,42c0-0.3,0.1-0.6,0.1-0.8l9.4,3.4c0.3-0.8,0.4-1.6,0.4-2.5H431.8z M431.8,41.5
	c0.1-0.4,0.3-0.7,0.5-1l7.7,6.3c0.6-0.8,1.1-1.6,1.3-2.5L431.8,41.5z M432.3,40.4c0.4-0.4,0.8-0.7,1-0.8l4.2,9.1
	c0.9-0.4,1.7-1,2.5-1.9L432.3,40.4z M433.4,39.6c0.5-0.2,0.9-0.3,1-0.3v10c1,0,2.1-0.2,3.2-0.7L433.4,39.6z M434.4,39.3H411v10h23.4
	V39.3z M411,39.3c0.1,0,0.5,0,1,0.3l-4.2,9.1c1.1,0.5,2.2,0.7,3.2,0.7V39.3z M412.1,39.6c0.3,0.1,0.7,0.4,1,0.8l-7.7,6.3
	c0.7,0.9,1.6,1.5,2.5,1.9L412.1,39.6z M413.1,40.4c0.2,0.2,0.3,0.5,0.4,0.7l-9.4,3.4c0.3,0.8,0.7,1.6,1.3,2.2L413.1,40.4z
	 M413.6,41.5c0,0.1,0.1,0.3,0.1,0.5h-10c0,0.8,0.1,1.5,0.3,2.2L413.6,41.5z M413.7,42c0,0.2,0,0.4-0.1,0.5l-9.6-2.7
	c-0.2,0.7-0.3,1.5-0.3,2.2H413.7z M413.6,42.5c-0.1,0.4-0.3,0.7-0.5,1l-7.7-6.3c-0.6,0.8-1.1,1.6-1.3,2.5L413.6,42.5z M413,43.6
	c-0.3,0.4-0.7,0.6-1,0.8l-4.2-9.1c-0.9,0.4-1.8,1.1-2.5,1.9L413,43.6z M412.1,44.4c-0.5,0.2-0.9,0.3-1,0.3v-10c-1,0-2.1,0.2-3.2,0.7
	L412.1,44.4z M411,44.6h8.7v-10H411V44.6z M414.5,49.3c-0.3,0-0.5,0-0.6,0c-0.1,0-0.2,0-0.1,0l-2.7,9.6c1.2,0.3,2.4,0.4,3.5,0.4
	V49.3z M413.6,49.2c0.1,0,0.6,0.2,1.1,0.7l-7.3,6.9c1.1,1.2,2.5,1.8,3.7,2.1L413.6,49.2z M414.7,49.9c0.4,0.4,0.5,0.7,0.5,0.9
	l-9.7,2.5c0.3,1.2,0.9,2.4,1.9,3.5L414.7,49.9z M415.2,51c0-0.1-0.1-0.4-0.1-1h-10c0,1,0.1,2.1,0.3,3.1L415.2,51z M415.2,49.9v-1.8
	h-10v1.8H415.2z M415.2,48.1c0,0,0,0.2-0.2,0.6c-0.2,0.4-0.5,0.9-0.9,1.2l-6-8c-2.3,1.7-3,4.2-3,6.2H415.2z M414.1,49.9
	c-0.1,0.1-0.3,0.2-0.5,0.2c-0.2,0.1-0.3,0.1-0.3,0.1v-10c-1.8,0-3.6,0.5-5.2,1.7L414.1,49.9z M413.3,50.2c0,0-0.2,0-0.4-0.1
	c-0.2-0.1-0.4-0.2-0.6-0.3l6.2-7.8c-1.6-1.3-3.4-1.8-5.2-1.8V50.2z M412.4,49.8c-0.4-0.3-0.8-0.8-0.9-1.2c-0.1-0.4-0.1-0.6-0.1-0.6
	h10c0-2-0.6-4.5-2.9-6.2L412.4,49.8z M411.3,48.1V49h10v-0.9H411.3z M411.3,49c0,0.3,0,1,0.2,1.7c0.1,0.4,0.7,2.6,3.1,3.5l3.7-9.3
	c1.2,0.5,1.9,1.3,2.3,1.9c0.4,0.6,0.5,1.1,0.6,1.3c0.1,0.3,0.1,0.5,0.1,0.6c0,0.1,0,0.2,0,0.2H411.3z M415.5,54.5
	c0.7,0.1,1.4,0.1,1.6,0.1v-10c-0.1,0-0.1,0-0.1,0c0,0-0.1,0,0,0c0,0,0,0,0,0c0,0,0,0,0.1,0c0,0,0.1,0,0.1,0c0.1,0,0.2,0,0.3,0
	L415.5,54.5z M417.1,54.6h16.2v-10h-16.2V54.6z M433.3,54.6c0.1,0-0.2,0-0.6-0.1c-0.4-0.2-1-0.5-1.4-1l7.8-6.2
	c-1.7-2.2-4.2-2.6-5.9-2.6V54.6z M431.4,53.5c-0.2-0.2-0.3-0.4-0.4-0.8c-0.1-0.3-0.2-0.6-0.2-0.8h10c0-1.8-0.6-3.4-1.7-4.8
	L431.4,53.5z M430.8,51.9c0-0.2,0-0.5,0.2-0.9c0.1-0.3,0.3-0.6,0.5-0.8l7.5,6.6c1.2-1.4,1.8-3.1,1.8-4.9H430.8z M431.3,50.5
	c0.4-0.6,1-0.9,1.4-1c0.4-0.1,0.6-0.1,0.6-0.1v10c1.7,0,4.1-0.5,5.8-2.6L431.3,50.5z M433.3,49.3h-18.8v10h18.8V49.3z M410.9,32.7
	c0,0.5,0,1.8,0.8,3.1l8.7-5c0.3,0.6,0.4,1.1,0.5,1.3c0,0.3,0.1,0.4,0.1,0.5H410.9z M412.2,36.6c1.6,2,3.9,2,4.4,2v-10
	c0.1,0,0.5,0,1.1,0.2c0.5,0.2,1.4,0.5,2.2,1.5L412.2,36.6z M416.6,38.6h13v-10h-13V38.6z M434.6,33.6v-1.9h-10v1.9H434.6z
	 M434.6,31.7c0-0.6-0.1-2.3-1.3-3.8l-7.7,6.4c-0.6-0.7-0.8-1.3-0.9-1.7c-0.1-0.4-0.1-0.7-0.1-0.9H434.6z M433.5,28.2
	c-1.6-2.2-3.9-2.3-4.7-2.3v10c-0.2,0-0.7,0-1.3-0.2c-0.6-0.2-1.5-0.7-2.2-1.7L433.5,28.2z M428.8,25.9h-12.2v10h12.2V25.9z
	 M416.6,25.9c-0.7,0-3.1,0.1-4.7,2.3l8.1,5.8c-0.7,0.9-1.5,1.4-2.2,1.7c-0.6,0.2-1.1,0.2-1.3,0.2V25.9z M411.9,28.3
	c-0.9,1.4-1,2.9-1,3.4h10c0,0.1,0,0.3-0.1,0.6c-0.1,0.3-0.2,0.9-0.7,1.6L411.9,28.3z M410.9,31.7v1.1h10v-1.1H410.9z M455.7,29.7
	l-5-0.2l0,0l0,0L455.7,29.7z M455.3,32.5l-4.8-1.3l-1.7,6.1l6.4,0.2L455.3,32.5z M459.1,33.2l-1.7,4.7l0,0L459.1,33.2z M462.4,35.3
	l3.4-3.7l0,0L462.4,35.3z M464.9,38.8l-4.5,2.1l0,0l0,0L464.9,38.8z M466.2,43.8v5h5.4l-0.4-5.4L466.2,43.8z M460.1,43.8l-5,0.7
	l0.6,4.3h4.4V43.8z M459.2,41l-4.5,2.3l0,0l0,0L459.2,41z M457.6,39l-3.4,3.7l0.1,0.1l0.1,0.1L457.6,39z M455.5,37.7l1.7-4.7l0,0
	L455.5,37.7z M453,37.3l-0.1-5l-2.5,0.1l-1.5,2L453,37.3z M447.9,41.9l-2.5-4.3l0,0l0,0L447.9,41.9z M445,43.2l-1.5-4.8l0,0l0,0
	L445,43.2z M442,43.8l-0.1-5l0,0l0,0L442,43.8z M440.1,43.2l-3.1,3.9l0,0l0,0L440.1,43.2z M439.2,41.4l5-0.5l0,0l0,0L439.2,41.4z
	 M439.6,39.5l-4.1-2.9L439.6,39.5z M441.3,38.5l1,4.9l0,0l0,0L441.3,38.5z M444.2,37.4l-2.4-4.4l0,0l0,0L444.2,37.4z M446.7,35.4
	l3.6,3.4l0,0l0,0L446.7,35.4z M448.5,32.7l4.5,2.2L448.5,32.7z M449.5,29.2l5,0.6l0,0L449.5,29.2z M450.7,27.1l2.8,4.1l0,0l0,0
	L450.7,27.1z M452.9,26.5l0.5-5l0,0l0,0L452.9,26.5z M465.3,48.8l-2.2,4.5l0.2,0.1l0.2,0.1L465.3,48.8z M466.2,49.4l-3.8,3.2
	l0.1,0.1l0.1,0.1L466.2,49.4z M466.6,50.3l-4.9,1.2l0,0.2l0.1,0.2L466.6,50.3z M466.6,52.1l-4.7-1.6L466.6,52.1z M466.1,52.9
	l-3.7-3.4l-0.1,0.1l-0.1,0.1L466.1,52.9z M465.3,53.5l2,4.6l0,0L465.3,53.5z M439.3,52.9l-3.8,3.2l0.1,0.1l0.1,0.1L439.3,52.9z
	 M438.8,52.1l-4.7,1.6L438.8,52.1z M438.8,50.3l-4.8-1.5l0,0.1l0,0.1L438.8,50.3z M439.2,49.4l-3.7-3.4l-0.1,0.1l-0.1,0.1
	L439.2,49.4z M440.1,48.8l2,4.6l0.1,0l0.1,0L440.1,48.8z M450.8,29.6c0,0.5-0.1,1-0.2,1.5l9.6,2.7c0.4-1.3,0.6-2.6,0.6-4L450.8,29.6
	z M455.2,37.5c0.7,0,1.4,0.2,2.2,0.4l3.5-9.4c-1.7-0.6-3.5-1-5.3-1.1L455.2,37.5z M457.3,37.9c0.6,0.2,1.2,0.6,1.7,1.1l6.8-7.4
	c-1.5-1.3-3.1-2.4-5-3.1L457.3,37.9z M459.1,39c0.5,0.4,0.9,1,1.4,1.9l9-4.3c-0.9-1.9-2.1-3.6-3.6-5L459.1,39z M460.4,41
	c0.3,0.7,0.6,1.7,0.7,3.2l10-0.7c-0.2-2.4-0.7-4.7-1.7-6.8L460.4,41z M466.2,38.8h-6.1v10h6.1V38.8z M465,43.1
	c-0.2-1.5-0.6-3-1.4-4.4l-8.9,4.6c0.1,0.2,0.2,0.6,0.3,1.1L465,43.1z M463.7,38.7c-0.7-1.4-1.6-2.6-2.8-3.6l-6.4,7.6
	c0.1,0.1,0.2,0.2,0.4,0.5L463.7,38.7z M461,35.3c-1.1-1-2.4-1.8-3.8-2.3l-3.3,9.4c0.2,0.1,0.3,0.1,0.4,0.3L461,35.3z M457.2,33
	c-1.4-0.5-2.9-0.7-4.3-0.7l0.2,10c0.3,0,0.6,0,0.8,0.1L457.2,33z M448.9,34.4c-0.5,0.7-1,1.3-1.6,1.8l6.7,7.4c1.1-1,2.1-2.1,3-3.4
	L448.9,34.4z M447.3,36.2c-0.6,0.6-1.2,1-1.9,1.4l5,8.6c1.3-0.7,2.5-1.6,3.6-2.6L447.3,36.2z M445.4,37.6c-0.6,0.4-1.2,0.6-1.9,0.8
	l3,9.5c1.4-0.4,2.7-1,4-1.8L445.4,37.6z M443.5,38.5c-0.6,0.2-1.1,0.3-1.5,0.3l0.2,10c1.5,0,3-0.3,4.4-0.7L443.5,38.5z M441.9,38.8
	c0.1,0,0.3,0,0.5,0.1c0.2,0.1,0.5,0.2,0.7,0.3l-6,8c1.5,1.1,3.3,1.6,5,1.6L441.9,38.8z M443.2,39.2c0.3,0.2,0.5,0.5,0.7,0.8
	c0.2,0.3,0.2,0.6,0.3,0.8l-9.9,1.1c0.2,2,1.1,3.8,2.8,5.1L443.2,39.2z M444.1,40.9c0,0.1,0,0.4-0.1,0.7c-0.1,0.3-0.2,0.6-0.4,0.8
	l-8.2-5.8c-1.2,1.6-1.5,3.5-1.3,5.3L444.1,40.9z M443.7,42.4c-0.2,0.3-0.5,0.5-0.8,0.7c-0.3,0.2-0.5,0.2-0.6,0.2l-2.1-9.8
	c-1.8,0.4-3.5,1.3-4.8,3.1L443.7,42.4z M442.4,43.4c1.5-0.3,2.9-0.9,4.2-1.6l-4.9-8.7c-0.5,0.3-1,0.5-1.5,0.6L442.4,43.4z
	 M446.6,41.8c1.4-0.8,2.6-1.7,3.7-2.9l-7.3-6.9c-0.4,0.4-0.8,0.7-1.3,1L446.6,41.8z M450.4,38.8c1.1-1.2,2-2.5,2.7-4l-9-4.3
	c-0.3,0.6-0.6,1.1-1,1.5L450.4,38.8z M453.1,34.8c0.8-1.6,1.2-3.2,1.4-5l-9.9-1.3c-0.1,0.8-0.3,1.4-0.5,1.9L453.1,34.8z M454.5,29.9
	c0,0,0,0.2-0.2,0.5c-0.2,0.3-0.5,0.6-0.8,0.9l-5.7-8.2c-2.1,1.4-3,3.6-3.3,5.6L454.5,29.9z M453.5,31.2c-0.1,0.1-0.3,0.2-0.5,0.2
	c-0.2,0.1-0.4,0.1-0.5,0.1l0.7-10c-1.9-0.1-3.8,0.3-5.5,1.5L453.5,31.2z M452.5,31.5c0,0-0.2,0-0.4-0.1c-0.2-0.1-0.5-0.3-0.7-0.5
	l7.2-6.9c-1.5-1.6-3.4-2.3-5.2-2.4L452.5,31.5z M451.4,30.9c-0.3-0.3-0.5-0.7-0.6-1c-0.1-0.3-0.1-0.5-0.1-0.4l10,0.4
	c0.1-1.9-0.4-4.1-2.1-5.9L451.4,30.9z M464.2,53.6c-0.1,0-0.5,0-1.1-0.3l4.5-8.9c-1.2-0.6-2.4-0.8-3.4-0.8V53.6z M463.4,53.5
	c-0.3-0.1-0.7-0.4-1.1-0.9l7.7-6.4c-0.8-1-1.8-1.6-2.7-2L463.4,53.5z M462.5,52.8c-0.4-0.4-0.6-0.8-0.7-1.3l9.7-2.4
	c-0.3-1.1-0.8-2.1-1.6-3L462.5,52.8z M461.9,51.8c-0.1-0.2-0.1-0.4-0.1-0.7h10c0-0.9-0.1-1.7-0.4-2.5L461.9,51.8z M461.8,51.2
	c0-0.2,0-0.4,0.1-0.7l9.5,3.2c0.3-0.8,0.4-1.7,0.4-2.5H461.8z M461.9,50.5c0.1-0.4,0.3-0.7,0.6-1l7.4,6.8c0.7-0.7,1.2-1.6,1.5-2.6
	L461.9,50.5z M462.3,49.7c0.4-0.4,0.8-0.7,1.1-0.8l4,9.2c0.9-0.4,1.9-1,2.6-1.9L462.3,49.7z M463.3,48.9c0.5-0.2,0.8-0.2,0.8-0.2v10
	c0.9,0,2.1-0.1,3.2-0.6L463.3,48.9z M464.2,48.7h-22.9v10h22.9V48.7z M441.3,48.7c0,0,0.4,0,0.8,0.2l-4,9.2c1.1,0.5,2.2,0.6,3.2,0.6
	V48.7z M442.1,48.9c0.3,0.1,0.6,0.3,0.9,0.6l-7.4,6.8c0.7,0.8,1.6,1.4,2.5,1.8L442.1,48.9z M443.1,49.7c0.2,0.2,0.4,0.5,0.5,0.8
	l-9.5,3.2c0.3,0.9,0.7,1.7,1.4,2.4L443.1,49.7z M443.6,50.5c0.1,0.2,0.1,0.4,0.1,0.7h-10c0,0.9,0.1,1.7,0.4,2.5L443.6,50.5z
	 M443.7,51.2c0,0.2,0,0.3,0,0.4L434,49c-0.2,0.7-0.3,1.4-0.3,2.2H443.7z M443.6,51.8c-0.1,0.3-0.2,0.6-0.5,0.9l-7.7-6.4
	c-0.6,0.8-1.1,1.7-1.4,2.5L443.6,51.8z M442.9,52.8c-0.3,0.3-0.6,0.5-0.9,0.6l-4-9.2c-0.9,0.4-1.8,1-2.5,1.8L442.9,52.8z
	 M442.2,53.4c-0.5,0.2-0.8,0.2-0.9,0.2v-10c-1,0-2.2,0.2-3.3,0.7L442.2,53.4z M441.3,53.6h22.9v-10h-22.9V53.6z M471.9,52.9L473,48
	L471.9,52.9z M470.4,52.1l-3.6,3.4l0,0L470.4,52.1z M469.8,50.7l4.9-1l0,0L469.8,50.7z M469.8,29.5l-4.9-1l0,0L469.8,29.5z
	 M470.4,28.1l-3.6-3.4l0,0L470.4,28.1z M471.9,27.4l1,4.9l0.1,0l0.1,0L471.9,27.4z M484.7,27.4l-2.5,4.3l0.1,0l0.1,0L484.7,27.4z
	 M485.4,28l-4.2,2.8l0.1,0.1l0.1,0.1L485.4,28z M485.7,28.8l-4.9,1l0,0.2l0,0.2L485.7,28.8z M485.7,30.6l-4.8-1.3l0,0.2l0,0.2
	L485.7,30.6z M484.7,32l-2.4-4.4l-0.1,0l-0.1,0L484.7,32z M475.7,32.4l-3.5-3.5l0,0L475.7,32.4z M475.5,37.5h-5v5h5V37.5z
	 M483.7,38.3l-4,3l0.1,0.2l0.2,0.2L483.7,38.3z M484.1,39l-4.8,1.3l0,0.1l0,0.1L484.1,39z M484.1,40.9l-4.7-1.6l0,0.1l0,0.1
	L484.1,40.9z M483.7,41.7l-3.8-3.2l0,0l0,0L483.7,41.7z M482.9,42.2l-2-4.6l-0.1,0l-0.1,0L482.9,42.2z M475.5,42.4v-5h-5v5H475.5z
	 M475.7,47.9l3.5-3.5l0,0L475.7,47.9z M486.4,48.3l-2.5,4.3l0.1,0l0.1,0L486.4,48.3z M487.1,48.9l-4.2,2.8l0.1,0.1l0.1,0.1
	L487.1,48.9z M487.4,49.7l-4.9,1l0,0.2l0,0.2L487.4,49.7z M487.4,51.5l-4.8-1.3l0,0.1l0,0.1L487.4,51.5z M487.1,52.3l-4-3
	L487.1,52.3z M486.3,52.8l-2.1-4.5l-0.2,0.1l-0.2,0.1L486.3,52.8z M490,42.4h5v-5h-5V42.4z M486.5,42.2l-2.4,4.4l0.1,0.1l0.1,0.1
	L486.5,42.2z M485.7,41.6l-4.1,2.8l0.1,0.1l0.1,0.1L485.7,41.6z M485.4,40.7l-4.9,1.2l0,0l0,0L485.4,40.7z M485.4,38.9l4.8,1.3l0,0
	l0,0L485.4,38.9z M485.7,38l-4-3l0,0L485.7,38z M486.5,37.5l-2.4-4.4L486.5,37.5z M490,37.2v5h5v-5H490z M490.9,26.9l3.1,3.9l0,0
	l0,0L490.9,26.9z M494.1,26.3l-1.8,4.7l0.1,0l0.1,0L494.1,26.3z M495,26.9l3.3-3.8l0,0L495,26.9z M495.7,27.8l-4.6,2l0,0.1l0.1,0.1
	L495.7,27.8z M495.9,54.3v5h5v-5H495.9z M490,54.3h-5v5h5V54.3z M474.2,48.1c-0.8,0-1.2-0.1-1.2-0.1l-2.3,9.7
	c1.1,0.3,2.3,0.3,3.5,0.3V48.1z M473,48c0.1,0,0.6,0.2,1.1,0.7l-7.3,6.9c1.2,1.2,2.6,1.9,3.9,2.2L473,48z M474.1,48.7
	c0.5,0.5,0.6,1,0.6,1l-9.8,2c0.2,1.2,0.8,2.7,1.9,3.9L474.1,48.7z M474.7,49.7c0-0.2-0.1-0.6-0.1-1.3h-10c0,1.1,0.1,2.2,0.3,3.3
	L474.7,49.7z M474.6,48.4V31.8h-10v16.6H474.6z M474.6,31.8c0-0.8,0.1-1.2,0.1-1.3l-9.8-2c-0.2,1-0.3,2.2-0.3,3.3H474.6z
	 M474.7,30.5c0,0-0.1,0.5-0.6,1l-7.3-6.9c-1.1,1.2-1.7,2.6-1.9,3.9L474.7,30.5z M474.1,31.5c-0.5,0.6-1.1,0.7-1.2,0.7l-2-9.8
	c-1.4,0.3-2.9,0.9-4.1,2.2L474.1,31.5z M473,32.2c0.1,0,0.4-0.1,1.2-0.1v-10c-1.2,0-2.4,0.1-3.5,0.3L473,32.2z M474.2,32.2h9.4v-10
	h-9.4V32.2z M483.6,32.2c-0.1,0-0.7,0-1.4-0.4l5-8.7c-1.3-0.7-2.6-0.9-3.6-0.9V32.2z M482.3,31.8c-0.3-0.2-0.7-0.5-1.1-1l8.3-5.5
	c-0.7-1-1.6-1.8-2.5-2.2L482.3,31.8z M481.4,31c-0.3-0.4-0.5-0.8-0.5-1.2l9.8-2c-0.2-1-0.6-2-1.3-2.8L481.4,31z M480.9,30.1
	c0-0.1,0-0.2,0-0.4h10c0-0.8-0.1-1.5-0.3-2.2L480.9,30.1z M480.9,29.7c0-0.1,0-0.3,0-0.4l9.7,2.6c0.2-0.7,0.3-1.4,0.3-2.2H480.9z
	 M480.8,29.6c0.1-0.4,0.3-0.8,0.5-1.2l8,6c0.6-0.8,1.1-1.8,1.3-2.8L480.8,29.6z M481.4,28.4c0.3-0.4,0.7-0.7,0.9-0.8l4.7,8.8
	c0.9-0.5,1.7-1.1,2.4-2L481.4,28.4z M482.2,27.6c0.7-0.4,1.2-0.4,1.4-0.4v10c1,0,2.3-0.2,3.5-0.9L482.2,27.6z M483.6,27.2h-7.3v10
	h7.3V27.2z M476.3,27.2c-0.8,0-2.6,0.1-4.1,1.6l7.1,7.1c-0.6,0.6-1.3,1-1.9,1.1c-0.5,0.1-0.9,0.2-1.1,0.2V27.2z M472.2,28.9
	c-1.6,1.6-1.6,3.7-1.6,4.2h10c0,0.1,0,0.4-0.1,0.8c-0.1,0.4-0.4,1.2-1.2,2L472.2,28.9z M470.5,33.1v4.4h10v-4.4H470.5z M475.5,42.5
	h6.3v-10h-6.3V42.5z M481.8,42.5c-0.1,0-0.5,0-1-0.3l4.2-9.1c-1.1-0.5-2.3-0.7-3.2-0.7V42.5z M480.8,42.2c-0.4-0.2-0.8-0.5-1.2-1
	l8-6c-0.7-1-1.6-1.6-2.6-2.1L480.8,42.2z M480,41.6c-0.4-0.4-0.6-0.9-0.7-1.3l9.7-2.6c-0.3-1-0.8-2-1.6-2.9L480,41.6z M479.4,40.6
	c-0.1-0.2-0.1-0.4-0.1-0.7h10c0-0.9-0.1-1.7-0.4-2.5L479.4,40.6z M479.2,40c0-0.3,0-0.5,0.1-0.7l9.5,3.2c0.3-0.8,0.4-1.6,0.4-2.5
	H479.2z M479.3,39.6c0.1-0.4,0.3-0.8,0.6-1.1l7.7,6.4c0.7-0.8,1.1-1.7,1.4-2.7L479.3,39.6z M479.8,38.5c0.4-0.5,0.9-0.8,1.1-0.9
	l4,9.2c0.9-0.4,1.8-1,2.6-2L479.8,38.5z M480.8,37.7c0.5-0.2,0.9-0.3,1-0.3v10c1,0,2.1-0.2,3.2-0.7L480.8,37.7z M481.8,37.4h-6.3v10
	h6.3V37.4z M470.5,42.4v4.8h10v-4.8H470.5z M470.5,47.2c0,0.5,0,2.6,1.6,4.2l7.1-7.1c0.8,0.8,1.1,1.6,1.2,2c0.1,0.4,0.1,0.7,0.1,0.8
	H470.5z M472.2,51.4c1.5,1.5,3.3,1.6,4.1,1.6v-10c0.2,0,0.6,0,1.1,0.2c0.5,0.2,1.2,0.5,1.9,1.1L472.2,51.4z M476.3,53.1h9v-10h-9
	V53.1z M485.3,53.1c-0.1,0-0.7,0-1.4-0.4l5-8.7c-1.3-0.7-2.6-0.9-3.6-0.9V53.1z M484,52.7c-0.3-0.2-0.7-0.5-1.1-1l8.3-5.5
	c-0.7-1-1.6-1.8-2.5-2.2L484,52.7z M483.1,51.9c-0.3-0.4-0.5-0.8-0.5-1.2l9.8-2c-0.2-1-0.6-2-1.3-2.8L483.1,51.9z M482.6,51
	c0-0.1,0-0.2,0-0.4h10c0-0.8-0.1-1.5-0.3-2.2L482.6,51z M482.5,50.6c0-0.2,0-0.3,0-0.4l9.7,2.6c0.2-0.7,0.3-1.4,0.3-2.2H482.5z
	 M482.5,50.4c0.1-0.5,0.3-0.9,0.5-1.2l8,6c0.6-0.8,1-1.7,1.2-2.7L482.5,50.4z M483.1,49.3c0.4-0.5,0.8-0.8,1.2-1l4.2,9.1
	c1-0.5,1.9-1.1,2.6-2.1L483.1,49.3z M483.9,48.5c0.7-0.4,1.2-0.4,1.4-0.4v10c1,0,2.3-0.2,3.5-0.9L483.9,48.5z M485.3,48.1h-11.1v10
	h11.1V48.1z M490,37.4h-2.4v10h2.4V37.4z M487.6,37.4c0,0,0.4,0,1,0.3l-4.2,9.1c1.2,0.5,2.3,0.7,3.3,0.7V37.4z M488.8,37.7
	c0.3,0.1,0.6,0.4,0.9,0.8l-8,6c0.7,0.9,1.5,1.6,2.4,2L488.8,37.7z M489.9,38.7c0.1,0.2,0.3,0.5,0.3,0.7l-9.7,2.6
	c0.2,0.9,0.6,1.7,1.1,2.4L489.9,38.7z M490.2,39.5c0,0,0,0.1,0,0.3h-10c0,0.7,0.1,1.5,0.3,2.1L490.2,39.5z M490.2,39.8
	c0,0.1,0,0.3,0,0.4l-9.7-2.6c-0.2,0.7-0.3,1.4-0.3,2.2H490.2z M490.2,40.1c-0.1,0.3-0.2,0.6-0.5,0.9l-8-6c-0.6,0.8-1,1.7-1.2,2.6
	L490.2,40.1z M489.7,41c-0.3,0.4-0.7,0.7-0.9,0.8l-4.7-8.8c-0.9,0.5-1.7,1.1-2.4,2L489.7,41z M488.8,41.9c-0.6,0.3-1.1,0.3-1.2,0.3
	v-10c-1,0-2.3,0.2-3.5,0.8L488.8,41.9z M487.6,42.2h2.4v-10h-2.4V42.2z M495,37.2V29h-10v8.2H495z M495,29c0,0,0,0.3-0.2,0.7
	c-0.2,0.4-0.5,0.8-0.8,1.1l-6.2-7.8c-2.1,1.7-2.8,4-2.8,6.1H495z M494.1,30.7c-0.1,0.1-0.3,0.2-0.5,0.3c-0.2,0.1-0.4,0.1-0.6,0.1
	v-10c-2,0-3.8,0.7-5.3,1.9L494.1,30.7z M492.9,31.1c-0.3,0-0.5,0-0.7-0.1l3.6-9.3c-0.9-0.4-1.9-0.5-2.9-0.5V31.1z M492.5,31.1
	c-0.2-0.1-0.5-0.2-0.7-0.4l6.5-7.6c-0.8-0.7-1.7-1.2-2.6-1.5L492.5,31.1z M491.8,30.7c-0.3-0.3-0.5-0.6-0.7-0.9l9.1-4.1
	c-0.4-1-1.1-1.9-2-2.7L491.8,30.7z M491.2,30c-0.2-0.5-0.3-0.8-0.3-1h10c0-1.1-0.2-2.3-0.8-3.5L491.2,30z M490.9,29v25.3h10V29
	H490.9z M495.9,49.3h-6v10h6V49.3z M495,54.3V42.4h-10v11.9H495z M515.8,32.1v-5H511l-0.2,4.8L515.8,32.1z M515.7,33.2l-4.9-0.8
	l0,0.1l0,0.1L515.7,33.2z M515.4,34.3l-4.8-1.4l-1.9,6.4h6.7V34.3z M519.4,34.9l1.6-4.7l0,0L519.4,34.9z M522.7,36.7l-3.2,3.8l0,0
	l0,0L522.7,36.7z M525,39.8l-4.5,2.2l0,0l0,0L525,39.8z M526.1,44.1v5h5.3l-0.3-5.3L526.1,44.1z M520.2,44.1l-4.9,0.8l0.7,4.2h4.2
	V44.1z M517.9,40.2l-3,4l0,0l0,0L517.9,40.2z M513.2,38.9v5h0.5l0.5-0.1L513.2,38.9z M512.9,38.9L512,34l-1.7,0.3l-1.2,1.3
	L512.9,38.9z M510.6,41l-3-4l0,0l0,0L510.6,41z M508,42.6l2.2,4.5l0,0l0,0L508,42.6z M505.2,43.7l1.3,4.8l0,0l0,0L505.2,43.7z
	 M502.5,44.1l-0.3-5l-0.1,0l-0.1,0L502.5,44.1z M500.3,43.7l-2.9,4.1l0.1,0.1l0.1,0.1L500.3,43.7z M499.3,42l5-0.7l0,0l0,0L499.3,42
	z M499.6,40.2l-4.2-2.7l0,0l0,0L499.6,40.2z M501.3,39.2l-0.8-4.9l0,0l0,0L501.3,39.2z M504.3,38.3l1.9,4.6l0,0l0,0L504.3,38.3z
	 M506.8,36.8l3.1,3.9l0,0l0,0L506.8,36.8z M508.7,34.7l-4.2-2.6l0,0l0,0L508.7,34.7z M509.6,32.1l5,0.4l0.5-5.4h-5.5V32.1z
	 M501.2,31.9l-2.4,4.4l0.2,0.1l0.2,0.1L501.2,31.9z M500.4,31.3l-3.8,3.2l0.1,0.1l0.1,0.1L500.4,31.3z M499.9,30.5l-4.8,1.3l0,0.1
	l0,0.1L499.9,30.5z M499.9,28.7l-4.7-1.6l0,0.1l0,0.1L499.9,28.7z M500.4,27.9l3.8,3.2l0.1-0.1l0.1-0.1L500.4,27.9z M501.2,27.3
	l2,4.6l0.1-0.1l0.1-0.1L501.2,27.3z M524.3,27.3l-2.2,4.5l0.1,0.1l0.1,0.1L524.3,27.3z M525,27.9l-4,3l0.1,0.1l0.1,0.1L525,27.9z
	 M525.5,28.7l-4.8,1.3l0,0.1l0,0.1L525.5,28.7z M525.5,30.5l-4.7-1.6l0,0.1l0,0.1L525.5,30.5z M525,31.3l-3.7-3.4l-0.1,0.1l-0.1,0.1
	L525,31.3z M524.2,31.9l2,4.6l0.1-0.1l0.1-0.1L524.2,31.9z M525.3,48.8l-2.2,4.5l0.2,0.1l0.2,0.1L525.3,48.8z M526.2,49.4l-3.8,3.2
	l0.1,0.1l0.1,0.1L526.2,49.4z M526.6,50.3l-4.9,1.2l0,0.2l0.1,0.2L526.6,50.3z M526.6,52.1l-4.7-1.6L526.6,52.1z M526.1,52.9
	l-3.7-3.4l-0.1,0.1l-0.1,0.1L526.1,52.9z M525.3,53.5l2,4.6l0,0L525.3,53.5z M499.3,52.9l-3.8,3.2l0.1,0.1l0.1,0.1L499.3,52.9z
	 M498.8,52.1l-4.7,1.6L498.8,52.1z M498.8,50.3l-4.8-1.5l0,0.1l0,0.1L498.8,50.3z M499.2,49.4l-3.7-3.4l-0.1,0.1l-0.1,0.1
	L499.2,49.4z M500.1,48.8l2,4.6l0.1,0l0.1,0L500.1,48.8z M510.8,31.9c0,0.2,0,0.4-0.1,0.6l9.9,1.6c0.1-0.6,0.2-1.1,0.2-1.7
	L510.8,31.9z M510.7,32.7c0,0.1,0,0.1,0,0.2l9.6,2.8c0.2-0.6,0.3-1.3,0.4-1.9L510.7,32.7z M515.4,39.3h0.3v-10h-0.3V39.3z
	 M515.7,39.3c0.7,0,1.4,0.1,2.1,0.3l3.2-9.5c-1.7-0.6-3.5-0.9-5.3-0.9V39.3z M517.9,39.6c0.6,0.2,1.1,0.5,1.6,0.9l6.5-7.6
	c-1.5-1.2-3.1-2.2-4.9-2.8L517.9,39.6z M519.5,40.6c0.4,0.3,0.7,0.7,1,1.4l9-4.4c-0.9-1.8-2.1-3.4-3.6-4.7L519.5,40.6z M520.6,42.1
	c0.2,0.5,0.5,1.2,0.5,2.4l10-0.6c-0.1-2.2-0.6-4.3-1.6-6.3L520.6,42.1z M526.1,39.1h-5.9v10h5.9V39.1z M525.1,43.3
	c-0.5-2.8-1.8-5.3-4.2-7.1l-5.9,8c0.1,0,0.1,0.1,0.1,0.1c0,0.1,0.1,0.2,0.2,0.6L525.1,43.3z M521,36.2c-2.2-1.7-4.8-2.4-7.5-2.4v10
	c0.8,0,1.2,0.2,1.4,0.3L521,36.2z M513.5,33.8c-0.4,0-0.9,0-1.3,0.1l2,9.8c-0.2,0-0.4,0.1-0.7,0.1V33.8z M513.2,33.9
	c-0.4,0-0.8,0-1.2,0.1l1.6,9.9c-0.1,0-0.3,0-0.5,0V33.9z M509.1,35.6c-0.4,0.5-1,1-1.5,1.4l5.9,8c1.1-0.8,2.1-1.7,3-2.8L509.1,35.6z
	 M507.6,37c-0.6,0.4-1.2,0.8-1.8,1.1l4.5,8.9c1.2-0.6,2.3-1.3,3.4-2.1L507.6,37z M505.8,38.1c-0.7,0.3-1.3,0.6-2,0.8l2.9,9.6
	c1.2-0.4,2.4-0.8,3.5-1.4L505.8,38.1z M503.9,38.8c-0.6,0.2-1.2,0.3-1.7,0.3l0.7,10c1.2-0.1,2.5-0.3,3.7-0.6L503.9,38.8z M502,39.2
	c0.1,0,0.2,0,0.4,0c0.2,0,0.4,0.1,0.6,0.3l-5.4,8.4c1.7,1.1,3.6,1.4,5.4,1.3L502,39.2z M503.2,39.6c0.2,0.1,0.4,0.4,0.7,0.7
	c0.2,0.4,0.3,0.7,0.4,1l-9.9,1.4c0.3,2.1,1.4,3.9,3.1,5.1L503.2,39.6z M504.2,41.2c0,0.2,0,0.5,0,0.8c-0.1,0.3-0.2,0.6-0.3,0.8
	l-8.5-5.3c-1,1.6-1.3,3.4-1.1,5.2L504.2,41.2z M503.8,42.9c-0.2,0.3-0.5,0.6-0.9,0.9c-0.4,0.2-0.7,0.3-0.9,0.3l-1.6-9.9
	c-1.9,0.3-3.8,1.3-5.1,3.3L503.8,42.9z M502.1,44.1c1.4-0.2,2.8-0.6,4.1-1.2l-3.8-9.2c-0.6,0.2-1.2,0.4-1.8,0.5L502.1,44.1z
	 M506.3,42.9c1.3-0.6,2.6-1.3,3.7-2.2l-6.2-7.8c-0.4,0.3-0.9,0.6-1.5,0.9L506.3,42.9z M510,40.7c1.2-0.9,2.2-2.1,3-3.4l-8.5-5.2
	c-0.2,0.3-0.4,0.6-0.8,0.8L510,40.7z M512.9,37.3c0.9-1.5,1.5-3.1,1.6-4.8l-10-0.9c0,0.1,0,0.2-0.1,0.4L512.9,37.3z M509.6,27.1
	h-7.2v10h7.2V27.1z M502.3,27.1c0,0,0.4,0,0.8,0.2l-4,9.2c1.1,0.5,2.2,0.6,3.2,0.6V27.1z M503.5,27.5c0.2,0.1,0.4,0.2,0.6,0.4
	l-7.4,6.8c0.6,0.7,1.3,1.2,2.1,1.6L503.5,27.5z M504.2,28.1c0.2,0.2,0.4,0.5,0.5,0.8l-9.5,3.2c0.3,0.9,0.7,1.7,1.4,2.4L504.2,28.1z
	 M504.8,29.2c0,0.1,0,0.2,0,0.4h-10c0,0.8,0.1,1.5,0.3,2.2L504.8,29.2z M504.8,29.6c0,0.1,0,0.3,0,0.4l-9.7-2.6
	c-0.2,0.7-0.3,1.4-0.3,2.2H504.8z M504.7,30.3c-0.1,0.3-0.2,0.6-0.5,0.8l-7.7-6.4c-0.6,0.7-1.1,1.5-1.4,2.4L504.7,30.3z M504.4,30.9
	c-0.3,0.5-0.8,0.8-1.2,0.9l-4-9.2c-1,0.5-2,1.2-2.7,2.1L504.4,30.9z M503.4,31.8c-0.5,0.3-1,0.3-1.1,0.3V22c-1,0-2.2,0.2-3.4,0.8
	L503.4,31.8z M502.3,32h20.8V22h-20.8V32z M523.1,32c-0.1,0-0.5,0-1.1-0.3l4.5-8.9c-1.2-0.6-2.4-0.8-3.4-0.8V32z M522.3,31.9
	c-0.4-0.2-0.8-0.5-1.2-0.9l7.9-6.1c-0.7-1-1.7-1.7-2.7-2.1L522.3,31.9z M521.2,31.1c-0.3-0.3-0.5-0.7-0.6-1.1l9.7-2.6
	c-0.3-1-0.7-1.9-1.4-2.7L521.2,31.1z M520.7,30.3c-0.1-0.2-0.1-0.4-0.1-0.7h10c0-0.9-0.1-1.7-0.4-2.5L520.7,30.3z M520.6,29.6
	c0-0.3,0-0.5,0.1-0.7l9.5,3.2c0.3-0.8,0.4-1.6,0.4-2.5H520.6z M520.6,29.2c0.1-0.5,0.4-1,0.7-1.3l7.4,6.8c0.7-0.8,1.3-1.8,1.6-2.9
	L520.6,29.2z M521.2,28.1c0.3-0.4,0.6-0.6,0.8-0.7l4.5,8.9c0.8-0.4,1.7-1,2.4-1.9L521.2,28.1z M522.2,27.3c0.5-0.2,0.8-0.2,0.9-0.2
	v10c1,0,2.1-0.2,3.1-0.6L522.2,27.3z M523.1,27.1h-7.3v10h7.3V27.1z M524.2,53.6c-0.1,0-0.5,0-1.1-0.3l4.5-8.9
	c-1.2-0.6-2.4-0.8-3.4-0.8V53.6z M523.4,53.5c-0.3-0.1-0.7-0.4-1.1-0.9l7.7-6.4c-0.8-1-1.8-1.6-2.7-2L523.4,53.5z M522.5,52.8
	c-0.4-0.4-0.6-0.8-0.7-1.3l9.7-2.4c-0.3-1.1-0.8-2.1-1.6-3L522.5,52.8z M521.9,51.8c-0.1-0.2-0.1-0.4-0.1-0.7h10
	c0-0.9-0.1-1.7-0.4-2.5L521.9,51.8z M521.8,51.2c0-0.2,0-0.4,0.1-0.7l9.5,3.2c0.3-0.8,0.4-1.7,0.4-2.5H521.8z M521.9,50.5
	c0.1-0.4,0.3-0.7,0.6-1l7.4,6.8c0.7-0.7,1.2-1.6,1.5-2.6L521.9,50.5z M522.3,49.7c0.4-0.4,0.8-0.7,1.1-0.8l4,9.2
	c0.9-0.4,1.9-1,2.6-1.9L522.3,49.7z M523.3,48.9c0.5-0.2,0.8-0.2,0.8-0.2v10c0.9,0,2.1-0.1,3.2-0.6L523.3,48.9z M524.2,48.7h-22.9
	v10h22.9V48.7z M501.3,48.7c0,0,0.4,0,0.8,0.2l-4,9.2c1.1,0.5,2.2,0.6,3.2,0.6V48.7z M502.1,48.9c0.3,0.1,0.6,0.3,0.9,0.6l-7.4,6.8
	c0.7,0.8,1.6,1.4,2.5,1.8L502.1,48.9z M503.1,49.7c0.2,0.2,0.4,0.5,0.5,0.8l-9.5,3.2c0.3,0.9,0.7,1.7,1.4,2.4L503.1,49.7z
	 M503.6,50.5c0.1,0.2,0.1,0.4,0.1,0.7h-10c0,0.9,0.1,1.7,0.4,2.5L503.6,50.5z M503.7,51.2c0,0.2,0,0.3,0,0.4L494,49
	c-0.2,0.7-0.3,1.4-0.3,2.2H503.7z M503.6,51.8c-0.1,0.3-0.2,0.6-0.5,0.9l-7.7-6.4c-0.6,0.8-1.1,1.7-1.4,2.5L503.6,51.8z M502.9,52.8
	c-0.3,0.3-0.6,0.5-0.9,0.6l-4-9.2c-0.9,0.4-1.8,1-2.5,1.8L502.9,52.8z M502.2,53.4c-0.5,0.2-0.8,0.2-0.9,0.2v-10
	c-1,0-2.2,0.2-3.3,0.7L502.2,53.4z M501.3,53.6h22.9v-10h-22.9V53.6z"/>
<path class="st13" d="M294.2,75.2c1.7,0,2.9,1.6,2.9,4.1c0,2.5-1.2,4.1-2.9,4.1c-1.7,0-2.9-1.6-2.9-4.1
	C291.2,76.8,292.5,75.2,294.2,75.2z M294.2,76.1c-1.1,0-1.9,1.2-1.9,3.1c0,1.9,0.8,3.2,1.9,3.2c1.1,0,1.9-1.2,1.9-3.2
	C296.1,77.4,295.3,76.1,294.2,76.1z M299.6,74.2h1.1V86h-1.1V74.2z M296.7,78.7h3.4v0.9h-3.4V78.7z M311.5,74.3h1.1v8.7h-1.1V74.3z
	 M305,84.9h8v0.9h-8V84.9z M305,82.2h1.1v3.1H305V82.2z M303.6,80.4h0.9c2.2,0,3.8-0.1,5.6-0.4l0.1,0.9c-1.9,0.3-3.4,0.4-5.7,0.4
	h-0.9V80.4z M303.6,75.1h5.3v3.4h-4.3v2.1h-1.1v-3h4.3V76h-4.3V75.1z M323.5,74.2h1.1V86h-1.1V74.2z M318.4,75.2c1.7,0,3,1.6,3,4.1
	c0,2.5-1.2,4.1-3,4.1c-1.7,0-3-1.6-3-4.1C315.4,76.8,316.6,75.2,318.4,75.2z M318.4,76.1c-1.1,0-1.9,1.2-1.9,3.1
	c0,1.9,0.8,3.2,1.9,3.2c1.2,0,2-1.2,2-3.2C320.3,77.4,319.5,76.1,318.4,76.1z M326.9,79.2h10.6V80h-10.6V79.2z M328.3,77.3h8v0.9h-8
	V77.3z M328.3,74.6h7.8v0.9h-6.8V78h-1.1V74.6z M328.2,81.1h8v2.8h-6.9v1.5h-1.1V83h6.9v-1.1h-6.9V81.1z M328.2,85h8.3v0.9h-8.3V85z
	 M342.7,75.1c1.8,0,3.1,1.1,3.1,2.8c0,1.7-1.3,2.8-3.1,2.8s-3.2-1.1-3.2-2.8C339.5,76.2,340.8,75.1,342.7,75.1z M342.7,76
	c-1.2,0-2.1,0.7-2.1,1.8s0.9,1.8,2.1,1.8c1.2,0,2.1-0.8,2.1-1.8S343.9,76,342.7,76z M347.4,74.2h1.1V86h-1.1V74.2z M339.1,83.5
	l-0.2-0.9c2.1,0,5.1,0,7.7-0.4l0.1,0.8C344,83.4,341.2,83.5,339.1,83.5z M355.2,74.8h3.1v0.9h-3.1V74.8z M358,74.8h1v0.4
	c0,0.7,0,2.2-0.5,4.2l-1.1-0.1c0.6-2,0.6-3.3,0.6-4V74.8z M359.9,74.8h3.2v0.9h-3.2V74.8z M362.5,74.8h1v0.5c0,0.8,0,2.1-0.5,4.1
	l-1.1-0.1c0.5-1.9,0.5-3.2,0.5-3.9V74.8z M354.2,78.9h10.7v0.9h-10.7V78.9z M359,79.6h1.1v2.6H359V79.6z M355.5,81.7h8v4.1h-8V81.7z
	 M362.4,82.6h-5.9V85h5.9V82.6z M366.7,75.5h5.3v0.9h-5.3V75.5z M368.5,78.9h1.1v4h-1.1V78.9z M371.6,75.5h1.1v0.6
	c0,1,0,2.5-0.3,4.7l-1.1-0.1c0.4-2.1,0.4-3.6,0.4-4.6V75.5z M374.1,74.3h1.1V86h-1.1V74.3z M374.9,79.2h2.2v0.9h-2.2V79.2z
	 M366.2,83.5l-0.1-0.9c2.1,0,5,0,7.3-0.3l0.1,0.8C371,83.4,368.2,83.4,366.2,83.5z M384.4,74.9h0.9v1.2c0,2.3-1.3,4.1-3.2,4.9
	l-0.6-0.9c1.8-0.7,2.9-2.2,2.9-4V74.9z M384.5,74.9h0.9v1.3c0,1.6,1.2,3.1,2.9,3.6l-0.6,0.8c-1.9-0.7-3.2-2.4-3.2-4.5V74.9z
	 M389.5,74.3h1.1v7.1h-1.1V74.3z M390.3,77.3h2v0.9h-2V77.3z M386.9,81.7c2.4,0,3.9,0.8,3.9,2.1c0,1.4-1.5,2.1-3.9,2.1
	s-3.9-0.8-3.9-2.1C383,82.5,384.5,81.7,386.9,81.7z M386.9,82.6c-1.7,0-2.8,0.5-2.8,1.3s1.1,1.3,2.8,1.3s2.8-0.5,2.8-1.3
	S388.6,82.6,386.9,82.6z M396.3,74.9h0.9v1.2c0,2.3-1.3,4.1-3.2,4.9l-0.6-0.9c1.8-0.7,2.9-2.2,2.9-4V74.9z M396.5,74.9h0.9v1.3
	c0,1.6,1.2,3.1,2.9,3.6l-0.6,0.8c-1.9-0.7-3.2-2.4-3.2-4.5V74.9z M401.5,74.3h1.1v7.1h-1.1V74.3z M402.3,77.3h2v0.9h-2V77.3z
	 M398.8,81.7c2.4,0,3.9,0.8,3.9,2.1c0,1.4-1.5,2.1-3.9,2.1s-3.9-0.8-3.9-2.1C395,82.5,396.4,81.7,398.8,81.7z M398.8,82.6
	c-1.7,0-2.8,0.5-2.8,1.3s1.1,1.3,2.8,1.3s2.8-0.5,2.8-1.3S400.6,82.6,398.8,82.6z M405.9,80.1h0.8c2.3,0,3.5,0,4.9-0.3l0.1,0.9
	c-1.5,0.3-2.6,0.3-5,0.3h-0.8V80.1z M405.9,75h5.1v3.3h-4v2.3h-1.1v-3.2h4v-1.6h-4V75z M414,74.3h1.1v7.2H414V74.3z M411.7,76h2.5
	v0.9h-2.5V76z M411.7,78.4h2.5v0.9h-2.5V78.4z M407.2,82.1h7.9V86H414v-3h-6.8V82.1z M422.7,74.5c2.6,0,4.1,0.7,4.1,2
	c0,1.3-1.5,2-4.1,2c-2.6,0-4.1-0.7-4.1-2C418.5,75.2,420.1,74.5,422.7,74.5z M422.7,75.3c-1.9,0-3,0.4-3,1.2s1.1,1.2,3,1.2
	c1.9,0,3-0.4,3-1.2S424.6,75.3,422.7,75.3z M417.4,79.3H428v0.9h-10.6V79.3z M418.7,81.2h8v2.7h-6.9v1.4h-1.1v-2.2h6.9v-1h-6.9V81.2
	z M418.7,85h8.3v0.8h-8.3V85z M441.3,74.3h1.1V86h-1.1V74.3z M437.8,75.5h1.1c0,3.4-1.5,6.4-5.5,8.3l-0.6-0.9c3.4-1.6,5-4.1,5-7.3
	V75.5z M433.4,75.5h4.9v0.9h-4.9V75.5z M444.7,79.7h10.7v0.8h-10.7V79.7z M445.9,81.5h8.1V84h-7v1.4H446v-2.1h7v-1h-7V81.5z
	 M446,85.1h8.4v0.8H446V85.1z M446,74.6h7.9V77h-6.8v1.3H446v-2h6.9v-0.9H446V74.6z M446,78.1h8.1v0.8H446V78.1z M464.8,74.7h0.9
	v0.7c0,2.2-2.3,3.9-4.7,4.3l-0.4-0.9c2.1-0.3,4.2-1.7,4.2-3.4V74.7z M465,74.7h0.9v0.7c0,1.6,2.1,3.1,4.2,3.4l-0.4,0.9
	c-2.4-0.4-4.7-2.1-4.7-4.3V74.7z M464.8,81.5h1.1V86h-1.1V81.5z M460,80.9h10.6v0.9H460V80.9z M478.3,81.5h0.8v0.6
	c0,1.5-1,3.1-2.7,3.7l-0.5-0.8c1.5-0.5,2.4-1.8,2.4-2.9V81.5z M478.5,81.5h0.8v0.6c0,1.2,0.7,2.4,2.1,3L481,86
	c-1.7-0.7-2.5-2.3-2.5-3.8V81.5z M482.6,81.5h0.8v0.6c0,1.4-0.8,3.1-2.5,3.8l-0.5-0.8c1.4-0.6,2.1-2,2.1-3V81.5z M482.8,81.5h0.8
	v0.6c0,1.2,0.9,2.4,2.4,2.9l-0.5,0.8c-1.7-0.6-2.7-2.1-2.7-3.7V81.5z M483.9,74.3h1.1V81h-1.1V74.3z M478.7,75
	c1.8,0,3.1,1.1,3.1,2.7s-1.3,2.7-3.1,2.7c-1.8,0-3.1-1.1-3.1-2.7S476.9,75,478.7,75z M478.7,75.8c-1.2,0-2,0.8-2,1.8s0.8,1.8,2,1.8
	c1.2,0,2-0.7,2-1.8S479.8,75.8,478.7,75.8z M488.7,77.8h8v0.9h-8V77.8z M487.3,80.2H498v0.9h-10.7V80.2z M488.7,74.7h1.1v3.5h-1.1
	V74.7z M488.7,84.8h8.1v0.9h-8.1V84.8z M488.7,82.3h1.1v2.8h-1.1V82.3z M312.6,92.2h1.1V104h-1.1V92.2z M313.4,96.9h2.2v0.9h-2.2
	V96.9z M305.1,100.2h0.9c2.2,0,3.7-0.1,5.4-0.4l0.1,0.9c-1.8,0.3-3.4,0.4-5.6,0.4h-0.9V100.2z M305.1,93.4h5.5v0.9h-4.4v6.3h-1.1
	V93.4z M325.4,94h2v0.9h-2V94z M325.4,96.5h2v0.9h-2V96.5z M319.9,93c1.8,0,3.1,1.1,3.1,2.8c0,1.6-1.3,2.8-3.1,2.8s-3.1-1.1-3.1-2.8
	C316.8,94.1,318.1,93,319.9,93z M319.9,93.9c-1.2,0-2,0.8-2,1.9c0,1.1,0.8,1.9,2,1.9c1.2,0,2-0.8,2-1.9
	C321.9,94.6,321,93.9,319.9,93.9z M324.6,92.3h1.1v7h-1.1V92.3z M322,99.6c2.4,0,3.9,0.8,3.9,2.2c0,1.4-1.5,2.2-3.9,2.2
	s-3.9-0.8-3.9-2.2C318.1,100.4,319.6,99.6,322,99.6z M322,100.5c-1.7,0-2.8,0.5-2.8,1.3s1.1,1.3,2.8,1.3s2.8-0.5,2.8-1.3
	S323.7,100.5,322,100.5z M336.6,92.3h1.1v8.8h-1.1V92.3z M337.3,96.1h2.1V97h-2.1V96.1z M328.6,93.7h6.9v0.9h-6.9V93.7z M332,95.2
	c1.7,0,2.8,0.9,2.8,2.2c0,1.3-1.1,2.2-2.8,2.2c-1.7,0-2.8-0.9-2.8-2.2C329.2,96.1,330.4,95.2,332,95.2z M332,96.1
	c-1.1,0-1.8,0.5-1.8,1.4c0,0.8,0.7,1.3,1.8,1.3c1.1,0,1.8-0.5,1.8-1.3C333.8,96.6,333.1,96.1,332,96.1z M331.5,92.3h1.1v1.9h-1.1
	V92.3z M330.3,102.9h7.9v0.9h-7.9V102.9z M330.3,100.4h1.1v2.9h-1.1V100.4z M348.6,92.7h0.9v0.7c0,2.2-2.3,3.9-4.7,4.3l-0.4-0.9
	c2.1-0.3,4.2-1.7,4.2-3.4V92.7z M348.8,92.7h0.9v0.7c0,1.6,2.1,3.1,4.2,3.4l-0.4,0.9c-2.4-0.4-4.7-2.1-4.7-4.3V92.7z M348.6,99.5
	h1.1v4.5h-1.1V99.5z M343.9,98.9h10.6v0.9h-10.6V98.9z M355.9,93.5h6.9v0.9h-6.9V93.5z M359.3,95c1.7,0,2.8,0.8,2.8,2.1
	c0,1.3-1.1,2.1-2.8,2.1c-1.7,0-2.8-0.8-2.8-2.1C356.5,95.8,357.7,95,359.3,95z M359.3,95.8c-1.1,0-1.8,0.5-1.8,1.3
	c0,0.8,0.7,1.3,1.8,1.3c1.1,0,1.8-0.5,1.8-1.3C361.1,96.3,360.4,95.8,359.3,95.8z M363.9,92.3h1.1v7.3h-1.1V92.3z M364.7,95.5h2v0.9
	h-2V95.5z M357.3,100.2h7.6v3.8h-1.1v-2.9h-6.6V100.2z M358.8,92.2h1.1V94h-1.1V92.2z M371.2,93.5h6.9v0.9h-6.9V93.5z M374.7,95
	c1.7,0,2.8,0.8,2.8,2.1c0,1.3-1.1,2.1-2.8,2.1c-1.7,0-2.8-0.8-2.8-2.1C371.9,95.8,373,95,374.7,95z M374.7,95.8
	c-1.1,0-1.8,0.5-1.8,1.3c0,0.8,0.7,1.3,1.8,1.3c1.1,0,1.8-0.5,1.8-1.3C376.5,96.3,375.7,95.8,374.7,95.8z M379.2,92.3h1.1v7.3h-1.1
	V92.3z M380,95.5h2v0.9h-2V95.5z M372.7,100.2h7.6v3.8h-1.1v-2.9h-6.6V100.2z M374.1,92.2h1.1V94h-1.1V92.2z M384.5,99.3h1.1v1.4
	h5.7v-1.4h1.1v4.6h-7.9V99.3z M385.5,101.5v1.5h5.7v-1.5H385.5z M383.1,97.6h10.6v0.9h-10.6V97.6z M387.9,92.4h0.9v0.5
	c0,2-2.3,3.5-4.7,3.9l-0.4-0.8c2.1-0.3,4.2-1.5,4.2-3V92.4z M388.1,92.4h0.9v0.5c0,1.5,2.1,2.7,4.2,3l-0.4,0.8
	c-2.4-0.4-4.7-1.9-4.7-3.9V92.4z M399.6,93.4h7.6v0.9h-7.6V93.4z M398.5,101.5h10.6v0.9h-10.6V101.5z M401.1,97.6h1.1v4.2h-1.1V97.6
	z M406.8,93.4h1.1v1.3c0,1.5,0,3-0.4,5.2l-1.1-0.1c0.4-2.1,0.4-3.6,0.4-5.1V93.4z M404,97.6h1.1v4.2H404V97.6z M413.2,98.3h1.1v2.3
	h-1.1V98.3z M417.2,98.3h1.1v2.3h-1.1V98.3z M410.4,97.9H421v0.9h-10.6V97.9z M411.6,100.3h8.1v3.7h-1.1v-2.9h-7V100.3z M415.7,92.5
	c2.5,0,4.1,0.8,4.1,2.2c0,1.4-1.6,2.2-4.1,2.2c-2.5,0-4.1-0.8-4.1-2.2C411.6,93.4,413.2,92.5,415.7,92.5z M415.7,93.4
	c-1.9,0-3,0.5-3,1.4c0,0.9,1.2,1.4,3,1.4c1.9,0,3-0.5,3-1.4C418.8,93.9,417.6,93.4,415.7,93.4z M427.7,99.7c2.5,0,4.1,0.8,4.1,2.2
	c0,1.3-1.6,2.1-4.1,2.1c-2.5,0-4.1-0.8-4.1-2.1C423.6,100.5,425.1,99.7,427.7,99.7z M427.7,100.5c-1.8,0-3,0.5-3,1.3
	c0,0.8,1.2,1.3,3,1.3s3-0.5,3-1.3C430.7,101,429.5,100.5,427.7,100.5z M423.7,92.8h7.6v0.9h-7.6V92.8z M422.4,97.7H433v0.9h-10.6
	V97.7z M426.7,95.5h1.1V98h-1.1V95.5z M430.6,92.8h1.1v1c0,0.9,0,1.9-0.3,3.1l-1.1-0.1c0.3-1.2,0.3-2.1,0.3-3V92.8z M442.4,92.3h1.1
	v8.6h-1.1V92.3z M443.1,95.8h2.1v0.9h-2.1V95.8z M439.2,93.2h1.1c0,3-2.1,5.3-5.5,6.3l-0.5-0.9c3-0.9,4.8-2.7,4.8-5V93.2z
	 M434.8,93.2h4.9v0.9h-4.9V93.2z M436.1,102.9h7.9v0.9h-7.9V102.9z M436.1,100h1.1v3.2h-1.1V100z M454.9,92.3h1.1v6.3h-1.1V92.3z
	 M448.4,99.2h1.1v1.4h5.4v-1.4h1.1v4.7h-7.6V99.2z M449.4,101.4v1.5h5.4v-1.5H449.4z M449.6,92.8c1.8,0,3.1,1.1,3.1,2.7
	c0,1.6-1.3,2.7-3.1,2.7c-1.8,0-3.1-1.1-3.1-2.7C446.6,93.9,447.9,92.8,449.6,92.8z M449.6,93.7c-1.2,0-2,0.7-2,1.8s0.8,1.8,2,1.8
	c1.2,0,2-0.7,2-1.8S450.8,93.7,449.6,93.7z M466.8,92.3h1.1V104h-1.1V92.3z M459,93.4h1.1v7.3H459V93.4z M459,100h1
	c1.8,0,3.6-0.1,5.6-0.5l0.1,0.9c-2,0.4-3.9,0.6-5.8,0.6h-1V100z M478.2,92.2h1.1V104h-1.1V92.2z M479,96.9h2.2v0.9H479V96.9z
	 M470.7,100.2h0.9c2.2,0,3.7-0.1,5.4-0.4l0.1,0.9c-1.8,0.3-3.4,0.4-5.6,0.4h-0.9V100.2z M470.7,93.4h5.5v0.9h-4.4v6.3h-1.1V93.4z
	 M482.5,102.3c0-0.3,0.1-0.5,0.2-0.7c0.2-0.1,0.3-0.2,0.6-0.2c0.2,0,0.4,0.1,0.6,0.2c0.2,0.1,0.2,0.4,0.2,0.7c0,0.3-0.1,0.5-0.2,0.7
	c-0.2,0.1-0.3,0.2-0.6,0.2c-0.2,0-0.4-0.1-0.6-0.2C482.6,102.8,482.5,102.6,482.5,102.3z"/>
</svg>
