<svg width="44" height="21" viewBox="0 0 44 21" fill="none" xmlns="http://www.w3.org/2000/svg">
<mask id="path-1-outside-1_287_6007" maskUnits="userSpaceOnUse" x="-1" y="-1" width="46" height="23" fill="black">
<rect fill="white" x="-1" y="-1" width="46" height="23"/>
<path d="M4.686 20.672C4.026 20.672 3.49067 20.6133 3.08 20.496C2.684 20.3933 2.376 20.2173 2.156 19.968C1.936 19.7187 1.782 19.3813 1.694 18.956C1.62067 18.5307 1.584 18.0027 1.584 17.372V15.678C1.584 15.0473 1.62067 14.5193 1.694 14.094C1.782 13.6687 1.936 13.3313 2.156 13.082C2.376 12.8327 2.684 12.6567 3.08 12.554C3.49067 12.4367 4.026 12.378 4.686 12.378H17.292C17.952 12.378 18.48 12.4367 18.876 12.554C19.2867 12.6567 19.602 12.8327 19.822 13.082C20.042 13.3313 20.1887 13.6687 20.262 14.094C20.35 14.5193 20.394 15.0473 20.394 15.678V20.672H4.686ZM14.96 7.67C15.18 7.20067 15.3487 6.702 15.466 6.174C15.598 5.646 15.664 5.096 15.664 4.524V4.282C15.664 3.95933 15.4807 3.798 15.114 3.798H3.608C2.88933 3.798 2.36867 3.63667 2.046 3.314C1.738 2.97667 1.584 2.55133 1.584 2.038C1.584 1.56867 1.738 1.16533 2.046 0.827999C2.354 0.490666 2.87467 0.321999 3.608 0.321999H17.094C17.622 0.321999 18.0693 0.358666 18.436 0.431999C18.8173 0.490666 19.1253 0.607999 19.36 0.783998C19.5947 0.959999 19.7633 1.202 19.866 1.51C19.9833 1.80333 20.042 2.17733 20.042 2.632V3.842C20.042 4.722 19.9687 5.47 19.822 6.086C19.69 6.702 19.514 7.23 19.294 7.67H19.47C20.13 7.67 20.5993 7.85333 20.878 8.22C21.1567 8.58667 21.296 8.99 21.296 9.43C21.296 9.87 21.1493 10.2733 20.856 10.64C20.5773 11.0067 20.1153 11.19 19.47 11.19H2.53C1.88467 11.19 1.41533 11.0067 1.122 10.64C0.843333 10.2733 0.704 9.87 0.704 9.43C0.704 8.99 0.843333 8.58667 1.122 8.22C1.40067 7.85333 1.87 7.67 2.53 7.67H14.96ZM5.984 16.866C5.984 17.1153 6.01333 17.284 6.072 17.372C6.14533 17.4453 6.28467 17.482 6.49 17.482H16.016V16.162C16.016 15.942 15.9793 15.788 15.906 15.7C15.8327 15.612 15.686 15.568 15.466 15.568H6.49C6.28467 15.568 6.14533 15.612 6.072 15.7C6.01333 15.788 5.984 15.942 5.984 16.162V16.866ZM34.98 4.106C34.936 4.502 34.87 4.86133 34.782 5.184H35.002C35.9113 5.16933 36.806 5.28667 37.686 5.536C38.566 5.78533 39.358 6.18133 40.062 6.724C40.766 7.252 41.3453 7.92667 41.8 8.748C42.2547 9.56933 42.5187 10.552 42.592 11.696H38.258C38.1553 11.1387 37.9573 10.6473 37.664 10.222C37.3853 9.79667 37.026 9.452 36.586 9.188C36.1607 8.90933 35.6693 8.704 35.112 8.572C34.5547 8.44 33.968 8.38133 33.352 8.396C33.2787 8.396 33.2053 8.40333 33.132 8.418C33.0587 8.418 32.978 8.42533 32.89 8.44C32.406 8.93867 31.856 9.386 31.24 9.782C30.6387 10.1633 30.008 10.4933 29.348 10.772C28.688 11.036 28.006 11.2487 27.302 11.41C26.6127 11.5567 25.9307 11.652 25.256 11.696C24.64 11.74 24.112 11.6153 23.672 11.322C23.2467 11.014 22.9973 10.6033 22.924 10.09C22.8507 9.606 22.946 9.17333 23.21 8.792C23.474 8.396 23.8773 8.16133 24.42 8.088C25.1827 8 25.9013 7.85333 26.576 7.648C27.2507 7.44267 27.852 7.17867 28.38 6.856C28.9227 6.53333 29.37 6.14467 29.722 5.69C30.074 5.23533 30.3087 4.70733 30.426 4.106H25.168C24.508 4.106 24.0313 3.92267 23.738 3.556C23.4593 3.17467 23.32 2.75667 23.32 2.302C23.32 2.082 23.3493 1.86933 23.408 1.664C23.4813 1.444 23.5913 1.246 23.738 1.07C23.8847 0.893999 24.0753 0.754666 24.31 0.651999C24.5447 0.549333 24.8307 0.498 25.168 0.498H40.392C40.7293 0.498 41.0153 0.549333 41.25 0.651999C41.4847 0.754666 41.6753 0.893999 41.822 1.07C41.9687 1.246 42.0713 1.444 42.13 1.664C42.2033 1.86933 42.24 2.082 42.24 2.302C42.24 2.75667 42.0933 3.17467 41.8 3.556C41.5213 3.92267 41.052 4.106 40.392 4.106H34.98ZM35.024 16.074V20.782H30.536V16.074H24.332C23.672 16.074 23.1953 15.8907 22.902 15.524C22.6233 15.1573 22.484 14.7467 22.484 14.292C22.484 14.072 22.5133 13.8593 22.572 13.654C22.6453 13.434 22.7553 13.236 22.902 13.06C23.0487 12.884 23.2393 12.7447 23.474 12.642C23.7087 12.5393 23.9947 12.488 24.332 12.488H41.228C41.5653 12.488 41.8513 12.5393 42.086 12.642C42.3207 12.7447 42.5113 12.884 42.658 13.06C42.8047 13.236 42.9073 13.434 42.966 13.654C43.0393 13.8593 43.076 14.072 43.076 14.292C43.076 14.7467 42.9293 15.1573 42.636 15.524C42.3573 15.8907 41.888 16.074 41.228 16.074H35.024Z"/>
</mask>
<path d="M4.686 20.672C4.026 20.672 3.49067 20.6133 3.08 20.496C2.684 20.3933 2.376 20.2173 2.156 19.968C1.936 19.7187 1.782 19.3813 1.694 18.956C1.62067 18.5307 1.584 18.0027 1.584 17.372V15.678C1.584 15.0473 1.62067 14.5193 1.694 14.094C1.782 13.6687 1.936 13.3313 2.156 13.082C2.376 12.8327 2.684 12.6567 3.08 12.554C3.49067 12.4367 4.026 12.378 4.686 12.378H17.292C17.952 12.378 18.48 12.4367 18.876 12.554C19.2867 12.6567 19.602 12.8327 19.822 13.082C20.042 13.3313 20.1887 13.6687 20.262 14.094C20.35 14.5193 20.394 15.0473 20.394 15.678V20.672H4.686ZM14.96 7.67C15.18 7.20067 15.3487 6.702 15.466 6.174C15.598 5.646 15.664 5.096 15.664 4.524V4.282C15.664 3.95933 15.4807 3.798 15.114 3.798H3.608C2.88933 3.798 2.36867 3.63667 2.046 3.314C1.738 2.97667 1.584 2.55133 1.584 2.038C1.584 1.56867 1.738 1.16533 2.046 0.827999C2.354 0.490666 2.87467 0.321999 3.608 0.321999H17.094C17.622 0.321999 18.0693 0.358666 18.436 0.431999C18.8173 0.490666 19.1253 0.607999 19.36 0.783998C19.5947 0.959999 19.7633 1.202 19.866 1.51C19.9833 1.80333 20.042 2.17733 20.042 2.632V3.842C20.042 4.722 19.9687 5.47 19.822 6.086C19.69 6.702 19.514 7.23 19.294 7.67H19.47C20.13 7.67 20.5993 7.85333 20.878 8.22C21.1567 8.58667 21.296 8.99 21.296 9.43C21.296 9.87 21.1493 10.2733 20.856 10.64C20.5773 11.0067 20.1153 11.19 19.47 11.19H2.53C1.88467 11.19 1.41533 11.0067 1.122 10.64C0.843333 10.2733 0.704 9.87 0.704 9.43C0.704 8.99 0.843333 8.58667 1.122 8.22C1.40067 7.85333 1.87 7.67 2.53 7.67H14.96ZM5.984 16.866C5.984 17.1153 6.01333 17.284 6.072 17.372C6.14533 17.4453 6.28467 17.482 6.49 17.482H16.016V16.162C16.016 15.942 15.9793 15.788 15.906 15.7C15.8327 15.612 15.686 15.568 15.466 15.568H6.49C6.28467 15.568 6.14533 15.612 6.072 15.7C6.01333 15.788 5.984 15.942 5.984 16.162V16.866ZM34.98 4.106C34.936 4.502 34.87 4.86133 34.782 5.184H35.002C35.9113 5.16933 36.806 5.28667 37.686 5.536C38.566 5.78533 39.358 6.18133 40.062 6.724C40.766 7.252 41.3453 7.92667 41.8 8.748C42.2547 9.56933 42.5187 10.552 42.592 11.696H38.258C38.1553 11.1387 37.9573 10.6473 37.664 10.222C37.3853 9.79667 37.026 9.452 36.586 9.188C36.1607 8.90933 35.6693 8.704 35.112 8.572C34.5547 8.44 33.968 8.38133 33.352 8.396C33.2787 8.396 33.2053 8.40333 33.132 8.418C33.0587 8.418 32.978 8.42533 32.89 8.44C32.406 8.93867 31.856 9.386 31.24 9.782C30.6387 10.1633 30.008 10.4933 29.348 10.772C28.688 11.036 28.006 11.2487 27.302 11.41C26.6127 11.5567 25.9307 11.652 25.256 11.696C24.64 11.74 24.112 11.6153 23.672 11.322C23.2467 11.014 22.9973 10.6033 22.924 10.09C22.8507 9.606 22.946 9.17333 23.21 8.792C23.474 8.396 23.8773 8.16133 24.42 8.088C25.1827 8 25.9013 7.85333 26.576 7.648C27.2507 7.44267 27.852 7.17867 28.38 6.856C28.9227 6.53333 29.37 6.14467 29.722 5.69C30.074 5.23533 30.3087 4.70733 30.426 4.106H25.168C24.508 4.106 24.0313 3.92267 23.738 3.556C23.4593 3.17467 23.32 2.75667 23.32 2.302C23.32 2.082 23.3493 1.86933 23.408 1.664C23.4813 1.444 23.5913 1.246 23.738 1.07C23.8847 0.893999 24.0753 0.754666 24.31 0.651999C24.5447 0.549333 24.8307 0.498 25.168 0.498H40.392C40.7293 0.498 41.0153 0.549333 41.25 0.651999C41.4847 0.754666 41.6753 0.893999 41.822 1.07C41.9687 1.246 42.0713 1.444 42.13 1.664C42.2033 1.86933 42.24 2.082 42.24 2.302C42.24 2.75667 42.0933 3.17467 41.8 3.556C41.5213 3.92267 41.052 4.106 40.392 4.106H34.98ZM35.024 16.074V20.782H30.536V16.074H24.332C23.672 16.074 23.1953 15.8907 22.902 15.524C22.6233 15.1573 22.484 14.7467 22.484 14.292C22.484 14.072 22.5133 13.8593 22.572 13.654C22.6453 13.434 22.7553 13.236 22.902 13.06C23.0487 12.884 23.2393 12.7447 23.474 12.642C23.7087 12.5393 23.9947 12.488 24.332 12.488H41.228C41.5653 12.488 41.8513 12.5393 42.086 12.642C42.3207 12.7447 42.5113 12.884 42.658 13.06C42.8047 13.236 42.9073 13.434 42.966 13.654C43.0393 13.8593 43.076 14.072 43.076 14.292C43.076 14.7467 42.9293 15.1573 42.636 15.524C42.3573 15.8907 41.888 16.074 41.228 16.074H35.024Z" fill="black"/>
<path d="M3.08 20.496L3.35472 19.5345L3.34288 19.5311L3.33096 19.528L3.08 20.496ZM2.156 19.968L1.40616 20.6296L2.156 19.968ZM1.694 18.956L0.70854 19.1259L0.711368 19.1423L0.71474 19.1586L1.694 18.956ZM1.694 14.094L0.71474 13.8914L0.711368 13.9077L0.70854 13.9241L1.694 14.094ZM2.156 13.082L1.40616 12.4204L1.40616 12.4204L2.156 13.082ZM3.08 12.554L3.33096 13.522L3.34288 13.5189L3.35472 13.5155L3.08 12.554ZM18.876 12.554L18.5919 13.5128L18.6126 13.5189L18.6335 13.5241L18.876 12.554ZM19.822 13.082L19.0722 13.7436V13.7436L19.822 13.082ZM20.262 14.094L19.2765 14.2639L19.2794 14.2803L19.2827 14.2966L20.262 14.094ZM20.394 20.672V21.672H21.394V20.672H20.394ZM14.96 7.67V8.67H15.5957L15.8655 8.09443L14.96 7.67ZM15.466 6.174L14.4959 5.93146L14.4927 5.94423L14.4898 5.95707L15.466 6.174ZM2.046 3.314L1.30751 3.98827L1.32283 4.00504L1.33889 4.02111L2.046 3.314ZM2.046 0.827999L1.30751 0.15373L1.30751 0.15373L2.046 0.827999ZM18.436 0.431999L18.2399 1.41258L18.2618 1.41697L18.2839 1.42037L18.436 0.431999ZM19.36 0.783998L19.96 -0.0160004L19.96 -0.016003L19.36 0.783998ZM19.866 1.51L18.9173 1.82623L18.9266 1.85411L18.9375 1.88139L19.866 1.51ZM19.822 6.086L18.8492 5.85438L18.8466 5.8654L18.8442 5.87647L19.822 6.086ZM19.294 7.67L18.3996 7.22278L17.676 8.67H19.294V7.67ZM20.878 8.22L20.0818 8.82508V8.82508L20.878 8.22ZM20.856 10.64L20.0751 10.0153L20.0674 10.025L20.0598 10.0349L20.856 10.64ZM1.122 10.64L0.325838 11.2451L0.333363 11.255L0.341131 11.2647L1.122 10.64ZM1.122 8.22L1.91816 8.82508L1.91816 8.82508L1.122 8.22ZM6.072 17.372L5.23995 17.9267L5.29488 18.0091L5.36489 18.0791L6.072 17.372ZM16.016 17.482V18.482H17.016V17.482H16.016ZM6.072 15.7L5.30378 15.0598L5.26958 15.1009L5.23995 15.1453L6.072 15.7ZM4.686 19.672C4.07421 19.672 3.64138 19.6164 3.35472 19.5345L2.80528 21.4575C3.33995 21.6103 3.97779 21.672 4.686 21.672V19.672ZM3.33096 19.528C3.08325 19.4638 2.96619 19.3748 2.90584 19.3064L1.40616 20.6296C1.78581 21.0599 2.28475 21.3229 2.82904 21.464L3.33096 19.528ZM2.90584 19.3064C2.83096 19.2215 2.73651 19.0591 2.67326 18.7534L0.71474 19.1586C0.827486 19.7035 1.04105 20.2158 1.40616 20.6296L2.90584 19.3064ZM2.67946 18.7861C2.61911 18.436 2.584 17.9692 2.584 17.372H0.584C0.584 18.0361 0.622227 18.6253 0.70854 19.1259L2.67946 18.7861ZM2.584 17.372V15.678H0.584V17.372H2.584ZM2.584 15.678C2.584 15.0808 2.61911 14.614 2.67946 14.2639L0.70854 13.9241C0.622227 14.4247 0.584 15.0139 0.584 15.678H2.584ZM2.67326 14.2966C2.73651 13.9909 2.83096 13.8285 2.90584 13.7436L1.40616 12.4204C1.04105 12.8342 0.827486 13.3465 0.71474 13.8914L2.67326 14.2966ZM2.90584 13.7436C2.96619 13.6752 3.08325 13.5862 3.33096 13.522L2.82904 11.586C2.28475 11.7271 1.78581 11.9901 1.40616 12.4204L2.90584 13.7436ZM3.35472 13.5155C3.64138 13.4336 4.07421 13.378 4.686 13.378V11.378C3.97779 11.378 3.33995 11.4397 2.80528 11.5925L3.35472 13.5155ZM4.686 13.378H17.292V11.378H4.686V13.378ZM17.292 13.378C17.9059 13.378 18.3263 13.4341 18.5919 13.5128L19.1601 11.5952C18.6337 11.4392 17.9981 11.378 17.292 11.378V13.378ZM18.6335 13.5241C18.9013 13.5911 19.0185 13.6828 19.0722 13.7436L20.5718 12.4204C20.1855 11.9825 19.6721 11.7222 19.1185 11.5839L18.6335 13.5241ZM19.0722 13.7436C19.1381 13.8184 19.2255 13.9677 19.2765 14.2639L21.2475 13.9241C21.1519 13.3696 20.9459 12.8443 20.5718 12.4204L19.0722 13.7436ZM19.2827 14.2966C19.3523 14.6328 19.394 15.0878 19.394 15.678H21.394C21.394 15.0069 21.3477 14.4059 21.2413 13.8914L19.2827 14.2966ZM19.394 15.678V20.672H21.394V15.678H19.394ZM20.394 19.672H4.686V21.672H20.394V19.672ZM15.8655 8.09443C16.1179 7.55591 16.3096 6.98737 16.4422 6.39093L14.4898 5.95707C14.3877 6.41662 14.2421 6.84542 14.0545 7.24556L15.8655 8.09443ZM16.4361 6.41654C16.589 5.80528 16.664 5.1736 16.664 4.524H14.664C14.664 5.0184 14.607 5.48672 14.4959 5.93146L16.4361 6.41654ZM16.664 4.524V4.282H14.664V4.524H16.664ZM16.664 4.282C16.664 3.93097 16.5584 3.49499 16.1871 3.16829C15.8403 2.86305 15.4223 2.798 15.114 2.798V4.798C15.1724 4.798 15.0294 4.81361 14.8659 4.66971C14.678 4.50434 14.664 4.31036 14.664 4.282H16.664ZM15.114 2.798H3.608V4.798H15.114V2.798ZM3.608 2.798C3.00684 2.798 2.80473 2.65851 2.75311 2.60689L1.33889 4.02111C1.9326 4.61482 2.77183 4.798 3.608 4.798V2.798ZM2.78449 2.63973C2.66588 2.50983 2.584 2.33508 2.584 2.038H0.584C0.584 2.76758 0.81012 3.4435 1.30751 3.98827L2.78449 2.63973ZM2.584 2.038C2.584 1.81061 2.64975 1.64983 2.78449 1.50227L1.30751 0.15373C0.826246 0.680833 0.584 1.32672 0.584 2.038H2.584ZM2.78449 1.50227C2.81445 1.46945 2.98986 1.322 3.608 1.322V-0.678001C2.75947 -0.678001 1.89355 -0.488122 1.30751 0.15373L2.78449 1.50227ZM3.608 1.322H17.094V-0.678001H3.608V1.322ZM17.094 1.322C17.5807 1.322 17.9581 1.35623 18.2399 1.41258L18.6321 -0.548582C18.1806 -0.638894 17.6633 -0.678001 17.094 -0.678001V1.322ZM18.2839 1.42037C18.5522 1.46164 18.6918 1.53287 18.76 1.584L19.96 -0.016003C19.5588 -0.316868 19.0825 -0.480311 18.5881 -0.556373L18.2839 1.42037ZM18.76 1.584C18.8147 1.62502 18.8718 1.68968 18.9173 1.82623L20.8147 1.19377C20.6549 0.714319 20.3746 0.294976 19.96 -0.0160004L18.76 1.584ZM18.9375 1.88139C18.9917 2.01685 19.042 2.25327 19.042 2.632H21.042C21.042 2.1014 20.975 1.58982 20.7945 1.13861L18.9375 1.88139ZM19.042 2.632V3.842H21.042V2.632H19.042ZM19.042 3.842C19.042 4.67179 18.9723 5.33722 18.8492 5.85438L20.7948 6.31762C20.965 5.60278 21.042 4.77221 21.042 3.842H19.042ZM18.8442 5.87647C18.7252 6.43183 18.5731 6.8758 18.3996 7.22278L20.1884 8.11721C20.4549 7.58419 20.6548 6.97216 20.7998 6.29553L18.8442 5.87647ZM19.294 8.67H19.47V6.67H19.294V8.67ZM19.47 8.67C19.96 8.67 20.0644 8.80219 20.0818 8.82508L21.6742 7.61492C21.1342 6.90447 20.3 6.67 19.47 6.67V8.67ZM20.0818 8.82508C20.2349 9.02645 20.296 9.21924 20.296 9.43H22.296C22.296 8.76076 22.0785 8.14688 21.6742 7.61492L20.0818 8.82508ZM20.296 9.43C20.296 9.62708 20.2368 9.81317 20.0751 10.0153L21.6369 11.2647C22.0618 10.7335 22.296 10.1129 22.296 9.43H20.296ZM20.0598 10.0349C20.0385 10.0631 19.936 10.19 19.47 10.19V12.19C20.2947 12.19 21.1162 11.9503 21.6522 11.2451L20.0598 10.0349ZM19.47 10.19H2.53V12.19H19.47V10.19ZM2.53 10.19C2.06788 10.19 1.9421 10.0643 1.90287 10.0153L0.341131 11.2647C0.888565 11.949 1.70146 12.19 2.53 12.19V10.19ZM1.91816 10.0349C1.76512 9.83354 1.704 9.64076 1.704 9.43H-0.296C-0.296 10.0992 -0.0784531 10.7131 0.325838 11.2451L1.91816 10.0349ZM1.704 9.43C1.704 9.21924 1.76512 9.02645 1.91816 8.82508L0.325838 7.61492C-0.0784531 8.14688 -0.296 8.76076 -0.296 9.43H1.704ZM1.91816 8.82508C1.93556 8.80219 2.03999 8.67 2.53 8.67V6.67C1.70001 6.67 0.865773 6.90447 0.325837 7.61492L1.91816 8.82508ZM2.53 8.67H14.96V6.67H2.53V8.67ZM4.984 16.866C4.984 17.0246 4.99295 17.1907 5.02079 17.3508C5.0463 17.4975 5.10027 17.7172 5.23995 17.9267L6.90405 16.8173C6.94833 16.8837 6.96998 16.9389 6.97945 16.9666C6.9893 16.9953 6.99173 17.0112 6.99121 17.0082C6.99083 17.006 6.98883 16.9933 6.98705 16.9679C6.98529 16.9428 6.984 16.9092 6.984 16.866H4.984ZM5.36489 18.0791C5.74095 18.4552 6.2461 18.482 6.49 18.482V16.482C6.44007 16.482 6.4457 16.4768 6.48599 16.4874C6.52399 16.4974 6.6511 16.5369 6.77911 16.6649L5.36489 18.0791ZM6.49 18.482H16.016V16.482H6.49V18.482ZM17.016 17.482V16.162H15.016V17.482H17.016ZM17.016 16.162C17.016 15.8941 16.9841 15.4316 16.6742 15.0598L15.1378 16.3402C15.0453 16.2292 15.0202 16.1322 15.0157 16.1131C15.0105 16.0913 15.016 16.1022 15.016 16.162H17.016ZM16.6742 15.0598C16.2948 14.6045 15.734 14.568 15.466 14.568V16.568C15.5173 16.568 15.5044 16.5741 15.4537 16.5588C15.4009 16.543 15.2626 16.49 15.1378 16.3402L16.6742 15.0598ZM15.466 14.568H6.49V16.568H15.466V14.568ZM6.49 14.568C6.2093 14.568 5.67376 14.6158 5.30378 15.0598L6.84022 16.3402C6.72475 16.4788 6.5956 16.5347 6.53263 16.5546C6.47429 16.573 6.45151 16.568 6.49 16.568V14.568ZM5.23995 15.1453C5.00445 15.4986 4.984 15.9174 4.984 16.162H6.984C6.984 16.1288 6.98512 16.1043 6.98644 16.0876C6.98778 16.0705 6.98904 16.0649 6.98834 16.0686C6.98773 16.0718 6.98402 16.0906 6.97329 16.1201C6.96268 16.1493 6.94202 16.1978 6.90405 16.2547L5.23995 15.1453ZM4.984 16.162V16.866H6.984V16.162H4.984ZM34.98 4.106V3.106H34.085L33.9861 3.99557L34.98 4.106ZM34.782 5.184L33.8172 4.92088L33.4728 6.184H34.782V5.184ZM35.002 5.184V6.184H35.0101L35.0181 6.18387L35.002 5.184ZM37.686 5.536L37.9586 4.57387L37.686 5.536ZM40.062 6.724L39.4514 7.51608L39.462 7.524L40.062 6.724ZM41.8 8.748L40.9251 9.23232L40.9251 9.23232L41.8 8.748ZM42.592 11.696V12.696H43.6582L43.59 11.632L42.592 11.696ZM38.258 11.696L37.2745 11.8772L37.4254 12.696H38.258V11.696ZM37.664 10.222L36.8275 10.77L36.834 10.78L36.8408 10.7897L37.664 10.222ZM36.586 9.188L36.038 10.0245L36.0545 10.0353L36.0715 10.0455L36.586 9.188ZM35.112 8.572L35.3425 7.59892L35.112 8.572ZM33.352 8.396V9.396H33.3639L33.3758 9.39572L33.352 8.396ZM33.132 8.418V9.418H33.231L33.3281 9.39858L33.132 8.418ZM32.89 8.44L32.7256 7.45361L32.4014 7.50765L32.1724 7.74352L32.89 8.44ZM31.24 9.782L31.7756 10.6265L31.7808 10.6232L31.24 9.782ZM29.348 10.772L29.7194 11.7005L29.7282 11.6969L29.737 11.6932L29.348 10.772ZM27.302 11.41L27.5101 12.3881L27.5178 12.3865L27.5254 12.3847L27.302 11.41ZM25.256 11.696L25.1909 10.6981L25.1848 10.6985L25.256 11.696ZM23.672 11.322L23.0855 12.1319L23.1012 12.1433L23.1173 12.1541L23.672 11.322ZM22.924 10.09L23.914 9.94857L23.9127 9.94019L22.924 10.09ZM23.21 8.792L24.0322 9.36121L24.0372 9.354L24.0421 9.3467L23.21 8.792ZM24.42 8.088L24.3054 7.09459L24.2957 7.09571L24.2861 7.09701L24.42 8.088ZM26.576 7.648L26.8672 8.60467L26.576 7.648ZM28.38 6.856L27.8689 5.9964L27.8586 6.00272L28.38 6.856ZM29.722 5.69L30.5127 6.30217V6.30217L29.722 5.69ZM30.426 4.106L31.4075 4.29751L31.64 3.106H30.426V4.106ZM23.738 3.556L22.9306 4.14602L22.9435 4.16364L22.9571 4.1807L23.738 3.556ZM23.408 1.664L22.4593 1.34777L22.4524 1.36838L22.4465 1.38928L23.408 1.664ZM23.738 1.07L22.9698 0.429813L22.9698 0.429815L23.738 1.07ZM24.31 0.651999L23.9092 -0.264159L23.9092 -0.264158L24.31 0.651999ZM41.25 0.651999L41.6508 -0.264158L41.6508 -0.264159L41.25 0.651999ZM41.822 1.07L42.5902 0.429815L42.5902 0.429811L41.822 1.07ZM42.13 1.664L41.1638 1.92166L41.1744 1.9615L41.1883 2.00034L42.13 1.664ZM41.8 3.556L41.0074 2.94628L41.0038 2.95092L41.8 3.556ZM35.024 16.074V15.074H34.024V16.074H35.024ZM35.024 20.782V21.782H36.024V20.782H35.024ZM30.536 20.782H29.536V21.782H30.536V20.782ZM30.536 16.074H31.536V15.074H30.536V16.074ZM22.902 15.524L22.1058 16.1291L22.1134 16.139L22.1211 16.1487L22.902 15.524ZM22.572 13.654L21.6233 13.3378L21.6164 13.3584L21.6105 13.3793L22.572 13.654ZM23.474 12.642L23.8748 13.5582L23.474 12.642ZM42.086 12.642L41.6852 13.5582L41.6852 13.5582L42.086 12.642ZM42.966 13.654L41.9998 13.9117L42.0104 13.9515L42.0243 13.9903L42.966 13.654ZM42.636 15.524L41.8551 14.8993L41.8474 14.909L41.8398 14.9189L42.636 15.524ZM33.9861 3.99557C33.9468 4.34943 33.8893 4.65668 33.8172 4.92088L35.7468 5.44712C35.8507 5.06599 35.9252 4.65456 35.9739 4.21643L33.9861 3.99557ZM34.782 6.184H35.002V4.184H34.782V6.184ZM35.0181 6.18387C35.8293 6.17079 36.6267 6.27524 37.4134 6.49813L37.9586 4.57387C36.9853 4.29809 35.9933 4.16788 34.9859 4.18413L35.0181 6.18387ZM37.4134 6.49813C38.1746 6.7138 38.8512 7.0533 39.4515 7.51601L40.6725 5.93199C39.8648 5.30937 38.9574 4.85687 37.9586 4.57387L37.4134 6.49813ZM39.462 7.524C40.0457 7.96177 40.5341 8.52604 40.9251 9.23232L42.6749 8.26368C42.1565 7.32729 41.4863 6.54222 40.662 5.924L39.462 7.524ZM40.9251 9.23232C41.2942 9.89897 41.5281 10.7315 41.5941 11.76L43.59 11.632C43.5092 10.3725 43.2152 9.23969 42.6749 8.26368L40.9251 9.23232ZM42.592 10.696H38.258V12.696H42.592V10.696ZM39.2415 11.5148C39.1157 10.8323 38.8681 10.2066 38.4872 9.65427L36.8408 10.7897C37.0466 11.0881 37.1949 11.445 37.2745 11.8772L39.2415 11.5148ZM38.5005 9.67397C38.1384 9.12135 37.6686 8.67134 37.1005 8.33051L36.0715 10.0455C36.3834 10.2327 36.6323 10.472 36.8275 10.77L38.5005 9.67397ZM37.134 8.35154C36.6001 8.00173 35.9986 7.75433 35.3425 7.59892L34.8815 9.54508C35.34 9.65367 35.7212 9.81693 36.038 10.0245L37.134 8.35154ZM35.3425 7.59892C34.6958 7.44577 34.0233 7.37973 33.3282 7.39628L33.3758 9.39572C33.9127 9.38293 34.4135 9.43423 34.8815 9.54508L35.3425 7.59892ZM33.352 7.396C33.2115 7.396 33.0725 7.41009 32.9359 7.43742L33.3281 9.39858C33.3382 9.39657 33.3458 9.396 33.352 9.396V7.396ZM33.132 7.418C32.9933 7.418 32.8567 7.43175 32.7256 7.45361L33.0544 9.42639C33.0993 9.41892 33.124 9.418 33.132 9.418V7.418ZM32.1724 7.74352C31.7444 8.1845 31.2544 8.58393 30.6992 8.94082L31.7808 10.6232C32.4576 10.1881 33.0676 9.69284 33.6076 9.13647L32.1724 7.74352ZM30.7045 8.93749C30.1501 9.28906 29.5684 9.59344 28.959 9.85075L29.737 11.6932C30.4476 11.3932 31.1273 11.0376 31.7755 10.6265L30.7045 8.93749ZM28.9766 9.84352C28.3654 10.088 27.733 10.2853 27.0786 10.4353L27.5254 12.3847C28.279 12.212 29.0106 11.984 29.7194 11.7005L28.9766 9.84352ZM27.0939 10.4319C26.4497 10.569 25.8155 10.6574 25.1909 10.6981L25.3211 12.6939C26.0458 12.6466 26.7756 12.5444 27.5101 12.3881L27.0939 10.4319ZM25.1848 10.6985C24.7513 10.7295 24.4523 10.6404 24.2267 10.4899L23.1173 12.1541C23.7717 12.5903 24.5287 12.7505 25.3272 12.6935L25.1848 10.6985ZM24.2585 10.5121C24.0495 10.3607 23.9484 10.1898 23.9139 9.94858L21.9341 10.2314C22.0463 11.0169 22.4438 11.6673 23.0855 12.1319L24.2585 10.5121ZM23.9127 9.94019C23.8753 9.69293 23.922 9.52041 24.0322 9.36121L22.3878 8.22279C21.97 8.82626 21.8261 9.51907 21.9353 10.2398L23.9127 9.94019ZM24.0421 9.3467C24.122 9.22675 24.2484 9.12028 24.5539 9.07899L24.2861 7.09701C23.5063 7.20238 22.826 7.56525 22.378 8.2373L24.0421 9.3467ZM24.5346 9.08141C25.3519 8.98711 26.1301 8.82901 26.8672 8.60467L26.2848 6.69133C25.6726 6.87766 25.0134 7.01289 24.3054 7.09459L24.5346 9.08141ZM26.8672 8.60467C27.6116 8.3781 28.2921 8.08163 28.9015 7.70928L27.8586 6.00272C27.4119 6.2757 26.8897 6.50723 26.2848 6.69133L26.8672 8.60467ZM28.8911 7.71554C29.5311 7.335 30.0767 6.86542 30.5127 6.30217L28.9313 5.07783C28.6633 5.42391 28.3143 5.73166 27.8689 5.99646L28.8911 7.71554ZM30.5127 6.30217C30.9665 5.71606 31.2623 5.04174 31.4075 4.29751L29.4445 3.91449C29.3551 4.37292 29.1815 4.7546 28.9313 5.07783L30.5127 6.30217ZM30.426 3.106H25.168V5.106H30.426V3.106ZM25.168 3.106C24.6822 3.106 24.5541 2.97531 24.5189 2.9313L22.9571 4.1807C23.5086 4.87002 24.3338 5.106 25.168 5.106V3.106ZM24.5454 2.96598C24.3867 2.74882 24.32 2.53591 24.32 2.302H22.32C22.32 2.97742 22.532 3.60052 22.9306 4.14602L24.5454 2.96598ZM24.32 2.302C24.32 2.17209 24.3371 2.05203 24.3695 1.93872L22.4465 1.38928C22.3615 1.68663 22.32 1.99191 22.32 2.302H24.32ZM24.3567 1.98023C24.3911 1.87704 24.4404 1.7892 24.5062 1.71018L22.9698 0.429815C22.7423 0.702796 22.5716 1.01096 22.4593 1.34777L24.3567 1.98023ZM24.5062 1.71018C24.5423 1.66691 24.6014 1.61602 24.7108 1.56816L23.9092 -0.264158C23.5493 -0.10669 23.227 0.121093 22.9698 0.429813L24.5062 1.71018ZM24.7108 1.56816C24.7858 1.53534 24.927 1.498 25.168 1.498V-0.502C24.7343 -0.502 24.3035 -0.436672 23.9092 -0.264159L24.7108 1.56816ZM25.168 1.498H40.392V-0.502H25.168V1.498ZM40.392 1.498C40.633 1.498 40.7742 1.53534 40.8492 1.56816L41.6508 -0.264159C41.2565 -0.436672 40.8257 -0.502 40.392 -0.502V1.498ZM40.8492 1.56816C40.9586 1.61602 41.0177 1.66691 41.0538 1.71019L42.5902 0.429811C42.333 0.121093 42.0107 -0.10669 41.6508 -0.264158L40.8492 1.56816ZM41.0538 1.71018C41.108 1.77529 41.1428 1.84294 41.1638 1.92166L43.0962 1.40634C42.9999 1.04506 42.8293 0.716708 42.5902 0.429815L41.0538 1.71018ZM41.1883 2.00034C41.2227 2.09674 41.24 2.19557 41.24 2.302H43.24C43.24 1.96843 43.184 1.64193 43.0717 1.32766L41.1883 2.00034ZM41.24 2.302C41.24 2.52278 41.1746 2.72889 41.0074 2.94629L42.5926 4.16571C43.0121 3.62045 43.24 2.99055 43.24 2.302H41.24ZM41.0038 2.95092C40.9864 2.97381 40.882 3.106 40.392 3.106V5.106C41.222 5.106 42.0562 4.87152 42.5962 4.16108L41.0038 2.95092ZM40.392 3.106H34.98V5.106H40.392V3.106ZM34.024 16.074V20.782H36.024V16.074H34.024ZM35.024 19.782H30.536V21.782H35.024V19.782ZM31.536 20.782V16.074H29.536V20.782H31.536ZM30.536 15.074H24.332V17.074H30.536V15.074ZM24.332 15.074C23.8462 15.074 23.7181 14.9433 23.6829 14.8993L22.1211 16.1487C22.6726 16.838 23.4978 17.074 24.332 17.074V15.074ZM23.6982 14.9189C23.5499 14.7238 23.484 14.5251 23.484 14.292H21.484C21.484 14.9682 21.6968 15.5908 22.1058 16.1291L23.6982 14.9189ZM23.484 14.292C23.484 14.1621 23.5011 14.042 23.5335 13.9287L21.6105 13.3793C21.5255 13.6766 21.484 13.9819 21.484 14.292H23.484ZM23.5207 13.9702C23.5551 13.867 23.6044 13.7792 23.6702 13.7002L22.1338 12.4198C21.9063 12.6928 21.7356 13.001 21.6233 13.3378L23.5207 13.9702ZM23.6702 13.7002C23.7063 13.6569 23.7654 13.606 23.8748 13.5582L23.0732 11.7258C22.7133 11.8833 22.391 12.1111 22.1338 12.4198L23.6702 13.7002ZM23.8748 13.5582C23.9498 13.5253 24.091 13.488 24.332 13.488V11.488C23.8983 11.488 23.4675 11.5533 23.0732 11.7258L23.8748 13.5582ZM24.332 13.488H41.228V11.488H24.332V13.488ZM41.228 13.488C41.469 13.488 41.6102 13.5253 41.6852 13.5582L42.4868 11.7258C42.0925 11.5533 41.6617 11.488 41.228 11.488V13.488ZM41.6852 13.5582C41.7946 13.606 41.8537 13.6569 41.8898 13.7002L43.4262 12.4198C43.169 12.1111 42.8467 11.8833 42.4868 11.7258L41.6852 13.5582ZM41.8898 13.7002C41.944 13.7653 41.9788 13.8329 41.9998 13.9117L43.9322 13.3963C43.8359 13.0351 43.6653 12.7067 43.4262 12.4198L41.8898 13.7002ZM42.0243 13.9903C42.0587 14.0867 42.076 14.1856 42.076 14.292H44.076C44.076 13.9584 44.02 13.6319 43.9077 13.3177L42.0243 13.9903ZM42.076 14.292C42.076 14.5117 42.0116 14.7037 41.8551 14.8993L43.4169 16.1487C43.847 15.611 44.076 14.9817 44.076 14.292H42.076ZM41.8398 14.9189C41.8224 14.9418 41.718 15.074 41.228 15.074V17.074C42.058 17.074 42.8922 16.8395 43.4322 16.1291L41.8398 14.9189ZM41.228 15.074H35.024V17.074H41.228V15.074Z" fill="white" mask="url(#path-1-outside-1_287_6007)"/>
</svg>
