<svg width="110" height="105" viewBox="0 0 110 105" fill="none" xmlns="http://www.w3.org/2000/svg">
<path d="M51.2296 4.77837C52.5732 1.43248 57.3097 1.43249 58.6533 4.77836L60.5093 4.03307L58.6533 4.77836L69.0263 30.6091C70.1706 33.4587 72.8451 35.4019 75.9088 35.6096L103.681 37.4927C107.278 37.7366 108.742 42.2414 105.975 44.5531L84.6137 62.4005C82.2572 64.3694 81.2356 67.5134 81.9848 70.4915L88.7759 97.486C89.6555 100.983 85.8236 103.767 82.7699 101.85L59.1951 87.0491C56.5944 85.4164 53.2885 85.4164 50.6878 87.0491L27.113 101.85C24.0593 103.767 20.2274 100.983 21.107 97.486L27.8981 70.4915C28.6473 67.5135 27.6257 64.3694 25.2692 62.4005L3.90806 44.5531C1.14114 42.2414 2.60482 37.7366 6.20214 37.4927L33.9741 35.6096C37.0378 35.4019 39.7123 33.4588 40.8566 30.6091L51.2296 4.77837Z" fill="#F9F9F9" stroke="#DC8823" stroke-width="4"/>
</svg>
