<svg width="110" height="106" viewBox="0 0 110 106" fill="none" xmlns="http://www.w3.org/2000/svg">
<path d="M51.6299 5.32329C52.9736 1.97741 57.7101 1.97741 59.0537 5.32328L60.9097 4.57799L59.0537 5.32329L69.4266 31.154C70.571 34.0037 73.2454 35.9468 76.3092 36.1545L104.081 38.0376C107.678 38.2815 109.142 42.7863 106.375 45.0981L85.0141 62.9454C82.6576 64.9143 81.636 68.0584 82.3852 71.0364L89.1763 98.031C90.0559 101.528 86.224 104.312 83.1703 102.395L59.5955 87.5941C56.9948 85.9613 53.6889 85.9613 51.0882 87.5941L27.5134 102.395C24.4597 104.312 20.6277 101.528 21.5074 98.031L28.2985 71.0364C29.0477 68.0584 28.0261 64.9143 25.6696 62.9454L4.30845 45.0981C1.54153 42.7863 3.00521 38.2815 6.60253 38.0376L34.3744 36.1545C37.4382 35.9468 40.1127 34.0037 41.257 31.154L51.6299 5.32329Z" fill="#FFE45A" stroke="#DC8823" stroke-width="4"/>
</svg>
